<svg width="44" height="44" viewBox="0 0 44 44" fill="none" xmlns="http://www.w3.org/2000/svg">
<g clip-path="url(#clip0_213_513)">
<circle cx="22" cy="22" r="22" fill="#F8F8F8"/>
<path d="M7.19595 10.9076C8.52035 10.9076 9.69027 11.769 10.0843 13.0333L12.0213 19.2524L16.697 12.2525C17.2583 11.4121 18.2023 10.9076 19.2128 10.9076H24.86C26.7408 10.9076 28.1659 12.606 27.8393 14.4584L25.9404 25.2286C25.6305 26.9867 26.8043 28.4118 28.5624 28.4118C30.622 28.4118 31.9968 26.9867 32.3068 25.2286L34.3909 13.4078C34.6456 11.9621 35.902 10.9081 37.3702 10.9081H41.0026C37.1854 4.38289 30.1048 0 22 0C13.8952 0 6.81462 4.38289 2.99738 10.9076H7.19595Z" fill="#0D0D0D"/>
<path d="M41.0989 11.0733C40.324 11.7143 39.798 12.6119 39.6225 13.6082L37.6806 24.6219C36.8593 29.2805 33.9499 33.0924 27.7166 33.0924C23.362 33.0924 19.9178 29.2805 20.7396 24.6219L23.0624 11.4483C22.5994 11.7612 22.1985 12.1572 21.8792 12.6158L13.8131 24.2142L12.2594 32.7252H6.72027L8.31209 24.1599L4.50853 13.2362C4.20982 12.3777 3.65982 11.6292 2.93089 11.087L2.90498 11.0675C1.05649 14.2883 0 18.0209 0 22C0 34.1504 9.84964 44 22 44C34.1504 44 44 34.1504 44 22C44 18.0229 42.9445 14.2927 41.0989 11.0733Z" fill="#0D0D0D"/>
</g>
<defs>
<clipPath id="clip0_213_513">
<rect width="44" height="44" fill="white"/>
</clipPath>
</defs>
</svg>
