<svg width="104" height="68" viewBox="0 0 104 68" fill="none" xmlns="http://www.w3.org/2000/svg">
<circle cx="34" cy="34" r="34" fill="#F8C00C"/>
<path d="M42.352 22.46C42.28 22.208 42.208 21.956 42.1 21.74C41.92 21.38 41.632 21.164 41.272 21.056C41.056 21.02 40.84 20.984 40.624 20.984C39.976 20.948 39.292 20.948 38.644 20.984C37.528 21.056 36.448 21.2 35.332 21.308C34.684 21.38 34.072 21.56 33.424 21.632C33.136 21.668 32.848 21.74 32.56 21.776C32.416 21.812 32.272 21.848 32.164 21.848L30.22 22.28C29.896 22.352 29.608 22.352 29.284 22.46C28.996 22.604 28.708 22.676 28.384 22.748L27.916 22.856C27.268 23.144 26.584 23.288 25.972 23.576C25.864 23.648 25.756 23.612 25.684 23.72C25.612 23.828 25.684 23.9 25.72 23.972C25.756 24.044 25.72 24.116 25.684 24.188C25.648 24.368 25.72 24.476 25.936 24.512C26.008 24.512 26.08 24.476 26.188 24.476C26.728 24.332 27.304 24.224 27.88 24.08C28.996 23.756 30.148 23.504 31.3 23.288C31.408 23.252 31.48 23.252 31.588 23.252C31.624 23.252 31.66 23.288 31.66 23.288C31.66 23.324 31.66 23.36 31.624 23.396C31.48 23.504 31.264 23.54 31.084 23.576C29.428 23.864 27.844 24.332 26.224 24.692C26.404 24.692 26.548 24.692 26.728 24.656C27.16 24.584 27.592 24.476 28.024 24.368C29.068 24.116 30.112 23.9 31.192 23.648C31.516 23.576 31.624 23.684 31.552 24.008C31.516 24.152 31.444 24.296 31.408 24.44L31.084 25.268C30.832 25.952 30.616 26.636 30.328 27.284C30.004 27.968 29.752 28.724 29.356 29.408L29.248 29.696C28.816 30.812 28.276 31.928 27.808 33.044C27.556 33.656 27.16 34.16 26.548 34.484C26.368 34.556 26.224 34.628 26.08 34.772C25.54 35.24 24.892 35.564 24.28 35.996C23.596 36.5 22.948 37.076 22.264 37.616C21.688 38.048 21.184 38.588 20.608 39.02C19.96 39.488 19.348 40.028 18.772 40.604C18.556 40.856 18.304 41.108 18.052 41.288C17.872 41.396 17.728 41.54 17.62 41.684C17.368 42.008 17.08 42.296 16.756 42.584C16.54 42.8 16.324 43.016 16.144 43.232C15.892 43.592 15.604 43.916 15.28 44.168C15.172 44.276 15.064 44.348 14.992 44.456C14.812 44.744 14.596 44.96 14.38 45.212C14.02 45.644 13.552 46.04 13.3 46.616C13.264 46.688 13.192 46.76 13.12 46.832C12.868 47.048 12.688 47.336 12.472 47.588C12.184 48.02 11.968 48.452 11.716 48.848C11.284 49.496 10.996 50.144 10.78 50.828C10.636 51.332 10.6 51.836 10.6 52.376C10.6 52.772 10.708 53.168 10.96 53.528C11.104 53.816 11.32 54.068 11.572 54.32C12.436 55.22 13.516 55.4 14.668 55.148C15.604 54.968 16.396 54.428 17.08 53.816C17.44 53.492 17.8 53.132 18.16 52.772C18.88 52.052 19.528 51.26 20.14 50.432C20.716 49.676 21.256 48.92 21.796 48.128C22.48 47.192 23.092 46.22 23.668 45.212C24.352 44.024 25 42.8 25.648 41.612C26.368 40.28 27.016 38.912 27.664 37.544C27.772 37.328 27.844 37.076 27.952 36.86C28.06 36.752 28.132 36.608 28.204 36.464C28.348 36.14 28.528 35.852 28.636 35.528C28.744 34.952 29.14 34.592 29.536 34.232C29.608 34.196 29.68 34.124 29.716 34.088C29.644 34.052 29.608 33.98 29.644 33.908C29.68 33.872 29.716 33.836 29.788 33.836C30.364 33.584 30.976 33.368 31.624 33.368C31.372 33.512 31.156 33.548 30.904 33.62C30.508 33.728 30.076 33.872 29.716 34.088C29.896 34.016 30.076 33.98 30.256 33.944C30.688 33.8 31.12 33.656 31.588 33.62C31.876 33.584 32.164 33.512 32.416 33.332C32.488 33.26 32.632 33.296 32.596 33.152C32.596 33.08 32.488 33.044 32.416 33.044C32.308 33.008 32.164 32.972 32.056 32.972C31.912 32.936 31.876 32.864 31.948 32.72C31.984 32.612 31.912 32.576 31.804 32.54C31.444 32.504 31.048 32.504 30.688 32.576C30.58 32.612 30.472 32.684 30.364 32.684C30.148 32.72 29.968 32.648 29.86 32.54C29.716 32.396 29.824 32.252 29.896 32.108L30.04 31.856C30.112 31.784 30.184 31.676 30.184 31.568C30.184 31.46 30.184 31.388 30.22 31.316C30.4 30.884 30.616 30.488 30.832 30.02H30.796C30.868 29.66 31.048 29.372 31.156 29.048C31.228 28.76 31.372 28.508 31.624 28.328C31.516 28.22 31.516 28.112 31.624 28.004C31.732 27.5 31.804 26.996 32.02 26.528C32.38 25.664 32.668 24.8 32.956 23.9C33.1 23.504 33.352 23.216 33.784 23.18C33.892 23.144 33.964 23.144 34.036 23.108C34.72 23 35.404 22.892 36.088 22.82C37.06 22.676 38.032 22.532 39.004 22.532C39.148 22.496 39.256 22.496 39.364 22.496C39.904 22.388 40.444 22.46 40.984 22.568C41.344 22.676 41.668 22.748 41.92 23C42.1 23.18 42.316 23.072 42.352 22.82C42.388 22.712 42.388 22.604 42.352 22.46ZM41.056 21.596C40.372 21.38 39.688 21.524 39.004 21.488C39.472 21.524 39.976 21.488 40.48 21.56C40.444 21.668 40.336 21.632 40.264 21.668H39.688C38.572 21.668 37.492 21.812 36.412 21.92C35.332 22.064 34.252 22.244 33.208 22.424C32.992 22.46 32.992 22.46 32.884 22.28C32.848 22.172 32.848 22.136 32.92 22.136L33.208 22.028C34.396 21.812 35.584 21.632 36.736 21.524C37.24 21.452 37.708 21.38 38.176 21.344C39.004 21.272 39.832 21.308 40.66 21.344C40.804 21.344 40.948 21.38 41.092 21.452C41.092 21.488 41.128 21.524 41.128 21.524C41.128 21.56 41.092 21.596 41.056 21.596ZM37.744 21.632C37.78 21.632 37.78 21.632 37.816 21.632V21.596C37.78 21.596 37.744 21.596 37.744 21.596V21.632ZM36.808 21.704H36.844C36.88 21.704 36.844 21.668 36.808 21.704ZM35.404 21.92V21.884L35.368 21.92H35.404ZM40.912 22.352H39.688C38.176 22.352 36.7 22.604 35.188 22.82C34.684 22.892 34.144 23 33.64 23.072L33.388 23.108C33.316 23.108 33.208 23.144 33.208 23.036C33.208 22.928 33.316 22.928 33.388 22.892C33.46 22.856 33.532 22.856 33.604 22.82L35.044 22.604C35.872 22.496 36.736 22.352 37.6 22.244C38.536 22.136 39.472 22.064 40.408 22.136C40.588 22.136 40.768 22.136 40.948 22.208C40.948 22.208 40.984 22.244 40.984 22.28C40.984 22.316 40.948 22.352 40.912 22.352ZM31.84 22.64C31.732 22.712 31.588 22.712 31.48 22.748L29.968 23.072C29.464 23.18 28.924 23.324 28.42 23.468C28.24 23.504 28.06 23.576 27.844 23.54C27.628 23.684 27.412 23.756 27.16 23.72C27.052 23.864 26.908 23.864 26.764 23.9C26.656 23.936 26.62 23.9 26.584 23.828C26.584 23.72 26.584 23.648 26.656 23.612C26.836 23.576 26.98 23.504 27.124 23.468C28.564 23.036 30.04 22.64 31.516 22.352C31.588 22.352 31.66 22.316 31.768 22.316C31.804 22.316 31.912 22.316 31.912 22.388C31.948 22.46 31.912 22.604 31.84 22.64ZM31.408 22.604H31.444L31.408 22.568V22.604ZM30.904 22.712L30.94 22.676H30.904V22.712ZM31.624 28.004V28.328C31.696 28.22 31.696 28.112 31.624 28.004ZM30.832 29.984V30.02H30.868C30.832 30.02 30.832 30.02 30.832 29.984ZM30.148 33.008L30.976 32.792C31.012 32.792 31.12 32.792 31.12 32.9C31.12 32.972 31.048 33.008 30.976 33.008C30.76 33.08 30.544 33.116 30.328 33.188L30.04 33.296C30.004 33.152 30.004 33.044 30.148 33.008ZM16.396 43.412L16.612 43.232C16.648 43.196 16.684 43.16 16.72 43.124L18.232 41.54C18.628 41.144 19.024 40.748 19.456 40.388C19.672 40.208 19.888 39.992 20.104 39.776C20.248 39.632 20.392 39.488 20.572 39.452C21.148 38.732 21.832 38.192 22.552 37.724C22.624 37.652 22.696 37.544 22.804 37.472C23.524 36.896 24.28 36.32 25.072 35.78C25.144 35.708 25.252 35.672 25.324 35.636C25.432 35.564 25.54 35.492 25.612 35.42C25.792 35.24 26.008 35.132 26.224 35.024C26.332 34.952 26.476 34.844 26.584 34.772H26.656C26.692 34.808 26.692 34.844 26.692 34.88C26.656 34.952 26.584 34.988 26.548 35.06C26.476 35.168 26.368 35.24 26.26 35.276C26.08 35.456 25.9 35.6 25.648 35.672C25.576 35.78 25.468 35.816 25.36 35.852C25.324 35.888 25.288 35.924 25.252 35.96L25.036 36.068H25.072C24.676 36.392 24.316 36.716 23.848 36.968C23.524 37.328 23.092 37.616 22.66 37.832L22.552 37.94C22.552 37.976 22.516 38.012 22.48 38.048C22.048 38.372 21.652 38.732 21.256 39.092C21.076 39.272 20.86 39.488 20.572 39.452C20.464 39.668 20.284 39.884 20.104 40.064C19.78 40.424 19.42 40.748 19.06 41.036C18.772 41.252 18.556 41.54 18.304 41.756L17.224 42.872C17.08 43.016 16.972 43.124 16.792 43.232L16.684 43.304C16.648 43.376 16.576 43.448 16.504 43.52C16.468 43.628 16.396 43.736 16.324 43.808C15.892 44.276 15.496 44.78 15.028 45.212C15.28 44.456 15.82 43.916 16.396 43.412ZM26.26 35.276C26.26 35.24 26.26 35.24 26.224 35.204C26.224 35.24 26.224 35.24 26.26 35.276ZM25.252 35.852H25.36C25.36 35.852 25.36 35.816 25.36 35.78L25.252 35.852ZM28.204 35.996C28.204 36.032 28.168 36.032 28.168 36.068C28.168 36.032 28.132 35.996 28.168 35.996C28.168 35.924 28.204 35.888 28.24 35.852C28.24 35.924 28.204 35.96 28.204 35.996ZM13.948 53.78C13.624 53.924 13.3 54.068 12.94 54.104C12.616 54.14 12.364 53.996 12.148 53.708C12.04 53.528 11.932 53.312 11.86 53.096C11.752 52.412 11.788 51.764 12.004 51.116C12.076 50.9 12.184 50.684 12.328 50.468C12.4 50.36 12.472 50.216 12.544 50.072H12.436C12.508 49.964 12.508 50.072 12.544 50.072C12.652 49.928 12.76 49.748 12.832 49.568C12.76 49.568 12.688 49.568 12.688 49.496C12.724 49.28 12.76 49.064 12.868 48.884C12.94 48.812 13.012 48.776 13.12 48.776C13.156 48.74 13.192 48.704 13.228 48.704C13.264 48.56 13.336 48.416 13.408 48.308C13.48 48.236 13.552 48.236 13.624 48.308V48.272C13.768 48.164 13.84 48.056 13.912 47.876C13.84 47.84 13.876 47.768 13.912 47.696C13.912 47.48 14.056 47.372 14.236 47.3C14.2 47.084 14.308 46.976 14.524 46.904C14.488 46.616 14.668 46.472 14.92 46.4C14.812 46.58 14.668 46.76 14.524 46.904V47.084C14.812 46.796 15.136 46.508 15.316 46.112C15.244 45.932 15.28 45.752 15.424 45.608C15.928 45.068 16.36 44.456 16.9 43.952C17.008 43.844 17.116 43.772 17.188 43.664C17.692 43.052 18.268 42.512 18.844 41.936C18.988 41.792 19.168 41.612 19.384 41.54C19.42 41.396 19.528 41.252 19.636 41.18C21.22 39.74 22.84 38.264 24.568 37.004L25.72 36.14C25.828 36.068 25.936 36.032 26.008 35.96C26.044 35.96 26.08 35.96 26.116 35.996V36.068C26.044 36.176 25.936 36.284 25.828 36.356C25.72 36.392 25.648 36.464 25.54 36.572C25.684 36.536 25.756 36.464 25.864 36.356C26.044 36.5 26.044 36.716 25.936 36.896C25.756 37.22 25.648 37.544 25.468 37.868C25.324 38.264 25.108 38.66 24.892 39.02C24.64 39.452 24.424 39.884 24.208 40.352C24.1 40.568 23.956 40.784 23.812 40.964C23.632 41.288 23.452 41.612 23.344 41.972C23.308 42.08 23.272 42.188 23.2 42.332C22.732 43.088 22.3 43.844 21.832 44.636L21.508 45.104C21.184 45.464 20.968 45.86 20.752 46.292C20.644 46.508 20.536 46.688 20.392 46.868C20.284 46.94 20.212 47.012 20.176 47.12C19.96 47.552 19.672 47.876 19.42 48.236C19.348 48.308 19.276 48.344 19.276 48.452C19.132 48.848 18.844 49.172 18.556 49.46C18.232 49.82 17.944 50.252 17.62 50.648C17.116 51.224 16.612 51.764 16 52.268C15.82 52.412 15.64 52.592 15.46 52.772C14.992 53.168 14.524 53.528 13.948 53.78ZM25.144 36.86C25.324 36.788 25.432 36.68 25.54 36.572C25.396 36.608 25.252 36.716 25.144 36.86ZM26.044 38.156C26.08 38.012 26.116 37.868 26.26 37.76C26.332 37.292 26.512 36.896 26.836 36.572C26.728 37.004 26.584 37.4 26.26 37.76C26.224 37.904 26.152 38.012 26.044 38.156ZM27.916 36.608V36.824C27.844 36.752 27.844 36.68 27.916 36.608ZM25.144 36.86C25 36.932 24.856 37.04 24.748 37.148C24.892 37.076 25.036 37.004 25.144 36.86ZM24.748 37.148C24.568 37.256 24.388 37.4 24.244 37.544C24.46 37.472 24.64 37.328 24.748 37.148ZM26.728 38.948C26.8 38.732 26.908 38.516 27.052 38.372C27.016 38.624 26.944 38.804 26.728 38.948ZM25.468 39.308C25.504 39.02 25.612 38.768 25.864 38.552C25.792 38.84 25.72 39.092 25.468 39.308ZM26.44 39.524V39.452C26.44 39.308 26.548 39.2 26.62 39.164C26.584 39.308 26.548 39.38 26.512 39.488C26.512 39.524 26.476 39.524 26.44 39.524ZM25.432 39.38C25.432 39.524 25.36 39.632 25.252 39.74C25.252 39.596 25.324 39.488 25.432 39.38ZM24.856 40.532C24.748 40.928 24.532 41.252 24.352 41.576C24.316 41.648 24.244 41.684 24.172 41.648V41.432C24.316 41.072 24.604 40.82 24.856 40.532ZM25.036 42.44C24.64 43.088 24.28 43.772 23.92 44.42L23.164 45.716C22.876 46.184 22.552 46.652 22.264 47.156C21.22 48.74 20.14 50.288 18.88 51.728C18.124 52.556 17.368 53.348 16.432 53.996C16.36 54.032 16.288 54.068 16.216 54.104H16.18C16.18 54.068 16.18 54.032 16.18 53.996L16.216 53.96C17.836 52.664 19.168 51.08 20.392 49.424C21.328 48.092 22.264 46.76 23.092 45.356C23.56 44.564 24.028 43.736 24.496 42.908C24.676 42.584 24.856 42.26 25.036 41.972C25.144 41.792 25.216 41.648 25.288 41.468C25.432 41.18 25.576 40.892 25.864 40.748C25.648 41.324 25.36 41.9 25.036 42.44ZM16 53.168C15.928 53.168 15.892 53.168 15.82 53.168L15.712 53.276C15.676 53.348 15.64 53.456 15.496 53.456C15.424 53.456 15.532 53.348 15.712 53.24C15.748 53.24 15.784 53.204 15.82 53.168C16 52.88 16.288 52.628 16.504 52.412C17.152 51.8 17.728 51.116 18.268 50.432C19.6 48.812 20.824 47.12 21.868 45.32C22.084 44.996 22.336 44.636 22.552 44.276L22.768 44.024C22.84 43.772 22.948 43.556 23.092 43.34C23.308 43.016 23.524 42.656 23.776 42.332V42.224C23.848 42.152 23.956 42.08 24.064 42.044C23.884 42.692 23.56 43.196 23.164 43.7L23.056 43.916C23.02 43.952 22.984 43.952 22.948 43.916C22.912 43.952 22.84 43.988 22.768 44.024C22.768 44.06 22.804 44.132 22.804 44.204C22.912 44.348 22.876 44.492 22.768 44.636C22.696 44.78 22.588 44.924 22.48 44.996C22.3 45.5 22.048 45.932 21.688 46.328C21.616 46.472 21.544 46.652 21.436 46.796C20.464 48.38 19.384 49.856 18.16 51.26L17.62 51.8C17.368 52.124 17.116 52.484 16.72 52.664L16.612 52.772C16.576 52.808 16.54 52.844 16.504 52.844C16.468 52.88 16.432 52.916 16.396 52.952L16.288 53.06C16.288 53.096 16.252 53.132 16.216 53.168C16.144 53.204 16.072 53.312 16 53.168ZM14.704 45.5C14.524 45.896 14.272 46.256 13.912 46.508C14.092 46.076 14.38 45.752 14.704 45.5ZM13.732 46.688C13.624 46.976 13.444 47.192 13.228 47.408C13.336 47.12 13.444 46.868 13.732 46.688ZM12.94 47.804C12.76 48.236 12.508 48.596 12.148 48.956C12.328 48.488 12.58 48.128 12.94 47.804ZM12.076 49.064C12.076 49.028 12.076 49.028 12.112 48.992V49.064C12.076 49.1 12.076 49.136 12.04 49.1C12.04 49.064 12.04 49.064 12.076 49.064ZM11.464 50.36C11.5 50.18 11.5 50.18 11.644 50C11.608 50.144 11.572 50.252 11.464 50.36ZM15.064 53.816C15.028 53.816 15.028 53.816 15.028 53.78C15.028 53.708 15.064 53.672 15.136 53.672C15.172 53.672 15.172 53.708 15.172 53.744C15.172 53.816 15.136 53.816 15.064 53.816ZM47.6648 35.276C47.6288 35.24 47.5928 35.24 47.5568 35.24C47.6288 35.132 47.6648 35.06 47.7008 34.916C47.7008 34.844 47.5928 34.736 47.4848 34.772C47.2688 34.844 47.0528 34.952 46.8728 35.06C46.5128 35.24 46.1888 35.42 45.7928 35.492C45.6488 35.528 45.5408 35.6 45.3968 35.672C44.8208 36.032 44.1728 36.284 43.5968 36.68L43.3448 36.788C42.6968 37.148 42.0128 37.508 41.3648 37.904C40.9688 38.156 40.5008 38.3 40.0328 38.444C39.9608 38.444 39.9248 38.444 39.8528 38.408C39.8168 38.336 39.8168 38.264 39.8528 38.228C40.1048 37.76 40.2488 37.22 40.7168 36.896C40.7888 36.86 40.8248 36.788 40.8608 36.716C40.8608 36.536 40.6808 36.428 40.7168 36.284C40.7168 36.14 40.8608 36.032 40.7888 35.888C40.7888 35.816 40.7528 35.744 40.7168 35.708C40.5008 35.528 40.4648 35.312 40.4288 35.024C40.3928 34.736 40.1408 34.628 39.8528 34.7C39.7808 34.736 39.7448 34.772 39.7088 34.772C39.6008 34.808 39.5288 34.772 39.4928 34.7C39.4208 34.592 39.3848 34.448 39.3128 34.34C39.2408 34.16 39.1688 33.944 39.0968 33.8C38.8448 33.368 38.5208 33.044 38.0168 32.972C37.8368 32.936 36.5768 33.044 36.3968 33.08C36.3608 33.116 36.3248 33.116 36.3248 33.116C35.6768 33.296 35.1008 33.62 34.5608 33.944C34.3448 34.052 34.0928 34.196 33.9128 34.376C33.6968 34.592 33.4448 34.736 33.1928 34.916C32.4008 35.384 31.7168 35.996 31.1408 36.68C30.9968 36.824 30.8528 36.968 30.7448 37.112C30.2768 37.652 30.0608 38.264 30.1328 38.948C30.1688 39.128 30.1688 39.308 30.2048 39.488C30.2408 39.848 30.3488 40.136 30.6008 40.388C30.6728 40.496 30.7808 40.568 30.8528 40.676C31.0688 40.928 31.3568 41.036 31.6448 41C31.8968 40.964 32.1128 40.928 32.3288 40.856C33.4448 40.568 34.4528 40.028 35.4608 39.488C36.0728 39.2 36.6488 38.876 37.2248 38.552C37.3328 38.48 37.4408 38.444 37.5848 38.372C37.6928 38.336 37.7648 38.372 37.8368 38.48C37.9448 38.696 37.9448 38.912 37.9448 39.128C37.9808 39.668 38.2328 40.1 38.6648 40.424C38.8448 40.604 39.0248 40.676 39.2768 40.712C39.5648 40.712 39.8528 40.676 40.1048 40.604C41.0408 40.316 41.8688 39.92 42.6968 39.452C44.0288 38.696 45.3608 37.976 46.6568 37.184C46.7648 37.112 46.8728 37.076 46.9808 37.04C47.1248 36.824 47.3768 36.716 47.5928 36.572C47.7008 36.464 47.8088 36.392 47.9528 36.32C48.0248 36.248 48.0968 36.14 48.0968 36.032C48.0608 35.96 48.0968 35.888 48.0968 35.816C48.1688 35.384 48.1328 35.312 47.6648 35.276ZM35.3528 34.268V34.16C35.6768 33.8 36.1088 33.656 36.5408 33.548C36.9728 33.44 37.3688 33.332 37.7648 33.332C37.8368 33.332 37.9088 33.368 37.9808 33.368C38.0528 33.404 38.0528 33.476 38.0528 33.548C38.0528 33.584 38.0528 33.62 38.0168 33.656C37.8728 33.692 37.7648 33.728 37.6568 33.728C37.0088 33.836 36.3248 34.016 35.6768 34.196C35.5688 34.232 35.4608 34.232 35.3528 34.268C35.1728 34.484 34.9208 34.592 34.6328 34.664C34.8128 34.448 35.0648 34.34 35.3528 34.268ZM38.1248 34.376C38.1248 34.448 38.0888 34.484 38.0168 34.484C37.9448 34.484 37.8728 34.52 37.8008 34.52C37.2608 34.592 36.7568 34.736 36.2528 34.916C36.1448 34.988 36.0368 35.024 35.8928 34.988C35.8568 34.988 35.8568 34.988 35.8568 34.952V34.916L35.9648 34.808C36.3968 34.556 37.3328 34.304 37.8728 34.304H37.9808C38.0528 34.304 38.0888 34.34 38.1248 34.376ZM38.4128 35.132C38.2328 35.42 38.0168 35.708 37.7288 35.924C37.3688 36.176 37.0088 36.392 36.6488 36.608C35.8928 36.968 35.1728 37.364 34.4528 37.76C34.3448 37.796 34.2368 37.868 34.1648 37.94C33.8768 38.12 33.5888 38.264 33.2648 38.372C32.9768 38.444 32.7248 38.516 32.4728 38.66C32.4368 38.696 32.3648 38.732 32.2928 38.732C32.2568 38.732 32.1848 38.732 32.1848 38.696C32.1488 38.66 32.1128 38.588 32.1488 38.552C32.1488 38.48 32.1848 38.408 32.2568 38.336C32.6528 37.904 33.0848 37.472 33.5168 37.076C33.9488 36.68 34.4168 36.356 34.8848 35.996C35.0288 35.888 35.1728 35.78 35.3528 35.744C35.3528 35.708 35.3888 35.708 35.4248 35.672C36.1088 35.096 36.9368 34.808 37.8008 34.7C37.9448 34.664 38.0888 34.7 38.2328 34.736C38.4488 34.808 38.5208 34.952 38.4128 35.132ZM47.1968 35.528H47.1608C47.1608 35.528 47.1608 35.492 47.1968 35.492C47.2328 35.456 47.2328 35.456 47.2688 35.456L47.1968 35.528ZM42.9848 37.832C42.9128 37.94 42.8048 38.012 42.6968 38.048C42.7688 37.94 42.8768 37.904 42.9848 37.832ZM37.1888 38.336C37.1888 38.372 37.1528 38.372 37.1168 38.408C36.6848 38.588 36.3248 38.876 35.9288 39.092L34.3808 39.848C33.8408 40.136 33.2648 40.388 32.6888 40.568C32.4008 40.676 32.1488 40.748 31.8248 40.748H31.6448C31.6448 40.712 31.6088 40.712 31.6088 40.676C31.6088 40.64 31.6088 40.604 31.6448 40.604L31.8608 40.496C32.5808 40.388 33.2288 40.1 33.8768 39.812C34.5248 39.488 35.2088 39.2 35.8208 38.804C36.1808 38.588 36.5768 38.408 36.9728 38.228C37.0088 38.192 37.0808 38.192 37.1168 38.192C37.1528 38.192 37.2248 38.192 37.2248 38.264C37.2248 38.264 37.2248 38.3 37.1888 38.336ZM31.7168 38.588C31.7528 38.552 31.7888 38.552 31.8248 38.552C31.7888 38.552 31.7888 38.588 31.7888 38.588C31.7888 38.588 31.7528 38.624 31.7168 38.624V38.588ZM43.4888 38.804C43.3088 38.912 43.1648 38.876 42.9848 38.84C42.9848 38.948 42.9848 39.056 42.8768 39.128L42.4448 39.416C41.7968 39.776 41.1128 40.028 40.3928 40.316C40.1408 40.424 39.8528 40.496 39.5288 40.46L39.3848 40.424C39.3488 40.424 39.3488 40.388 39.3488 40.352C39.3488 40.316 39.3488 40.28 39.3848 40.28C39.4928 40.244 39.5648 40.208 39.6728 40.208C40.2128 40.136 40.7168 39.956 41.2208 39.704C41.6168 39.488 42.0128 39.272 42.4448 39.164C42.6608 39.092 42.8048 38.948 42.9848 38.84C43.1288 38.732 43.2728 38.66 43.4528 38.624C43.4888 38.624 43.5968 38.588 43.5968 38.696C43.6328 38.768 43.5248 38.804 43.4888 38.804ZM33.8408 38.948C33.8768 38.912 33.9128 38.876 33.9848 38.84H34.0568C34.0208 38.876 34.0208 38.912 33.9848 38.912C33.9488 38.912 33.9128 38.912 33.8408 38.948ZM31.4648 39.704C31.4288 39.596 31.5008 39.524 31.6088 39.524C32.0408 39.416 32.4368 39.272 32.8688 39.236C33.1208 39.02 33.4088 38.984 33.7328 39.056L33.5528 39.164C33.3368 39.38 33.0848 39.38 32.8688 39.236C32.8688 39.452 32.7608 39.632 32.5448 39.704C32.2568 39.812 31.9688 39.92 31.6808 39.92C31.5368 39.956 31.4648 39.848 31.4648 39.704ZM39.5288 39.236C39.6728 39.128 39.8528 39.128 40.0328 39.092L40.1048 39.164C40.1048 39.164 40.1048 39.2 40.0688 39.2C39.9248 39.272 39.7448 39.344 39.5648 39.344L39.4928 39.308C39.4928 39.272 39.4928 39.236 39.5288 39.236ZM39.7808 39.452V39.488V39.524C39.7088 39.56 39.6368 39.596 39.5648 39.56C39.5288 39.56 39.5288 39.524 39.5288 39.488C39.5648 39.416 39.7088 39.416 39.7808 39.452ZM65.2362 37.472L65.1282 37.4C65.0202 37.328 64.9842 37.22 65.0202 37.112C65.0922 37.04 65.0922 36.932 65.0202 36.86C64.9482 36.752 64.8402 36.716 64.6962 36.752C64.5162 36.788 64.3002 36.788 64.1202 36.86C63.4002 37.04 62.7162 37.22 62.0322 37.436C61.4922 37.58 60.9162 37.76 60.4122 37.976C59.8362 38.264 59.2602 38.444 58.6842 38.696C58.1442 38.948 57.5322 39.02 56.9922 39.344H56.9202C56.8122 39.38 56.7042 39.272 56.7402 39.164C56.8482 38.984 56.9202 38.768 57.0282 38.588C56.8482 38.552 56.8122 38.48 56.8842 38.372C57.0282 38.264 57.1722 38.12 57.2442 37.976C57.6042 37.4 58.0722 36.896 58.5042 36.356C58.8642 35.924 58.8642 35.456 58.6482 34.988C58.5762 34.808 58.4682 34.664 58.3962 34.484C58.1442 33.944 57.7122 33.764 57.1362 33.908L56.3082 34.124C56.0922 34.196 55.8762 34.232 55.6602 34.34C55.2282 34.592 54.7242 34.7 54.2922 34.916C53.6802 35.204 53.0682 35.42 52.4922 35.708C51.8442 36.068 51.1602 36.32 50.5122 36.68C49.9362 37.004 49.3242 37.22 48.7482 37.58C48.7122 37.616 48.6762 37.652 48.6042 37.652C48.2442 37.724 47.9202 37.868 47.5962 38.048C47.3442 38.156 47.0922 38.12 46.8402 37.976C46.7682 37.94 46.7682 37.868 46.8042 37.796C47.0562 37.472 47.2722 37.076 47.5962 36.788C47.5962 36.572 47.7402 36.428 47.8482 36.248L48.3162 35.492C48.4602 35.24 48.4602 34.988 48.3162 34.736L48.1362 34.448C48.0282 34.304 47.9202 34.268 47.7762 34.376C47.5962 34.52 47.4522 34.664 47.3082 34.844C46.5522 35.672 45.9042 36.536 45.2922 37.472C45.0042 37.976 44.8602 38.48 45.0042 39.056C45.0042 39.092 45.0402 39.164 45.0402 39.236C45.0402 39.74 45.2922 40.064 45.6882 40.352C45.9042 40.496 46.1562 40.568 46.4442 40.532L46.8042 40.424C47.7762 40.172 48.6402 39.74 49.5402 39.308C50.9802 38.624 52.4202 37.868 53.8602 37.22C54.5442 36.932 55.1922 36.644 55.8762 36.392C55.9842 36.356 56.0562 36.32 56.2002 36.356C56.1282 36.608 56.0562 36.824 55.8762 37.004C55.6602 37.256 55.4442 37.508 55.2282 37.76L54.3642 38.912C54.1122 39.272 54.0402 39.632 54.1122 40.064C54.1482 40.316 54.1842 40.604 54.2562 40.892C54.3642 41.324 54.7242 41.576 55.0482 41.792C55.3722 41.972 55.6602 41.9 55.9842 41.828C56.8482 41.576 57.6762 41.288 58.5042 40.928L60.9522 39.956C61.8882 39.56 62.8602 39.308 63.8322 39.02C64.2282 38.912 64.6242 38.768 65.0202 38.624C65.0562 38.624 65.1282 38.552 65.1642 38.516V38.48C65.1642 38.444 65.1642 38.444 65.1282 38.444C65.0202 38.408 64.9122 38.48 64.8042 38.516C64.1922 38.732 63.5802 38.912 62.9682 39.092C61.9962 39.344 61.0602 39.668 60.1242 40.064L57.3882 41.18C56.9922 41.324 56.6322 41.432 56.2362 41.54C56.0562 41.612 55.8402 41.612 55.6602 41.648C55.6242 41.648 55.5522 41.612 55.5522 41.54C55.5522 41.504 55.5882 41.468 55.6242 41.468C55.7322 41.396 55.8402 41.396 55.9482 41.36C56.3442 41.252 56.7402 41.144 57.1002 41C57.7122 40.784 58.3242 40.532 58.9002 40.28C60.1962 39.812 61.4562 39.236 62.7882 38.876L64.6962 38.336C64.8402 38.3 65.0202 38.228 65.1642 38.156C65.4882 38.012 65.5242 37.724 65.2362 37.472ZM53.6082 35.744C54.4362 35.384 55.2642 35.06 56.0922 34.736C56.4882 34.556 56.8842 34.412 57.3162 34.376C57.4242 34.34 57.5682 34.304 57.6402 34.448C57.5322 34.52 57.5322 34.7 57.4242 34.772C57.3882 34.772 57.3882 34.808 57.3522 34.808C56.8122 34.916 56.3082 35.096 55.7682 35.276C55.6962 35.312 55.6242 35.276 55.5522 35.312C55.2282 35.528 54.8322 35.6 54.4362 35.708V35.6C54.2202 35.636 54.0402 35.744 53.8962 35.888C53.7162 36.068 53.5002 36.176 53.2482 36.212L52.9602 36.104C53.1402 35.924 53.3922 35.816 53.6082 35.744ZM55.7322 35.096C55.9122 35.096 56.0922 35.024 56.2362 34.916C56.0562 34.916 55.8762 34.988 55.7322 35.096ZM55.5162 35.168C55.4082 35.24 55.4802 35.276 55.5162 35.312L55.7322 35.096C55.6602 35.132 55.5522 35.132 55.5162 35.168ZM55.5162 35.312H55.5522H55.5162ZM55.2642 36.428C53.3202 37.22 51.3762 38.084 49.5042 39.092C48.8562 39.452 48.1722 39.704 47.4522 39.992C47.1642 40.1 46.8762 40.208 46.5522 40.208C46.5162 40.172 46.4802 40.172 46.4802 40.172C46.4442 40.1 46.4802 40.064 46.5162 40.028C46.5882 39.992 46.6602 39.992 46.7682 39.956C47.7402 39.704 48.6402 39.272 49.5042 38.84C50.8722 38.192 52.2042 37.508 53.5722 36.86C54.5442 36.428 55.5522 36.068 56.5242 35.672H56.7402H56.7762V35.78C56.6682 35.888 56.5242 35.924 56.3802 35.996L55.2642 36.428ZM52.5642 36.284C52.3842 36.464 52.2042 36.536 51.9882 36.572C52.1322 36.392 52.3122 36.32 52.5642 36.284ZM51.9522 36.608C52.0242 36.68 52.0242 36.788 51.9162 36.86C51.7002 37.004 51.4482 37.148 51.1602 37.076L50.6562 37.184C51.0522 36.896 51.4842 36.68 51.9522 36.608ZM46.6602 38.948L46.9482 38.84C47.7762 38.588 48.5322 38.192 49.2882 37.796C49.6482 37.58 50.0442 37.436 50.4762 37.292C50.2602 37.832 49.7922 38.048 49.2882 38.192C49.1442 38.264 49.0362 38.336 48.8922 38.372C48.9282 38.3 48.9642 38.264 48.9642 38.192C48.6402 38.336 48.2802 38.444 47.9922 38.696C47.9922 38.696 47.9922 38.732 48.0282 38.732C48.0282 38.768 47.9922 38.768 47.9922 38.768C47.9922 38.732 47.9922 38.732 47.9922 38.696V38.66C47.8122 38.696 47.6322 38.768 47.4882 38.876H47.7762C47.4522 39.164 47.0562 39.272 46.6602 39.344C46.5882 39.38 46.5162 39.308 46.5162 39.236C46.5162 39.128 46.5522 39.02 46.6602 38.948ZM64.4802 37.472C64.4802 37.508 64.4442 37.544 64.4082 37.58H64.3722C64.4442 37.616 64.5162 37.652 64.4442 37.724C64.3002 37.832 64.1562 37.868 63.9762 37.904L62.3562 38.336C61.9962 38.444 61.6362 38.552 61.2762 38.696C61.1322 38.732 60.9882 38.768 60.8082 38.768C60.6642 38.912 60.4842 38.948 60.3042 38.984C60.0882 39.164 59.8002 39.236 59.5122 39.272C59.4762 39.308 59.4402 39.344 59.4042 39.344C59.3682 39.38 59.3322 39.344 59.3322 39.344L59.3682 39.308C59.4402 39.272 59.4762 39.272 59.5122 39.272C59.5842 39.2 59.6562 39.128 59.7282 39.092C59.5122 39.092 59.2962 39.128 59.1162 39.164L58.5042 39.596C58.6122 39.56 58.7202 39.56 58.8282 39.56C58.6842 39.704 58.5042 39.776 58.3242 39.776C58.1802 39.884 58.0362 39.956 57.8562 39.956C58.0002 39.848 58.1442 39.776 58.3242 39.776C58.3962 39.704 58.4322 39.668 58.5042 39.596L58.5402 39.56C58.2882 39.596 58.0722 39.668 57.8562 39.776C57.2802 39.992 56.7042 40.244 56.1282 40.46L56.8122 40.352C56.9562 40.244 57.1362 40.208 57.3162 40.172C57.1722 40.28 57.0282 40.352 56.8482 40.388C56.5962 40.568 56.2722 40.64 55.9842 40.712C55.9482 40.712 55.8402 40.712 55.8402 40.676C55.8402 40.604 55.9122 40.568 55.9482 40.568C56.0202 40.532 56.0922 40.496 56.1282 40.46C56.0922 40.46 56.0202 40.46 56.0202 40.424C55.9482 40.352 56.0202 40.316 56.0922 40.28L56.4162 40.172C56.8842 39.992 57.3882 39.812 57.8562 39.596C58.2522 39.416 58.6842 39.236 59.1162 39.164C59.4042 38.948 59.7282 38.804 60.1242 38.768C60.2682 38.66 60.4482 38.552 60.6282 38.48C61.8162 38.048 63.0402 37.724 64.2642 37.4C64.3362 37.364 64.4082 37.364 64.4442 37.364C64.5162 37.4 64.5162 37.436 64.4802 37.472ZM63.2922 37.868C63.1482 37.904 63.0042 37.904 62.8962 37.976C63.0402 37.976 63.1482 37.94 63.2922 37.868ZM62.6082 38.084L62.8962 37.976C62.7882 38.012 62.6802 38.048 62.5722 38.084H62.6082ZM48.9642 38.192H49.2882C49.2882 38.156 49.2882 38.12 49.2882 38.084L48.9642 38.192ZM62.6082 38.084L62.2122 38.192C62.3202 38.156 62.4642 38.156 62.6082 38.084ZM61.8522 38.3H61.8882L62.2122 38.192C62.1042 38.228 61.9962 38.264 61.8882 38.264L61.8522 38.3ZM61.8522 38.3C61.7802 38.3 61.6722 38.336 61.6002 38.372C61.6722 38.372 61.7802 38.336 61.8522 38.3ZM60.1242 38.768C59.9802 38.876 59.8362 38.984 59.6922 39.092L60.3042 38.984C60.4482 38.84 60.6282 38.768 60.8082 38.768L60.9882 38.588C60.7002 38.624 60.4122 38.768 60.1242 38.768ZM76.973 37.508C76.901 37.436 76.901 37.364 76.973 37.256C77.117 37.112 77.081 36.932 76.937 36.788C76.829 36.644 76.757 36.536 76.757 36.356C76.757 36.104 76.613 35.996 76.361 36.068L76.037 36.176C75.677 36.32 75.317 36.464 74.957 36.572L73.265 37.22C72.293 37.616 71.321 38.048 70.313 38.3H70.205C69.629 38.516 69.053 38.66 68.441 38.768C67.829 38.84 67.181 38.912 66.569 38.948C66.101 38.948 65.669 38.912 65.237 38.768C65.129 38.732 65.021 38.696 64.949 38.624C64.841 38.516 64.841 38.336 64.985 38.264C65.057 38.228 65.165 38.192 65.237 38.192C65.813 38.012 66.353 37.868 66.857 37.652C66.929 37.616 67.037 37.616 67.145 37.58C67.145 37.58 67.181 37.58 67.181 37.616V37.688L67.037 37.796C66.569 38.048 66.101 38.228 65.597 38.336C65.525 38.336 65.453 38.336 65.381 38.372C65.345 38.372 65.273 38.408 65.273 38.444C65.273 38.516 65.345 38.516 65.381 38.516C65.489 38.516 65.633 38.516 65.741 38.48C66.497 38.228 67.217 37.94 67.937 37.544C68.081 37.472 68.225 37.364 68.333 37.184C68.477 36.86 68.693 36.644 68.909 36.392C69.197 36.104 69.305 35.744 69.269 35.348C69.233 34.664 68.981 34.088 68.657 33.548C68.441 33.188 68.081 33.008 67.649 33.008C67.037 33.044 66.461 33.152 65.957 33.584C65.453 34.016 64.913 34.484 64.481 35.024C63.941 35.708 63.617 36.464 63.617 37.364C63.617 37.76 63.617 38.192 63.653 38.588C63.761 39.236 64.013 39.776 64.445 40.208C65.021 40.748 65.669 40.964 66.425 41C67.325 41.036 68.189 40.892 69.053 40.748C70.457 40.46 71.789 39.956 73.121 39.452C74.237 39.02 75.317 38.516 76.361 37.976C76.505 37.904 76.649 37.796 76.829 37.796C76.901 37.796 76.973 37.76 77.045 37.724C77.009 37.652 77.009 37.58 76.973 37.508ZM66.929 33.872C67.037 33.836 67.073 33.8 66.965 33.692C66.965 33.656 67.001 33.584 67.037 33.584C67.253 33.476 67.505 33.476 67.721 33.476C67.757 33.512 67.793 33.512 67.793 33.548C67.829 33.62 67.757 33.62 67.721 33.656C67.685 33.656 67.613 33.692 67.721 33.728C67.757 33.728 67.829 33.728 67.829 33.8L67.721 33.872C67.649 33.872 67.613 33.872 67.541 33.908C67.289 33.944 67.037 33.98 66.821 34.052C66.569 34.124 66.353 34.232 66.137 34.34C66.317 34.016 66.605 33.944 66.929 33.872ZM67.901 34.628C67.901 34.628 67.901 34.664 67.865 34.7C67.829 34.736 67.793 34.736 67.757 34.736C67.361 34.772 67.001 34.916 66.713 35.132C66.749 34.88 66.929 34.736 67.145 34.664C67.361 34.556 67.613 34.484 67.865 34.556C67.865 34.556 67.901 34.592 67.901 34.628ZM66.281 35.672C66.461 35.6 66.569 35.456 66.749 35.348C66.965 35.204 67.217 35.024 67.541 34.988C67.613 34.952 67.685 34.952 67.757 35.024C67.793 35.096 67.793 35.204 67.757 35.276C67.541 35.564 67.325 35.816 67.037 35.996C66.785 36.14 66.533 36.248 66.245 36.32C66.101 36.356 66.029 36.284 66.029 36.068C65.993 35.888 66.101 35.78 66.281 35.672ZM67.289 36.572C67.217 36.68 67.109 36.68 67.001 36.716L66.929 36.788C66.929 36.788 66.893 36.824 66.893 36.788C66.857 36.788 66.857 36.752 66.929 36.752C66.929 36.752 66.965 36.716 67.001 36.716C67.073 36.644 67.145 36.536 67.253 36.536C67.253 36.5 67.289 36.536 67.289 36.536V36.572ZM65.345 37.328C65.345 37.256 65.417 37.22 65.489 37.22C65.669 37.148 65.849 37.076 66.029 37.04C66.065 37.004 66.101 37.04 66.101 37.076C66.101 37.076 66.101 37.112 66.065 37.148L65.993 37.22C65.993 37.22 66.029 37.256 66.029 37.292C66.029 37.292 65.993 37.292 65.993 37.328C65.849 37.436 65.669 37.508 65.489 37.58C65.417 37.58 65.309 37.652 65.273 37.544C65.237 37.472 65.273 37.4 65.345 37.328ZM65.993 37.256V37.22C65.993 37.22 65.957 37.22 65.993 37.256ZM67.829 37.328V37.292H67.865L67.829 37.328ZM76.829 37.796C76.901 37.796 76.973 37.832 77.045 37.832C76.973 37.796 76.901 37.796 76.829 37.796ZM73.445 39.056C72.509 39.452 71.537 39.812 70.565 40.136C69.773 40.424 68.945 40.604 68.117 40.712C67.541 40.748 67.001 40.748 66.425 40.676C66.389 40.676 66.353 40.64 66.353 40.64C66.353 40.568 66.389 40.532 66.425 40.532C66.605 40.532 66.785 40.496 66.929 40.496C68.189 40.496 69.413 40.28 70.601 39.92C71.429 39.632 72.257 39.38 73.085 39.02C73.337 38.912 73.661 38.84 73.949 38.732C74.021 38.696 74.093 38.696 74.165 38.768C73.949 38.912 73.697 38.984 73.445 39.056ZM68.441 39.344C69.197 39.236 69.881 39.02 70.601 38.84C70.673 38.984 70.601 38.984 70.529 38.984C70.385 39.056 70.241 39.128 70.097 39.2H70.133C70.169 39.236 70.205 39.236 70.205 39.236C70.241 39.272 70.241 39.308 70.205 39.308C70.169 39.344 70.133 39.38 70.097 39.38C69.161 39.704 68.189 39.848 67.217 39.884C67.181 39.884 67.109 39.884 67.073 39.812C67.361 39.74 67.613 39.704 67.901 39.668C67.325 39.632 66.749 39.812 66.173 39.56C66.965 39.488 67.721 39.452 68.441 39.344ZM69.089 39.488C69.485 39.416 69.809 39.38 70.097 39.2L69.593 39.308C69.449 39.344 69.305 39.344 69.089 39.488ZM68.585 39.56L68.549 39.524L68.513 39.56H68.549H68.585ZM103.513 23.54C103.477 23.324 103.405 23.144 103.369 22.964C103.297 22.424 102.973 22.136 102.505 21.992C101.425 21.632 100.309 21.38 99.1569 21.308C98.9769 21.308 98.8329 21.272 98.6529 21.272C98.4729 21.236 98.2569 21.2 98.0769 21.2C97.2129 21.128 96.3849 21.02 95.5569 21.02C94.9449 20.984 94.3689 20.912 93.7569 20.912C93.5769 20.948 93.3969 20.912 93.2169 20.876C92.8569 20.768 92.8209 20.624 92.9649 20.3C93.0009 20.264 93.0009 20.192 93.0369 20.156C93.0369 20.012 93.0369 20.012 93.1449 20.048C93.3249 19.976 93.4329 19.868 93.5769 19.76C93.6849 19.652 93.7929 19.58 93.7929 19.436C93.8289 19.112 94.0809 19.004 94.3329 18.86C94.3689 18.824 94.4049 18.788 94.4409 18.752L94.6209 18.572C94.9809 18.212 95.3769 17.852 95.8089 17.564C95.9889 17.312 96.2049 17.168 96.4929 17.132C96.6369 17.132 96.7449 17.06 96.8169 16.916C96.8529 16.736 96.9969 16.7 97.1409 16.664C97.4289 16.592 97.6809 16.376 97.8969 16.196C97.9689 16.124 98.0769 16.052 98.0769 15.908C98.1129 15.692 98.2929 15.584 98.4369 15.476C98.6889 15.26 98.9409 15.116 99.1929 14.972V15.008L99.3009 14.9C99.4089 14.792 99.4809 14.684 99.5889 14.612C100.057 14.18 100.057 14.036 99.7689 13.496C99.6249 13.28 99.5169 13.244 99.2649 13.28C99.0129 13.388 98.7969 13.496 98.5449 13.64L97.1049 14.612C96.6009 15.044 96.0609 15.404 95.5209 15.8C94.6929 16.412 93.9369 17.06 93.1809 17.708L92.3169 18.464C91.7409 18.968 91.1649 19.508 90.6609 20.084C90.2649 20.516 89.7609 20.732 89.1849 20.732C88.6089 20.768 88.0329 20.768 87.4569 20.732C87.2049 20.732 86.9169 20.732 86.6649 20.768C86.3769 20.84 86.0889 20.84 85.7649 20.804C85.5849 20.768 85.3689 20.768 85.1889 20.768C84.7929 20.768 84.4329 20.84 84.0369 20.84C83.2449 20.804 82.4529 20.984 81.6609 20.912C81.5529 20.912 81.4449 20.948 81.3369 20.984C80.8689 21.056 80.4009 21.128 79.9329 21.092C79.7889 21.092 79.6449 21.128 79.5009 21.128C78.8169 21.236 78.1689 21.344 77.4849 21.416C76.9449 21.488 76.4409 21.596 75.9009 21.704L73.0929 22.352C72.7329 22.424 72.3369 22.532 71.9769 22.676C71.5089 22.856 71.0409 23.036 70.5729 23.18C70.3929 23.216 70.2129 23.288 70.0689 23.36C69.9249 23.432 69.8169 23.54 69.9609 23.684C70.0329 23.792 70.0329 23.864 70.0329 23.972C70.0329 24.332 70.1409 24.44 70.5009 24.296H70.5729C71.4369 23.972 72.3729 23.72 73.2729 23.504C76.3689 22.748 79.5369 22.388 82.7049 22.208C84.2529 22.136 85.8009 22.1 87.3489 22.136H87.7449C87.8169 22.136 87.9249 22.136 87.9609 22.244C87.9969 22.316 87.9249 22.388 87.7449 22.388C87.6369 22.388 87.4929 22.388 87.3489 22.388H84.5769C83.4609 22.424 82.3449 22.496 81.2649 22.568C80.3289 22.64 79.3929 22.748 78.4929 22.82C77.3409 22.964 76.1889 23.144 75.0369 23.36C73.8489 23.612 72.6609 23.864 71.4729 24.224C71.2929 24.26 71.1129 24.332 70.9689 24.44C71.2209 24.404 71.4369 24.368 71.6529 24.296C72.4449 24.08 73.2009 23.864 74.0289 23.72C75.2169 23.468 76.4409 23.252 77.7009 23.072C79.1409 22.892 80.6169 22.748 82.0929 22.64C83.7489 22.568 85.4049 22.496 87.0609 22.532H87.3849C87.4929 22.568 87.5649 22.676 87.5289 22.784C87.5289 22.856 87.4929 22.928 87.4569 23C87.1329 23.36 86.8089 23.684 86.4489 24.044C86.1969 24.26 85.9449 24.512 85.7289 24.8C85.2969 25.304 84.8649 25.844 84.2889 26.24C84.2169 26.276 84.1089 26.384 84.0369 26.456C83.7489 26.816 83.4249 27.104 83.1009 27.428C82.9929 27.536 82.8489 27.644 82.7769 27.788C82.5609 28.148 82.2369 28.4 81.9489 28.688C81.4449 29.156 81.0129 29.66 80.5449 30.164C79.9689 30.812 79.5369 31.568 78.8529 32.108L78.7449 32.216C78.2049 32.936 77.6289 33.62 77.0889 34.34C76.9089 34.556 76.7289 34.808 76.5849 35.06C76.0809 35.78 75.6129 36.5 75.1449 37.22C74.9289 37.58 74.7129 38.012 74.5329 38.408C74.3889 38.696 74.3529 39.02 74.4609 39.344C74.5329 39.596 74.6049 39.848 74.7129 40.1C74.8569 40.496 75.1809 40.712 75.5409 40.892C75.8289 41.072 76.1169 41 76.4049 40.892C76.9449 40.748 77.5209 40.532 78.0609 40.28C78.7449 40.028 79.3929 39.776 80.0769 39.596C81.0489 39.38 81.9849 39.056 82.9209 38.732C83.3529 38.588 83.7849 38.444 84.1809 38.264L85.2969 37.832C85.7289 37.688 86.1609 37.508 86.5929 37.328C86.6649 37.292 86.7729 37.256 86.7729 37.148C86.5929 37.148 86.4489 37.22 86.3049 37.292C84.7929 37.868 83.2449 38.48 81.6609 38.912C80.1489 39.344 78.6729 39.848 77.1969 40.424C76.9449 40.532 76.6929 40.604 76.4049 40.712C76.3329 40.712 76.2609 40.712 76.1529 40.748C76.1169 40.748 76.0449 40.712 76.0449 40.676C76.0449 40.64 76.0809 40.568 76.1169 40.532L76.4409 40.424C76.8729 40.28 77.3049 40.1 77.7009 39.956C78.4569 39.668 79.2129 39.38 79.9689 39.164C81.3009 38.804 82.5969 38.372 83.8929 37.904C84.6849 37.652 85.4769 37.328 86.2689 37.04C86.4129 37.004 86.5929 36.932 86.7009 36.824C86.7729 36.752 86.7729 36.68 86.7369 36.572C86.7009 36.536 86.6649 36.464 86.5929 36.464C86.4849 36.5 86.3409 36.5 86.2329 36.536L85.1169 36.896C84.9009 36.968 84.7209 37.04 84.5049 37.076V37.04C84.3969 37.112 84.2889 37.148 84.1809 37.148L83.8929 37.256C83.8209 37.328 83.7129 37.364 83.6049 37.364C83.4969 37.4 83.3889 37.436 83.2809 37.472C83.1729 37.508 83.1009 37.544 82.9929 37.544C82.8129 37.652 82.6329 37.724 82.4169 37.76L82.5969 37.544C82.3089 37.616 81.9849 37.688 81.6969 37.868C81.7329 37.868 81.7689 37.868 81.7689 37.904C81.7689 37.904 81.7329 37.94 81.6969 37.94C81.6969 37.904 81.6969 37.904 81.6969 37.868V37.832C80.9769 37.976 80.2929 38.156 79.6089 38.444C79.6449 38.444 79.7169 38.444 79.6809 38.516C79.6809 38.516 79.6449 38.552 79.6089 38.552V38.444C79.2849 38.48 78.9969 38.588 78.7089 38.732H79.0329C79.1049 38.696 79.2129 38.66 79.3209 38.66C79.2489 38.696 79.1409 38.732 79.0329 38.732C78.9249 38.804 78.8169 38.84 78.7089 38.84H78.7449C78.2769 39.128 76.8009 39.668 76.3329 39.74L76.5489 39.524C76.4769 39.524 76.4409 39.524 76.4049 39.488C76.3689 39.416 76.4049 39.38 76.4409 39.344L76.7289 39.236C77.9889 38.732 79.2849 38.264 80.5809 37.94C82.3809 37.436 84.1449 36.86 85.8729 36.248C85.9809 36.212 86.0889 36.14 86.1969 36.104C86.2329 36.068 86.2329 35.996 86.2329 35.96C86.2329 35.924 86.1609 35.888 86.1249 35.888C86.0889 35.852 86.0529 35.852 86.0169 35.888C85.6569 35.96 85.2609 35.996 84.9009 36.104C84.1449 36.356 83.3889 36.536 82.6329 36.86C82.4169 36.932 82.1649 37.004 81.9129 37.04C80.8329 37.184 79.8609 37.616 78.8169 37.868L78.6729 37.904C78.2769 38.156 77.8089 38.228 77.3769 38.372C77.3049 38.408 77.2329 38.408 77.1609 38.408C77.0529 38.444 76.9449 38.336 76.9809 38.228C76.9809 38.084 77.0169 37.904 77.0169 37.76V37.616C77.0529 37.508 77.0889 37.472 77.2329 37.544C77.3769 37.364 77.4849 37.184 77.4489 36.968C77.4489 36.86 77.4849 36.788 77.5929 36.752C77.7369 36.68 77.8809 36.608 77.9169 36.464C77.8449 36.392 77.8089 36.284 77.9169 36.212C78.1329 36.032 78.2409 35.816 78.3489 35.564C78.6009 35.132 78.8169 34.7 79.3209 34.484C79.4289 34.448 79.4649 34.376 79.5009 34.268C79.4289 34.268 79.3929 34.196 79.4649 34.124C79.5009 34.088 79.5729 34.016 79.6089 33.98V34.16C80.0409 33.8 80.4009 33.368 80.7609 32.936C80.8689 32.756 81.0129 32.54 81.1569 32.396L82.8129 30.668C82.8849 30.56 82.9929 30.488 83.1009 30.38C83.1369 30.344 83.1729 30.308 83.2089 30.308C83.2809 30.164 83.3889 30.092 83.4969 29.984C83.5689 29.804 83.6769 29.66 83.8209 29.516C84.3969 28.832 85.0089 28.22 85.6209 27.608C85.7649 27.464 85.9449 27.356 86.0889 27.212L86.1969 27.104C86.4849 26.636 86.8809 26.24 87.3849 25.916H87.3489C87.4209 25.736 87.5289 25.628 87.7089 25.52L88.2489 25.124H88.2849C88.2129 24.944 88.3209 24.836 88.4289 24.764C88.5729 24.656 88.6809 24.512 88.7529 24.368C88.8249 24.26 88.7169 24.152 88.7889 24.044C88.8609 23.9 89.0409 24.044 89.1489 23.936L89.6889 23.396C89.7249 23.36 89.7609 23.288 89.7249 23.252C89.6529 23.072 89.7969 23 89.9049 22.964C90.1929 22.892 90.4809 22.856 90.7329 22.748C90.9489 22.64 91.1649 22.604 91.4169 22.604C92.9649 22.604 94.5489 22.748 96.1329 22.784C96.2409 22.784 96.3849 22.784 96.4929 22.82C97.6449 22.856 98.7609 23 99.8769 23.144C100.525 23.216 101.209 23.324 101.857 23.504C102.253 23.612 102.613 23.756 102.901 24.044C102.973 24.152 103.081 24.224 103.153 24.296C103.261 24.332 103.369 24.332 103.405 24.224C103.513 24.008 103.549 23.756 103.513 23.54ZM99.3729 13.64C99.4089 13.64 99.4449 13.64 99.4809 13.676C99.4809 13.676 99.4809 13.748 99.4449 13.748C99.2289 13.964 99.0129 14.108 98.7249 14.18C98.9049 13.964 99.1209 13.784 99.3729 13.64ZM98.4009 14.396C98.1849 14.648 97.9329 14.864 97.6089 14.972C97.8249 14.72 98.1129 14.54 98.4009 14.396ZM97.5009 15.08C97.4289 15.188 97.3209 15.26 97.2129 15.296C97.2849 15.188 97.3929 15.116 97.5009 15.08ZM97.0689 15.404C96.9969 15.512 96.9249 15.548 96.8169 15.584C96.8889 15.476 96.9609 15.44 97.0689 15.404ZM97.4649 16.34C97.4649 16.304 97.4649 16.304 97.4649 16.304H97.5009C97.4649 16.304 97.4649 16.304 97.4649 16.34ZM93.3969 18.284C93.1809 18.68 92.8929 18.86 92.5329 19.076C92.7849 18.716 93.0729 18.464 93.3969 18.284ZM88.8969 21.344C88.7529 21.416 88.6089 21.38 88.4649 21.38H85.3329C85.3329 21.38 85.3329 21.416 85.3689 21.416C86.2689 21.416 87.1689 21.416 88.0689 21.416H88.5369C88.5729 21.452 88.6089 21.452 88.6089 21.488C88.6089 21.56 88.5729 21.56 88.5369 21.56C88.3569 21.56 88.2129 21.596 88.0689 21.596C86.3769 21.56 84.6489 21.632 82.9569 21.704C81.8769 21.704 80.7609 21.812 79.6809 21.956C78.2769 22.1 76.9089 22.28 75.5049 22.532C74.2089 22.784 72.9129 23.072 71.6529 23.468L71.3649 23.576C71.2929 23.576 71.2209 23.648 71.1129 23.576C71.0769 23.54 71.1489 23.324 71.2569 23.288C71.4729 23.18 71.6889 23.072 71.9049 23C73.1289 22.64 74.3889 22.352 75.6849 22.1C76.9089 21.884 78.1689 21.704 79.4649 21.56C80.4729 21.416 81.4809 21.38 82.5249 21.308C84.1809 21.2 85.8729 21.2 87.5289 21.164C87.9249 21.164 88.3209 21.2 88.7169 21.2C88.7889 21.2 88.8609 21.236 88.8969 21.272C88.9329 21.272 88.9329 21.272 88.9329 21.308C88.9329 21.308 88.9329 21.344 88.8969 21.344ZM102.397 22.496L102.361 22.532C102.073 22.568 101.821 22.496 101.569 22.424C101.461 22.424 101.389 22.352 101.281 22.352C101.065 22.316 100.849 22.316 100.633 22.28C99.0489 22.1 97.4649 21.92 95.8449 21.848C94.6929 21.812 93.5769 21.74 92.4249 21.668C92.3529 21.668 92.2809 21.668 92.2449 21.632C92.2089 21.632 92.2089 21.596 92.1729 21.596C92.2089 21.56 92.2089 21.524 92.2449 21.524H92.7129C92.7849 21.524 92.8929 21.524 93.0009 21.488H92.6769C92.5329 21.452 92.3169 21.56 92.2089 21.38C92.3529 21.2 92.5329 21.272 92.7129 21.272C93.8289 21.308 94.9089 21.344 95.9889 21.416C96.8889 21.488 97.7889 21.596 98.7249 21.668C99.5529 21.74 100.381 21.92 101.209 22.028C101.569 22.064 101.893 22.172 102.217 22.28L102.397 22.388C102.397 22.424 102.433 22.46 102.397 22.496ZM81.3369 21.596C81.4089 21.632 81.4449 21.596 81.4809 21.596C81.4449 21.596 81.4089 21.596 81.3729 21.596H81.3369ZM101.857 23.252C100.273 22.964 98.6529 22.82 97.0329 22.676C96.1689 22.64 95.3409 22.604 94.4769 22.568L91.5609 22.46C91.3089 22.46 91.1289 22.388 91.2009 22.316C91.2729 22.172 91.4169 22.208 91.5609 22.208C92.1729 22.208 92.8209 22.208 93.5409 22.244C94.9809 22.316 96.4929 22.424 98.0049 22.532C99.2289 22.604 100.453 22.784 101.641 23.036C101.713 23.036 101.821 23.036 101.893 23.072C102.001 23.144 102.181 23.072 102.253 23.288C102.109 23.36 101.965 23.288 101.857 23.252ZM87.9609 23.432C88.0329 23.324 88.1409 23.216 88.2489 23.144C88.2129 23.288 88.1049 23.396 87.9609 23.432ZM89.3649 23.504C89.3289 23.504 89.2929 23.504 89.2569 23.54C89.2929 23.504 89.3289 23.468 89.3649 23.468V23.504ZM87.4569 23.936C87.4209 24.008 87.3489 24.08 87.2769 24.116C87.3129 24.044 87.3849 23.972 87.4569 23.936C87.5289 23.792 87.6369 23.72 87.7809 23.648C87.7089 23.792 87.6369 23.9 87.4569 23.936ZM70.9689 24.44C70.8249 24.44 70.6449 24.44 70.4289 24.584C70.6809 24.584 70.8249 24.512 70.9689 24.44ZM81.9129 29.768C81.8769 29.804 81.8049 29.876 81.8049 29.84C81.7329 29.804 81.8409 29.768 81.8769 29.732C81.9129 29.66 81.9489 29.66 81.9849 29.588C81.9849 29.66 81.9489 29.732 81.9129 29.768ZM79.5369 34.268C79.5369 34.232 79.5729 34.196 79.6089 34.16C79.5729 34.196 79.5369 34.232 79.5009 34.268H79.5369ZM84.1809 37.04L83.8929 37.148C84.0009 37.148 84.1089 37.148 84.1809 37.148V37.04ZM83.8929 37.148L83.6049 37.256C83.6769 37.256 83.7849 37.256 83.8929 37.256V37.148ZM83.6049 37.256L83.2809 37.364C83.3889 37.364 83.4969 37.364 83.6049 37.364V37.256ZM83.2809 37.364C83.2089 37.4 83.1009 37.436 82.9929 37.436C83.1009 37.436 83.1729 37.436 83.2809 37.436V37.364ZM82.9929 37.436L82.5969 37.544C82.7409 37.544 82.8849 37.544 82.9929 37.544V37.436ZM83.2809 37.436V37.472C83.2809 37.436 83.3169 37.436 83.3169 37.436H83.2809ZM78.4209 38.84H78.7089C78.7089 38.804 78.7089 38.768 78.7089 38.732L78.4209 38.84ZM77.6289 39.128C77.7009 39.128 77.7729 39.092 77.8449 39.056C77.7729 39.056 77.7009 39.092 77.6289 39.128ZM77.6289 39.128C77.5209 39.164 77.4129 39.2 77.3409 39.236L77.6289 39.128ZM77.0169 39.344C76.9809 39.38 76.9089 39.416 76.8369 39.452L77.0529 39.344H77.0169ZM76.5489 39.524C76.6209 39.524 76.7289 39.488 76.8369 39.452C76.7289 39.488 76.6209 39.488 76.5489 39.524Z" fill="black"/>
</svg>
