<svg width="104" height="64" viewBox="0 0 104 64" fill="none" xmlns="http://www.w3.org/2000/svg">
<circle cx="32" cy="32" r="32" fill="#F8C00C"/>
<path d="M42.352 20.46C42.28 20.208 42.208 19.956 42.1 19.74C41.92 19.38 41.632 19.164 41.272 19.056C41.056 19.02 40.84 18.984 40.624 18.984C39.976 18.948 39.292 18.948 38.644 18.984C37.528 19.056 36.448 19.2 35.332 19.308C34.684 19.38 34.072 19.56 33.424 19.632C33.136 19.668 32.848 19.74 32.56 19.776C32.416 19.812 32.272 19.848 32.164 19.848L30.22 20.28C29.896 20.352 29.608 20.352 29.284 20.46C28.996 20.604 28.708 20.676 28.384 20.748L27.916 20.856C27.268 21.144 26.584 21.288 25.972 21.576C25.864 21.648 25.756 21.612 25.684 21.72C25.612 21.828 25.684 21.9 25.72 21.972C25.756 22.044 25.72 22.116 25.684 22.188C25.648 22.368 25.72 22.476 25.936 22.512C26.008 22.512 26.08 22.476 26.188 22.476C26.728 22.332 27.304 22.224 27.88 22.08C28.996 21.756 30.148 21.504 31.3 21.288C31.408 21.252 31.48 21.252 31.588 21.252C31.624 21.252 31.66 21.288 31.66 21.288C31.66 21.324 31.66 21.36 31.624 21.396C31.48 21.504 31.264 21.54 31.084 21.576C29.428 21.864 27.844 22.332 26.224 22.692C26.404 22.692 26.548 22.692 26.728 22.656C27.16 22.584 27.592 22.476 28.024 22.368C29.068 22.116 30.112 21.9 31.192 21.648C31.516 21.576 31.624 21.684 31.552 22.008C31.516 22.152 31.444 22.296 31.408 22.44L31.084 23.268C30.832 23.952 30.616 24.636 30.328 25.284C30.004 25.968 29.752 26.724 29.356 27.408L29.248 27.696C28.816 28.812 28.276 29.928 27.808 31.044C27.556 31.656 27.16 32.16 26.548 32.484C26.368 32.556 26.224 32.628 26.08 32.772C25.54 33.24 24.892 33.564 24.28 33.996C23.596 34.5 22.948 35.076 22.264 35.616C21.688 36.048 21.184 36.588 20.608 37.02C19.96 37.488 19.348 38.028 18.772 38.604C18.556 38.856 18.304 39.108 18.052 39.288C17.872 39.396 17.728 39.54 17.62 39.684C17.368 40.008 17.08 40.296 16.756 40.584C16.54 40.8 16.324 41.016 16.144 41.232C15.892 41.592 15.604 41.916 15.28 42.168C15.172 42.276 15.064 42.348 14.992 42.456C14.812 42.744 14.596 42.96 14.38 43.212C14.02 43.644 13.552 44.04 13.3 44.616C13.264 44.688 13.192 44.76 13.12 44.832C12.868 45.048 12.688 45.336 12.472 45.588C12.184 46.02 11.968 46.452 11.716 46.848C11.284 47.496 10.996 48.144 10.78 48.828C10.636 49.332 10.6 49.836 10.6 50.376C10.6 50.772 10.708 51.168 10.96 51.528C11.104 51.816 11.32 52.068 11.572 52.32C12.436 53.22 13.516 53.4 14.668 53.148C15.604 52.968 16.396 52.428 17.08 51.816C17.44 51.492 17.8 51.132 18.16 50.772C18.88 50.052 19.528 49.26 20.14 48.432C20.716 47.676 21.256 46.92 21.796 46.128C22.48 45.192 23.092 44.22 23.668 43.212C24.352 42.024 25 40.8 25.648 39.612C26.368 38.28 27.016 36.912 27.664 35.544C27.772 35.328 27.844 35.076 27.952 34.86C28.06 34.752 28.132 34.608 28.204 34.464C28.348 34.14 28.528 33.852 28.636 33.528C28.744 32.952 29.14 32.592 29.536 32.232C29.608 32.196 29.68 32.124 29.716 32.088C29.644 32.052 29.608 31.98 29.644 31.908C29.68 31.872 29.716 31.836 29.788 31.836C30.364 31.584 30.976 31.368 31.624 31.368C31.372 31.512 31.156 31.548 30.904 31.62C30.508 31.728 30.076 31.872 29.716 32.088C29.896 32.016 30.076 31.98 30.256 31.944C30.688 31.8 31.12 31.656 31.588 31.62C31.876 31.584 32.164 31.512 32.416 31.332C32.488 31.26 32.632 31.296 32.596 31.152C32.596 31.08 32.488 31.044 32.416 31.044C32.308 31.008 32.164 30.972 32.056 30.972C31.912 30.936 31.876 30.864 31.948 30.72C31.984 30.612 31.912 30.576 31.804 30.54C31.444 30.504 31.048 30.504 30.688 30.576C30.58 30.612 30.472 30.684 30.364 30.684C30.148 30.72 29.968 30.648 29.86 30.54C29.716 30.396 29.824 30.252 29.896 30.108L30.04 29.856C30.112 29.784 30.184 29.676 30.184 29.568C30.184 29.46 30.184 29.388 30.22 29.316C30.4 28.884 30.616 28.488 30.832 28.02H30.796C30.868 27.66 31.048 27.372 31.156 27.048C31.228 26.76 31.372 26.508 31.624 26.328C31.516 26.22 31.516 26.112 31.624 26.004C31.732 25.5 31.804 24.996 32.02 24.528C32.38 23.664 32.668 22.8 32.956 21.9C33.1 21.504 33.352 21.216 33.784 21.18C33.892 21.144 33.964 21.144 34.036 21.108C34.72 21 35.404 20.892 36.088 20.82C37.06 20.676 38.032 20.532 39.004 20.532C39.148 20.496 39.256 20.496 39.364 20.496C39.904 20.388 40.444 20.46 40.984 20.568C41.344 20.676 41.668 20.748 41.92 21C42.1 21.18 42.316 21.072 42.352 20.82C42.388 20.712 42.388 20.604 42.352 20.46ZM41.056 19.596C40.372 19.38 39.688 19.524 39.004 19.488C39.472 19.524 39.976 19.488 40.48 19.56C40.444 19.668 40.336 19.632 40.264 19.668H39.688C38.572 19.668 37.492 19.812 36.412 19.92C35.332 20.064 34.252 20.244 33.208 20.424C32.992 20.46 32.992 20.46 32.884 20.28C32.848 20.172 32.848 20.136 32.92 20.136L33.208 20.028C34.396 19.812 35.584 19.632 36.736 19.524C37.24 19.452 37.708 19.38 38.176 19.344C39.004 19.272 39.832 19.308 40.66 19.344C40.804 19.344 40.948 19.38 41.092 19.452C41.092 19.488 41.128 19.524 41.128 19.524C41.128 19.56 41.092 19.596 41.056 19.596ZM37.744 19.632C37.78 19.632 37.78 19.632 37.816 19.632V19.596C37.78 19.596 37.744 19.596 37.744 19.596V19.632ZM36.808 19.704H36.844C36.88 19.704 36.844 19.668 36.808 19.704ZM35.404 19.92V19.884L35.368 19.92H35.404ZM40.912 20.352H39.688C38.176 20.352 36.7 20.604 35.188 20.82C34.684 20.892 34.144 21 33.64 21.072L33.388 21.108C33.316 21.108 33.208 21.144 33.208 21.036C33.208 20.928 33.316 20.928 33.388 20.892C33.46 20.856 33.532 20.856 33.604 20.82L35.044 20.604C35.872 20.496 36.736 20.352 37.6 20.244C38.536 20.136 39.472 20.064 40.408 20.136C40.588 20.136 40.768 20.136 40.948 20.208C40.948 20.208 40.984 20.244 40.984 20.28C40.984 20.316 40.948 20.352 40.912 20.352ZM31.84 20.64C31.732 20.712 31.588 20.712 31.48 20.748L29.968 21.072C29.464 21.18 28.924 21.324 28.42 21.468C28.24 21.504 28.06 21.576 27.844 21.54C27.628 21.684 27.412 21.756 27.16 21.72C27.052 21.864 26.908 21.864 26.764 21.9C26.656 21.936 26.62 21.9 26.584 21.828C26.584 21.72 26.584 21.648 26.656 21.612C26.836 21.576 26.98 21.504 27.124 21.468C28.564 21.036 30.04 20.64 31.516 20.352C31.588 20.352 31.66 20.316 31.768 20.316C31.804 20.316 31.912 20.316 31.912 20.388C31.948 20.46 31.912 20.604 31.84 20.64ZM31.408 20.604H31.444L31.408 20.568V20.604ZM30.904 20.712L30.94 20.676H30.904V20.712ZM31.624 26.004V26.328C31.696 26.22 31.696 26.112 31.624 26.004ZM30.832 27.984V28.02H30.868C30.832 28.02 30.832 28.02 30.832 27.984ZM30.148 31.008L30.976 30.792C31.012 30.792 31.12 30.792 31.12 30.9C31.12 30.972 31.048 31.008 30.976 31.008C30.76 31.08 30.544 31.116 30.328 31.188L30.04 31.296C30.004 31.152 30.004 31.044 30.148 31.008ZM16.396 41.412L16.612 41.232C16.648 41.196 16.684 41.16 16.72 41.124L18.232 39.54C18.628 39.144 19.024 38.748 19.456 38.388C19.672 38.208 19.888 37.992 20.104 37.776C20.248 37.632 20.392 37.488 20.572 37.452C21.148 36.732 21.832 36.192 22.552 35.724C22.624 35.652 22.696 35.544 22.804 35.472C23.524 34.896 24.28 34.32 25.072 33.78C25.144 33.708 25.252 33.672 25.324 33.636C25.432 33.564 25.54 33.492 25.612 33.42C25.792 33.24 26.008 33.132 26.224 33.024C26.332 32.952 26.476 32.844 26.584 32.772H26.656C26.692 32.808 26.692 32.844 26.692 32.88C26.656 32.952 26.584 32.988 26.548 33.06C26.476 33.168 26.368 33.24 26.26 33.276C26.08 33.456 25.9 33.6 25.648 33.672C25.576 33.78 25.468 33.816 25.36 33.852C25.324 33.888 25.288 33.924 25.252 33.96L25.036 34.068H25.072C24.676 34.392 24.316 34.716 23.848 34.968C23.524 35.328 23.092 35.616 22.66 35.832L22.552 35.94C22.552 35.976 22.516 36.012 22.48 36.048C22.048 36.372 21.652 36.732 21.256 37.092C21.076 37.272 20.86 37.488 20.572 37.452C20.464 37.668 20.284 37.884 20.104 38.064C19.78 38.424 19.42 38.748 19.06 39.036C18.772 39.252 18.556 39.54 18.304 39.756L17.224 40.872C17.08 41.016 16.972 41.124 16.792 41.232L16.684 41.304C16.648 41.376 16.576 41.448 16.504 41.52C16.468 41.628 16.396 41.736 16.324 41.808C15.892 42.276 15.496 42.78 15.028 43.212C15.28 42.456 15.82 41.916 16.396 41.412ZM26.26 33.276C26.26 33.24 26.26 33.24 26.224 33.204C26.224 33.24 26.224 33.24 26.26 33.276ZM25.252 33.852H25.36C25.36 33.852 25.36 33.816 25.36 33.78L25.252 33.852ZM28.204 33.996C28.204 34.032 28.168 34.032 28.168 34.068C28.168 34.032 28.132 33.996 28.168 33.996C28.168 33.924 28.204 33.888 28.24 33.852C28.24 33.924 28.204 33.96 28.204 33.996ZM13.948 51.78C13.624 51.924 13.3 52.068 12.94 52.104C12.616 52.14 12.364 51.996 12.148 51.708C12.04 51.528 11.932 51.312 11.86 51.096C11.752 50.412 11.788 49.764 12.004 49.116C12.076 48.9 12.184 48.684 12.328 48.468C12.4 48.36 12.472 48.216 12.544 48.072H12.436C12.508 47.964 12.508 48.072 12.544 48.072C12.652 47.928 12.76 47.748 12.832 47.568C12.76 47.568 12.688 47.568 12.688 47.496C12.724 47.28 12.76 47.064 12.868 46.884C12.94 46.812 13.012 46.776 13.12 46.776C13.156 46.74 13.192 46.704 13.228 46.704C13.264 46.56 13.336 46.416 13.408 46.308C13.48 46.236 13.552 46.236 13.624 46.308V46.272C13.768 46.164 13.84 46.056 13.912 45.876C13.84 45.84 13.876 45.768 13.912 45.696C13.912 45.48 14.056 45.372 14.236 45.3C14.2 45.084 14.308 44.976 14.524 44.904C14.488 44.616 14.668 44.472 14.92 44.4C14.812 44.58 14.668 44.76 14.524 44.904V45.084C14.812 44.796 15.136 44.508 15.316 44.112C15.244 43.932 15.28 43.752 15.424 43.608C15.928 43.068 16.36 42.456 16.9 41.952C17.008 41.844 17.116 41.772 17.188 41.664C17.692 41.052 18.268 40.512 18.844 39.936C18.988 39.792 19.168 39.612 19.384 39.54C19.42 39.396 19.528 39.252 19.636 39.18C21.22 37.74 22.84 36.264 24.568 35.004L25.72 34.14C25.828 34.068 25.936 34.032 26.008 33.96C26.044 33.96 26.08 33.96 26.116 33.996V34.068C26.044 34.176 25.936 34.284 25.828 34.356C25.72 34.392 25.648 34.464 25.54 34.572C25.684 34.536 25.756 34.464 25.864 34.356C26.044 34.5 26.044 34.716 25.936 34.896C25.756 35.22 25.648 35.544 25.468 35.868C25.324 36.264 25.108 36.66 24.892 37.02C24.64 37.452 24.424 37.884 24.208 38.352C24.1 38.568 23.956 38.784 23.812 38.964C23.632 39.288 23.452 39.612 23.344 39.972C23.308 40.08 23.272 40.188 23.2 40.332C22.732 41.088 22.3 41.844 21.832 42.636L21.508 43.104C21.184 43.464 20.968 43.86 20.752 44.292C20.644 44.508 20.536 44.688 20.392 44.868C20.284 44.94 20.212 45.012 20.176 45.12C19.96 45.552 19.672 45.876 19.42 46.236C19.348 46.308 19.276 46.344 19.276 46.452C19.132 46.848 18.844 47.172 18.556 47.46C18.232 47.82 17.944 48.252 17.62 48.648C17.116 49.224 16.612 49.764 16 50.268C15.82 50.412 15.64 50.592 15.46 50.772C14.992 51.168 14.524 51.528 13.948 51.78ZM25.144 34.86C25.324 34.788 25.432 34.68 25.54 34.572C25.396 34.608 25.252 34.716 25.144 34.86ZM26.044 36.156C26.08 36.012 26.116 35.868 26.26 35.76C26.332 35.292 26.512 34.896 26.836 34.572C26.728 35.004 26.584 35.4 26.26 35.76C26.224 35.904 26.152 36.012 26.044 36.156ZM27.916 34.608V34.824C27.844 34.752 27.844 34.68 27.916 34.608ZM25.144 34.86C25 34.932 24.856 35.04 24.748 35.148C24.892 35.076 25.036 35.004 25.144 34.86ZM24.748 35.148C24.568 35.256 24.388 35.4 24.244 35.544C24.46 35.472 24.64 35.328 24.748 35.148ZM26.728 36.948C26.8 36.732 26.908 36.516 27.052 36.372C27.016 36.624 26.944 36.804 26.728 36.948ZM25.468 37.308C25.504 37.02 25.612 36.768 25.864 36.552C25.792 36.84 25.72 37.092 25.468 37.308ZM26.44 37.524V37.452C26.44 37.308 26.548 37.2 26.62 37.164C26.584 37.308 26.548 37.38 26.512 37.488C26.512 37.524 26.476 37.524 26.44 37.524ZM25.432 37.38C25.432 37.524 25.36 37.632 25.252 37.74C25.252 37.596 25.324 37.488 25.432 37.38ZM24.856 38.532C24.748 38.928 24.532 39.252 24.352 39.576C24.316 39.648 24.244 39.684 24.172 39.648V39.432C24.316 39.072 24.604 38.82 24.856 38.532ZM25.036 40.44C24.64 41.088 24.28 41.772 23.92 42.42L23.164 43.716C22.876 44.184 22.552 44.652 22.264 45.156C21.22 46.74 20.14 48.288 18.88 49.728C18.124 50.556 17.368 51.348 16.432 51.996C16.36 52.032 16.288 52.068 16.216 52.104H16.18C16.18 52.068 16.18 52.032 16.18 51.996L16.216 51.96C17.836 50.664 19.168 49.08 20.392 47.424C21.328 46.092 22.264 44.76 23.092 43.356C23.56 42.564 24.028 41.736 24.496 40.908C24.676 40.584 24.856 40.26 25.036 39.972C25.144 39.792 25.216 39.648 25.288 39.468C25.432 39.18 25.576 38.892 25.864 38.748C25.648 39.324 25.36 39.9 25.036 40.44ZM16 51.168C15.928 51.168 15.892 51.168 15.82 51.168L15.712 51.276C15.676 51.348 15.64 51.456 15.496 51.456C15.424 51.456 15.532 51.348 15.712 51.24C15.748 51.24 15.784 51.204 15.82 51.168C16 50.88 16.288 50.628 16.504 50.412C17.152 49.8 17.728 49.116 18.268 48.432C19.6 46.812 20.824 45.12 21.868 43.32C22.084 42.996 22.336 42.636 22.552 42.276L22.768 42.024C22.84 41.772 22.948 41.556 23.092 41.34C23.308 41.016 23.524 40.656 23.776 40.332V40.224C23.848 40.152 23.956 40.08 24.064 40.044C23.884 40.692 23.56 41.196 23.164 41.7L23.056 41.916C23.02 41.952 22.984 41.952 22.948 41.916C22.912 41.952 22.84 41.988 22.768 42.024C22.768 42.06 22.804 42.132 22.804 42.204C22.912 42.348 22.876 42.492 22.768 42.636C22.696 42.78 22.588 42.924 22.48 42.996C22.3 43.5 22.048 43.932 21.688 44.328C21.616 44.472 21.544 44.652 21.436 44.796C20.464 46.38 19.384 47.856 18.16 49.26L17.62 49.8C17.368 50.124 17.116 50.484 16.72 50.664L16.612 50.772C16.576 50.808 16.54 50.844 16.504 50.844C16.468 50.88 16.432 50.916 16.396 50.952L16.288 51.06C16.288 51.096 16.252 51.132 16.216 51.168C16.144 51.204 16.072 51.312 16 51.168ZM14.704 43.5C14.524 43.896 14.272 44.256 13.912 44.508C14.092 44.076 14.38 43.752 14.704 43.5ZM13.732 44.688C13.624 44.976 13.444 45.192 13.228 45.408C13.336 45.12 13.444 44.868 13.732 44.688ZM12.94 45.804C12.76 46.236 12.508 46.596 12.148 46.956C12.328 46.488 12.58 46.128 12.94 45.804ZM12.076 47.064C12.076 47.028 12.076 47.028 12.112 46.992V47.064C12.076 47.1 12.076 47.136 12.04 47.1C12.04 47.064 12.04 47.064 12.076 47.064ZM11.464 48.36C11.5 48.18 11.5 48.18 11.644 48C11.608 48.144 11.572 48.252 11.464 48.36ZM15.064 51.816C15.028 51.816 15.028 51.816 15.028 51.78C15.028 51.708 15.064 51.672 15.136 51.672C15.172 51.672 15.172 51.708 15.172 51.744C15.172 51.816 15.136 51.816 15.064 51.816ZM47.6648 33.276C47.6288 33.24 47.5928 33.24 47.5568 33.24C47.6288 33.132 47.6648 33.06 47.7008 32.916C47.7008 32.844 47.5928 32.736 47.4848 32.772C47.2688 32.844 47.0528 32.952 46.8728 33.06C46.5128 33.24 46.1888 33.42 45.7928 33.492C45.6488 33.528 45.5408 33.6 45.3968 33.672C44.8208 34.032 44.1728 34.284 43.5968 34.68L43.3448 34.788C42.6968 35.148 42.0128 35.508 41.3648 35.904C40.9688 36.156 40.5008 36.3 40.0328 36.444C39.9608 36.444 39.9248 36.444 39.8528 36.408C39.8168 36.336 39.8168 36.264 39.8528 36.228C40.1048 35.76 40.2488 35.22 40.7168 34.896C40.7888 34.86 40.8248 34.788 40.8608 34.716C40.8608 34.536 40.6808 34.428 40.7168 34.284C40.7168 34.14 40.8608 34.032 40.7888 33.888C40.7888 33.816 40.7528 33.744 40.7168 33.708C40.5008 33.528 40.4648 33.312 40.4288 33.024C40.3928 32.736 40.1408 32.628 39.8528 32.7C39.7808 32.736 39.7448 32.772 39.7088 32.772C39.6008 32.808 39.5288 32.772 39.4928 32.7C39.4208 32.592 39.3848 32.448 39.3128 32.34C39.2408 32.16 39.1688 31.944 39.0968 31.8C38.8448 31.368 38.5208 31.044 38.0168 30.972C37.8368 30.936 36.5768 31.044 36.3968 31.08C36.3608 31.116 36.3248 31.116 36.3248 31.116C35.6768 31.296 35.1008 31.62 34.5608 31.944C34.3448 32.052 34.0928 32.196 33.9128 32.376C33.6968 32.592 33.4448 32.736 33.1928 32.916C32.4008 33.384 31.7168 33.996 31.1408 34.68C30.9968 34.824 30.8528 34.968 30.7448 35.112C30.2768 35.652 30.0608 36.264 30.1328 36.948C30.1688 37.128 30.1688 37.308 30.2048 37.488C30.2408 37.848 30.3488 38.136 30.6008 38.388C30.6728 38.496 30.7808 38.568 30.8528 38.676C31.0688 38.928 31.3568 39.036 31.6448 39C31.8968 38.964 32.1128 38.928 32.3288 38.856C33.4448 38.568 34.4528 38.028 35.4608 37.488C36.0728 37.2 36.6488 36.876 37.2248 36.552C37.3328 36.48 37.4408 36.444 37.5848 36.372C37.6928 36.336 37.7648 36.372 37.8368 36.48C37.9448 36.696 37.9448 36.912 37.9448 37.128C37.9808 37.668 38.2328 38.1 38.6648 38.424C38.8448 38.604 39.0248 38.676 39.2768 38.712C39.5648 38.712 39.8528 38.676 40.1048 38.604C41.0408 38.316 41.8688 37.92 42.6968 37.452C44.0288 36.696 45.3608 35.976 46.6568 35.184C46.7648 35.112 46.8728 35.076 46.9808 35.04C47.1248 34.824 47.3768 34.716 47.5928 34.572C47.7008 34.464 47.8088 34.392 47.9528 34.32C48.0248 34.248 48.0968 34.14 48.0968 34.032C48.0608 33.96 48.0968 33.888 48.0968 33.816C48.1688 33.384 48.1328 33.312 47.6648 33.276ZM35.3528 32.268V32.16C35.6768 31.8 36.1088 31.656 36.5408 31.548C36.9728 31.44 37.3688 31.332 37.7648 31.332C37.8368 31.332 37.9088 31.368 37.9808 31.368C38.0528 31.404 38.0528 31.476 38.0528 31.548C38.0528 31.584 38.0528 31.62 38.0168 31.656C37.8728 31.692 37.7648 31.728 37.6568 31.728C37.0088 31.836 36.3248 32.016 35.6768 32.196C35.5688 32.232 35.4608 32.232 35.3528 32.268C35.1728 32.484 34.9208 32.592 34.6328 32.664C34.8128 32.448 35.0648 32.34 35.3528 32.268ZM38.1248 32.376C38.1248 32.448 38.0888 32.484 38.0168 32.484C37.9448 32.484 37.8728 32.52 37.8008 32.52C37.2608 32.592 36.7568 32.736 36.2528 32.916C36.1448 32.988 36.0368 33.024 35.8928 32.988C35.8568 32.988 35.8568 32.988 35.8568 32.952V32.916L35.9648 32.808C36.3968 32.556 37.3328 32.304 37.8728 32.304H37.9808C38.0528 32.304 38.0888 32.34 38.1248 32.376ZM38.4128 33.132C38.2328 33.42 38.0168 33.708 37.7288 33.924C37.3688 34.176 37.0088 34.392 36.6488 34.608C35.8928 34.968 35.1728 35.364 34.4528 35.76C34.3448 35.796 34.2368 35.868 34.1648 35.94C33.8768 36.12 33.5888 36.264 33.2648 36.372C32.9768 36.444 32.7248 36.516 32.4728 36.66C32.4368 36.696 32.3648 36.732 32.2928 36.732C32.2568 36.732 32.1848 36.732 32.1848 36.696C32.1488 36.66 32.1128 36.588 32.1488 36.552C32.1488 36.48 32.1848 36.408 32.2568 36.336C32.6528 35.904 33.0848 35.472 33.5168 35.076C33.9488 34.68 34.4168 34.356 34.8848 33.996C35.0288 33.888 35.1728 33.78 35.3528 33.744C35.3528 33.708 35.3888 33.708 35.4248 33.672C36.1088 33.096 36.9368 32.808 37.8008 32.7C37.9448 32.664 38.0888 32.7 38.2328 32.736C38.4488 32.808 38.5208 32.952 38.4128 33.132ZM47.1968 33.528H47.1608C47.1608 33.528 47.1608 33.492 47.1968 33.492C47.2328 33.456 47.2328 33.456 47.2688 33.456L47.1968 33.528ZM42.9848 35.832C42.9128 35.94 42.8048 36.012 42.6968 36.048C42.7688 35.94 42.8768 35.904 42.9848 35.832ZM37.1888 36.336C37.1888 36.372 37.1528 36.372 37.1168 36.408C36.6848 36.588 36.3248 36.876 35.9288 37.092L34.3808 37.848C33.8408 38.136 33.2648 38.388 32.6888 38.568C32.4008 38.676 32.1488 38.748 31.8248 38.748H31.6448C31.6448 38.712 31.6088 38.712 31.6088 38.676C31.6088 38.64 31.6088 38.604 31.6448 38.604L31.8608 38.496C32.5808 38.388 33.2288 38.1 33.8768 37.812C34.5248 37.488 35.2088 37.2 35.8208 36.804C36.1808 36.588 36.5768 36.408 36.9728 36.228C37.0088 36.192 37.0808 36.192 37.1168 36.192C37.1528 36.192 37.2248 36.192 37.2248 36.264C37.2248 36.264 37.2248 36.3 37.1888 36.336ZM31.7168 36.588C31.7528 36.552 31.7888 36.552 31.8248 36.552C31.7888 36.552 31.7888 36.588 31.7888 36.588C31.7888 36.588 31.7528 36.624 31.7168 36.624V36.588ZM43.4888 36.804C43.3088 36.912 43.1648 36.876 42.9848 36.84C42.9848 36.948 42.9848 37.056 42.8768 37.128L42.4448 37.416C41.7968 37.776 41.1128 38.028 40.3928 38.316C40.1408 38.424 39.8528 38.496 39.5288 38.46L39.3848 38.424C39.3488 38.424 39.3488 38.388 39.3488 38.352C39.3488 38.316 39.3488 38.28 39.3848 38.28C39.4928 38.244 39.5648 38.208 39.6728 38.208C40.2128 38.136 40.7168 37.956 41.2208 37.704C41.6168 37.488 42.0128 37.272 42.4448 37.164C42.6608 37.092 42.8048 36.948 42.9848 36.84C43.1288 36.732 43.2728 36.66 43.4528 36.624C43.4888 36.624 43.5968 36.588 43.5968 36.696C43.6328 36.768 43.5248 36.804 43.4888 36.804ZM33.8408 36.948C33.8768 36.912 33.9128 36.876 33.9848 36.84H34.0568C34.0208 36.876 34.0208 36.912 33.9848 36.912C33.9488 36.912 33.9128 36.912 33.8408 36.948ZM31.4648 37.704C31.4288 37.596 31.5008 37.524 31.6088 37.524C32.0408 37.416 32.4368 37.272 32.8688 37.236C33.1208 37.02 33.4088 36.984 33.7328 37.056L33.5528 37.164C33.3368 37.38 33.0848 37.38 32.8688 37.236C32.8688 37.452 32.7608 37.632 32.5448 37.704C32.2568 37.812 31.9688 37.92 31.6808 37.92C31.5368 37.956 31.4648 37.848 31.4648 37.704ZM39.5288 37.236C39.6728 37.128 39.8528 37.128 40.0328 37.092L40.1048 37.164C40.1048 37.164 40.1048 37.2 40.0688 37.2C39.9248 37.272 39.7448 37.344 39.5648 37.344L39.4928 37.308C39.4928 37.272 39.4928 37.236 39.5288 37.236ZM39.7808 37.452V37.488V37.524C39.7088 37.56 39.6368 37.596 39.5648 37.56C39.5288 37.56 39.5288 37.524 39.5288 37.488C39.5648 37.416 39.7088 37.416 39.7808 37.452ZM65.2362 35.472L65.1282 35.4C65.0202 35.328 64.9842 35.22 65.0202 35.112C65.0922 35.04 65.0922 34.932 65.0202 34.86C64.9482 34.752 64.8402 34.716 64.6962 34.752C64.5162 34.788 64.3002 34.788 64.1202 34.86C63.4002 35.04 62.7162 35.22 62.0322 35.436C61.4922 35.58 60.9162 35.76 60.4122 35.976C59.8362 36.264 59.2602 36.444 58.6842 36.696C58.1442 36.948 57.5322 37.02 56.9922 37.344H56.9202C56.8122 37.38 56.7042 37.272 56.7402 37.164C56.8482 36.984 56.9202 36.768 57.0282 36.588C56.8482 36.552 56.8122 36.48 56.8842 36.372C57.0282 36.264 57.1722 36.12 57.2442 35.976C57.6042 35.4 58.0722 34.896 58.5042 34.356C58.8642 33.924 58.8642 33.456 58.6482 32.988C58.5762 32.808 58.4682 32.664 58.3962 32.484C58.1442 31.944 57.7122 31.764 57.1362 31.908L56.3082 32.124C56.0922 32.196 55.8762 32.232 55.6602 32.34C55.2282 32.592 54.7242 32.7 54.2922 32.916C53.6802 33.204 53.0682 33.42 52.4922 33.708C51.8442 34.068 51.1602 34.32 50.5122 34.68C49.9362 35.004 49.3242 35.22 48.7482 35.58C48.7122 35.616 48.6762 35.652 48.6042 35.652C48.2442 35.724 47.9202 35.868 47.5962 36.048C47.3442 36.156 47.0922 36.12 46.8402 35.976C46.7682 35.94 46.7682 35.868 46.8042 35.796C47.0562 35.472 47.2722 35.076 47.5962 34.788C47.5962 34.572 47.7402 34.428 47.8482 34.248L48.3162 33.492C48.4602 33.24 48.4602 32.988 48.3162 32.736L48.1362 32.448C48.0282 32.304 47.9202 32.268 47.7762 32.376C47.5962 32.52 47.4522 32.664 47.3082 32.844C46.5522 33.672 45.9042 34.536 45.2922 35.472C45.0042 35.976 44.8602 36.48 45.0042 37.056C45.0042 37.092 45.0402 37.164 45.0402 37.236C45.0402 37.74 45.2922 38.064 45.6882 38.352C45.9042 38.496 46.1562 38.568 46.4442 38.532L46.8042 38.424C47.7762 38.172 48.6402 37.74 49.5402 37.308C50.9802 36.624 52.4202 35.868 53.8602 35.22C54.5442 34.932 55.1922 34.644 55.8762 34.392C55.9842 34.356 56.0562 34.32 56.2002 34.356C56.1282 34.608 56.0562 34.824 55.8762 35.004C55.6602 35.256 55.4442 35.508 55.2282 35.76L54.3642 36.912C54.1122 37.272 54.0402 37.632 54.1122 38.064C54.1482 38.316 54.1842 38.604 54.2562 38.892C54.3642 39.324 54.7242 39.576 55.0482 39.792C55.3722 39.972 55.6602 39.9 55.9842 39.828C56.8482 39.576 57.6762 39.288 58.5042 38.928L60.9522 37.956C61.8882 37.56 62.8602 37.308 63.8322 37.02C64.2282 36.912 64.6242 36.768 65.0202 36.624C65.0562 36.624 65.1282 36.552 65.1642 36.516V36.48C65.1642 36.444 65.1642 36.444 65.1282 36.444C65.0202 36.408 64.9122 36.48 64.8042 36.516C64.1922 36.732 63.5802 36.912 62.9682 37.092C61.9962 37.344 61.0602 37.668 60.1242 38.064L57.3882 39.18C56.9922 39.324 56.6322 39.432 56.2362 39.54C56.0562 39.612 55.8402 39.612 55.6602 39.648C55.6242 39.648 55.5522 39.612 55.5522 39.54C55.5522 39.504 55.5882 39.468 55.6242 39.468C55.7322 39.396 55.8402 39.396 55.9482 39.36C56.3442 39.252 56.7402 39.144 57.1002 39C57.7122 38.784 58.3242 38.532 58.9002 38.28C60.1962 37.812 61.4562 37.236 62.7882 36.876L64.6962 36.336C64.8402 36.3 65.0202 36.228 65.1642 36.156C65.4882 36.012 65.5242 35.724 65.2362 35.472ZM53.6082 33.744C54.4362 33.384 55.2642 33.06 56.0922 32.736C56.4882 32.556 56.8842 32.412 57.3162 32.376C57.4242 32.34 57.5682 32.304 57.6402 32.448C57.5322 32.52 57.5322 32.7 57.4242 32.772C57.3882 32.772 57.3882 32.808 57.3522 32.808C56.8122 32.916 56.3082 33.096 55.7682 33.276C55.6962 33.312 55.6242 33.276 55.5522 33.312C55.2282 33.528 54.8322 33.6 54.4362 33.708V33.6C54.2202 33.636 54.0402 33.744 53.8962 33.888C53.7162 34.068 53.5002 34.176 53.2482 34.212L52.9602 34.104C53.1402 33.924 53.3922 33.816 53.6082 33.744ZM55.7322 33.096C55.9122 33.096 56.0922 33.024 56.2362 32.916C56.0562 32.916 55.8762 32.988 55.7322 33.096ZM55.5162 33.168C55.4082 33.24 55.4802 33.276 55.5162 33.312L55.7322 33.096C55.6602 33.132 55.5522 33.132 55.5162 33.168ZM55.5162 33.312H55.5522H55.5162ZM55.2642 34.428C53.3202 35.22 51.3762 36.084 49.5042 37.092C48.8562 37.452 48.1722 37.704 47.4522 37.992C47.1642 38.1 46.8762 38.208 46.5522 38.208C46.5162 38.172 46.4802 38.172 46.4802 38.172C46.4442 38.1 46.4802 38.064 46.5162 38.028C46.5882 37.992 46.6602 37.992 46.7682 37.956C47.7402 37.704 48.6402 37.272 49.5042 36.84C50.8722 36.192 52.2042 35.508 53.5722 34.86C54.5442 34.428 55.5522 34.068 56.5242 33.672H56.7402H56.7762V33.78C56.6682 33.888 56.5242 33.924 56.3802 33.996L55.2642 34.428ZM52.5642 34.284C52.3842 34.464 52.2042 34.536 51.9882 34.572C52.1322 34.392 52.3122 34.32 52.5642 34.284ZM51.9522 34.608C52.0242 34.68 52.0242 34.788 51.9162 34.86C51.7002 35.004 51.4482 35.148 51.1602 35.076L50.6562 35.184C51.0522 34.896 51.4842 34.68 51.9522 34.608ZM46.6602 36.948L46.9482 36.84C47.7762 36.588 48.5322 36.192 49.2882 35.796C49.6482 35.58 50.0442 35.436 50.4762 35.292C50.2602 35.832 49.7922 36.048 49.2882 36.192C49.1442 36.264 49.0362 36.336 48.8922 36.372C48.9282 36.3 48.9642 36.264 48.9642 36.192C48.6402 36.336 48.2802 36.444 47.9922 36.696C47.9922 36.696 47.9922 36.732 48.0282 36.732C48.0282 36.768 47.9922 36.768 47.9922 36.768C47.9922 36.732 47.9922 36.732 47.9922 36.696V36.66C47.8122 36.696 47.6322 36.768 47.4882 36.876H47.7762C47.4522 37.164 47.0562 37.272 46.6602 37.344C46.5882 37.38 46.5162 37.308 46.5162 37.236C46.5162 37.128 46.5522 37.02 46.6602 36.948ZM64.4802 35.472C64.4802 35.508 64.4442 35.544 64.4082 35.58H64.3722C64.4442 35.616 64.5162 35.652 64.4442 35.724C64.3002 35.832 64.1562 35.868 63.9762 35.904L62.3562 36.336C61.9962 36.444 61.6362 36.552 61.2762 36.696C61.1322 36.732 60.9882 36.768 60.8082 36.768C60.6642 36.912 60.4842 36.948 60.3042 36.984C60.0882 37.164 59.8002 37.236 59.5122 37.272C59.4762 37.308 59.4402 37.344 59.4042 37.344C59.3682 37.38 59.3322 37.344 59.3322 37.344L59.3682 37.308C59.4402 37.272 59.4762 37.272 59.5122 37.272C59.5842 37.2 59.6562 37.128 59.7282 37.092C59.5122 37.092 59.2962 37.128 59.1162 37.164L58.5042 37.596C58.6122 37.56 58.7202 37.56 58.8282 37.56C58.6842 37.704 58.5042 37.776 58.3242 37.776C58.1802 37.884 58.0362 37.956 57.8562 37.956C58.0002 37.848 58.1442 37.776 58.3242 37.776C58.3962 37.704 58.4322 37.668 58.5042 37.596L58.5402 37.56C58.2882 37.596 58.0722 37.668 57.8562 37.776C57.2802 37.992 56.7042 38.244 56.1282 38.46L56.8122 38.352C56.9562 38.244 57.1362 38.208 57.3162 38.172C57.1722 38.28 57.0282 38.352 56.8482 38.388C56.5962 38.568 56.2722 38.64 55.9842 38.712C55.9482 38.712 55.8402 38.712 55.8402 38.676C55.8402 38.604 55.9122 38.568 55.9482 38.568C56.0202 38.532 56.0922 38.496 56.1282 38.46C56.0922 38.46 56.0202 38.46 56.0202 38.424C55.9482 38.352 56.0202 38.316 56.0922 38.28L56.4162 38.172C56.8842 37.992 57.3882 37.812 57.8562 37.596C58.2522 37.416 58.6842 37.236 59.1162 37.164C59.4042 36.948 59.7282 36.804 60.1242 36.768C60.2682 36.66 60.4482 36.552 60.6282 36.48C61.8162 36.048 63.0402 35.724 64.2642 35.4C64.3362 35.364 64.4082 35.364 64.4442 35.364C64.5162 35.4 64.5162 35.436 64.4802 35.472ZM63.2922 35.868C63.1482 35.904 63.0042 35.904 62.8962 35.976C63.0402 35.976 63.1482 35.94 63.2922 35.868ZM62.6082 36.084L62.8962 35.976C62.7882 36.012 62.6802 36.048 62.5722 36.084H62.6082ZM48.9642 36.192H49.2882C49.2882 36.156 49.2882 36.12 49.2882 36.084L48.9642 36.192ZM62.6082 36.084L62.2122 36.192C62.3202 36.156 62.4642 36.156 62.6082 36.084ZM61.8522 36.3H61.8882L62.2122 36.192C62.1042 36.228 61.9962 36.264 61.8882 36.264L61.8522 36.3ZM61.8522 36.3C61.7802 36.3 61.6722 36.336 61.6002 36.372C61.6722 36.372 61.7802 36.336 61.8522 36.3ZM60.1242 36.768C59.9802 36.876 59.8362 36.984 59.6922 37.092L60.3042 36.984C60.4482 36.84 60.6282 36.768 60.8082 36.768L60.9882 36.588C60.7002 36.624 60.4122 36.768 60.1242 36.768ZM76.973 35.508C76.901 35.436 76.901 35.364 76.973 35.256C77.117 35.112 77.081 34.932 76.937 34.788C76.829 34.644 76.757 34.536 76.757 34.356C76.757 34.104 76.613 33.996 76.361 34.068L76.037 34.176C75.677 34.32 75.317 34.464 74.957 34.572L73.265 35.22C72.293 35.616 71.321 36.048 70.313 36.3H70.205C69.629 36.516 69.053 36.66 68.441 36.768C67.829 36.84 67.181 36.912 66.569 36.948C66.101 36.948 65.669 36.912 65.237 36.768C65.129 36.732 65.021 36.696 64.949 36.624C64.841 36.516 64.841 36.336 64.985 36.264C65.057 36.228 65.165 36.192 65.237 36.192C65.813 36.012 66.353 35.868 66.857 35.652C66.929 35.616 67.037 35.616 67.145 35.58C67.145 35.58 67.181 35.58 67.181 35.616V35.688L67.037 35.796C66.569 36.048 66.101 36.228 65.597 36.336C65.525 36.336 65.453 36.336 65.381 36.372C65.345 36.372 65.273 36.408 65.273 36.444C65.273 36.516 65.345 36.516 65.381 36.516C65.489 36.516 65.633 36.516 65.741 36.48C66.497 36.228 67.217 35.94 67.937 35.544C68.081 35.472 68.225 35.364 68.333 35.184C68.477 34.86 68.693 34.644 68.909 34.392C69.197 34.104 69.305 33.744 69.269 33.348C69.233 32.664 68.981 32.088 68.657 31.548C68.441 31.188 68.081 31.008 67.649 31.008C67.037 31.044 66.461 31.152 65.957 31.584C65.453 32.016 64.913 32.484 64.481 33.024C63.941 33.708 63.617 34.464 63.617 35.364C63.617 35.76 63.617 36.192 63.653 36.588C63.761 37.236 64.013 37.776 64.445 38.208C65.021 38.748 65.669 38.964 66.425 39C67.325 39.036 68.189 38.892 69.053 38.748C70.457 38.46 71.789 37.956 73.121 37.452C74.237 37.02 75.317 36.516 76.361 35.976C76.505 35.904 76.649 35.796 76.829 35.796C76.901 35.796 76.973 35.76 77.045 35.724C77.009 35.652 77.009 35.58 76.973 35.508ZM66.929 31.872C67.037 31.836 67.073 31.8 66.965 31.692C66.965 31.656 67.001 31.584 67.037 31.584C67.253 31.476 67.505 31.476 67.721 31.476C67.757 31.512 67.793 31.512 67.793 31.548C67.829 31.62 67.757 31.62 67.721 31.656C67.685 31.656 67.613 31.692 67.721 31.728C67.757 31.728 67.829 31.728 67.829 31.8L67.721 31.872C67.649 31.872 67.613 31.872 67.541 31.908C67.289 31.944 67.037 31.98 66.821 32.052C66.569 32.124 66.353 32.232 66.137 32.34C66.317 32.016 66.605 31.944 66.929 31.872ZM67.901 32.628C67.901 32.628 67.901 32.664 67.865 32.7C67.829 32.736 67.793 32.736 67.757 32.736C67.361 32.772 67.001 32.916 66.713 33.132C66.749 32.88 66.929 32.736 67.145 32.664C67.361 32.556 67.613 32.484 67.865 32.556C67.865 32.556 67.901 32.592 67.901 32.628ZM66.281 33.672C66.461 33.6 66.569 33.456 66.749 33.348C66.965 33.204 67.217 33.024 67.541 32.988C67.613 32.952 67.685 32.952 67.757 33.024C67.793 33.096 67.793 33.204 67.757 33.276C67.541 33.564 67.325 33.816 67.037 33.996C66.785 34.14 66.533 34.248 66.245 34.32C66.101 34.356 66.029 34.284 66.029 34.068C65.993 33.888 66.101 33.78 66.281 33.672ZM67.289 34.572C67.217 34.68 67.109 34.68 67.001 34.716L66.929 34.788C66.929 34.788 66.893 34.824 66.893 34.788C66.857 34.788 66.857 34.752 66.929 34.752C66.929 34.752 66.965 34.716 67.001 34.716C67.073 34.644 67.145 34.536 67.253 34.536C67.253 34.5 67.289 34.536 67.289 34.536V34.572ZM65.345 35.328C65.345 35.256 65.417 35.22 65.489 35.22C65.669 35.148 65.849 35.076 66.029 35.04C66.065 35.004 66.101 35.04 66.101 35.076C66.101 35.076 66.101 35.112 66.065 35.148L65.993 35.22C65.993 35.22 66.029 35.256 66.029 35.292C66.029 35.292 65.993 35.292 65.993 35.328C65.849 35.436 65.669 35.508 65.489 35.58C65.417 35.58 65.309 35.652 65.273 35.544C65.237 35.472 65.273 35.4 65.345 35.328ZM65.993 35.256V35.22C65.993 35.22 65.957 35.22 65.993 35.256ZM67.829 35.328V35.292H67.865L67.829 35.328ZM76.829 35.796C76.901 35.796 76.973 35.832 77.045 35.832C76.973 35.796 76.901 35.796 76.829 35.796ZM73.445 37.056C72.509 37.452 71.537 37.812 70.565 38.136C69.773 38.424 68.945 38.604 68.117 38.712C67.541 38.748 67.001 38.748 66.425 38.676C66.389 38.676 66.353 38.64 66.353 38.64C66.353 38.568 66.389 38.532 66.425 38.532C66.605 38.532 66.785 38.496 66.929 38.496C68.189 38.496 69.413 38.28 70.601 37.92C71.429 37.632 72.257 37.38 73.085 37.02C73.337 36.912 73.661 36.84 73.949 36.732C74.021 36.696 74.093 36.696 74.165 36.768C73.949 36.912 73.697 36.984 73.445 37.056ZM68.441 37.344C69.197 37.236 69.881 37.02 70.601 36.84C70.673 36.984 70.601 36.984 70.529 36.984C70.385 37.056 70.241 37.128 70.097 37.2H70.133C70.169 37.236 70.205 37.236 70.205 37.236C70.241 37.272 70.241 37.308 70.205 37.308C70.169 37.344 70.133 37.38 70.097 37.38C69.161 37.704 68.189 37.848 67.217 37.884C67.181 37.884 67.109 37.884 67.073 37.812C67.361 37.74 67.613 37.704 67.901 37.668C67.325 37.632 66.749 37.812 66.173 37.56C66.965 37.488 67.721 37.452 68.441 37.344ZM69.089 37.488C69.485 37.416 69.809 37.38 70.097 37.2L69.593 37.308C69.449 37.344 69.305 37.344 69.089 37.488ZM68.585 37.56L68.549 37.524L68.513 37.56H68.549H68.585ZM103.513 21.54C103.477 21.324 103.405 21.144 103.369 20.964C103.297 20.424 102.973 20.136 102.505 19.992C101.425 19.632 100.309 19.38 99.1569 19.308C98.9769 19.308 98.8329 19.272 98.6529 19.272C98.4729 19.236 98.2569 19.2 98.0769 19.2C97.2129 19.128 96.3849 19.02 95.5569 19.02C94.9449 18.984 94.3689 18.912 93.7569 18.912C93.5769 18.948 93.3969 18.912 93.2169 18.876C92.8569 18.768 92.8209 18.624 92.9649 18.3C93.0009 18.264 93.0009 18.192 93.0369 18.156C93.0369 18.012 93.0369 18.012 93.1449 18.048C93.3249 17.976 93.4329 17.868 93.5769 17.76C93.6849 17.652 93.7929 17.58 93.7929 17.436C93.8289 17.112 94.0809 17.004 94.3329 16.86C94.3689 16.824 94.4049 16.788 94.4409 16.752L94.6209 16.572C94.9809 16.212 95.3769 15.852 95.8089 15.564C95.9889 15.312 96.2049 15.168 96.4929 15.132C96.6369 15.132 96.7449 15.06 96.8169 14.916C96.8529 14.736 96.9969 14.7 97.1409 14.664C97.4289 14.592 97.6809 14.376 97.8969 14.196C97.9689 14.124 98.0769 14.052 98.0769 13.908C98.1129 13.692 98.2929 13.584 98.4369 13.476C98.6889 13.26 98.9409 13.116 99.1929 12.972V13.008L99.3009 12.9C99.4089 12.792 99.4809 12.684 99.5889 12.612C100.057 12.18 100.057 12.036 99.7689 11.496C99.6249 11.28 99.5169 11.244 99.2649 11.28C99.0129 11.388 98.7969 11.496 98.5449 11.64L97.1049 12.612C96.6009 13.044 96.0609 13.404 95.5209 13.8C94.6929 14.412 93.9369 15.06 93.1809 15.708L92.3169 16.464C91.7409 16.968 91.1649 17.508 90.6609 18.084C90.2649 18.516 89.7609 18.732 89.1849 18.732C88.6089 18.768 88.0329 18.768 87.4569 18.732C87.2049 18.732 86.9169 18.732 86.6649 18.768C86.3769 18.84 86.0889 18.84 85.7649 18.804C85.5849 18.768 85.3689 18.768 85.1889 18.768C84.7929 18.768 84.4329 18.84 84.0369 18.84C83.2449 18.804 82.4529 18.984 81.6609 18.912C81.5529 18.912 81.4449 18.948 81.3369 18.984C80.8689 19.056 80.4009 19.128 79.9329 19.092C79.7889 19.092 79.6449 19.128 79.5009 19.128C78.8169 19.236 78.1689 19.344 77.4849 19.416C76.9449 19.488 76.4409 19.596 75.9009 19.704L73.0929 20.352C72.7329 20.424 72.3369 20.532 71.9769 20.676C71.5089 20.856 71.0409 21.036 70.5729 21.18C70.3929 21.216 70.2129 21.288 70.0689 21.36C69.9249 21.432 69.8169 21.54 69.9609 21.684C70.0329 21.792 70.0329 21.864 70.0329 21.972C70.0329 22.332 70.1409 22.44 70.5009 22.296H70.5729C71.4369 21.972 72.3729 21.72 73.2729 21.504C76.3689 20.748 79.5369 20.388 82.7049 20.208C84.2529 20.136 85.8009 20.1 87.3489 20.136H87.7449C87.8169 20.136 87.9249 20.136 87.9609 20.244C87.9969 20.316 87.9249 20.388 87.7449 20.388C87.6369 20.388 87.4929 20.388 87.3489 20.388H84.5769C83.4609 20.424 82.3449 20.496 81.2649 20.568C80.3289 20.64 79.3929 20.748 78.4929 20.82C77.3409 20.964 76.1889 21.144 75.0369 21.36C73.8489 21.612 72.6609 21.864 71.4729 22.224C71.2929 22.26 71.1129 22.332 70.9689 22.44C71.2209 22.404 71.4369 22.368 71.6529 22.296C72.4449 22.08 73.2009 21.864 74.0289 21.72C75.2169 21.468 76.4409 21.252 77.7009 21.072C79.1409 20.892 80.6169 20.748 82.0929 20.64C83.7489 20.568 85.4049 20.496 87.0609 20.532H87.3849C87.4929 20.568 87.5649 20.676 87.5289 20.784C87.5289 20.856 87.4929 20.928 87.4569 21C87.1329 21.36 86.8089 21.684 86.4489 22.044C86.1969 22.26 85.9449 22.512 85.7289 22.8C85.2969 23.304 84.8649 23.844 84.2889 24.24C84.2169 24.276 84.1089 24.384 84.0369 24.456C83.7489 24.816 83.4249 25.104 83.1009 25.428C82.9929 25.536 82.8489 25.644 82.7769 25.788C82.5609 26.148 82.2369 26.4 81.9489 26.688C81.4449 27.156 81.0129 27.66 80.5449 28.164C79.9689 28.812 79.5369 29.568 78.8529 30.108L78.7449 30.216C78.2049 30.936 77.6289 31.62 77.0889 32.34C76.9089 32.556 76.7289 32.808 76.5849 33.06C76.0809 33.78 75.6129 34.5 75.1449 35.22C74.9289 35.58 74.7129 36.012 74.5329 36.408C74.3889 36.696 74.3529 37.02 74.4609 37.344C74.5329 37.596 74.6049 37.848 74.7129 38.1C74.8569 38.496 75.1809 38.712 75.5409 38.892C75.8289 39.072 76.1169 39 76.4049 38.892C76.9449 38.748 77.5209 38.532 78.0609 38.28C78.7449 38.028 79.3929 37.776 80.0769 37.596C81.0489 37.38 81.9849 37.056 82.9209 36.732C83.3529 36.588 83.7849 36.444 84.1809 36.264L85.2969 35.832C85.7289 35.688 86.1609 35.508 86.5929 35.328C86.6649 35.292 86.7729 35.256 86.7729 35.148C86.5929 35.148 86.4489 35.22 86.3049 35.292C84.7929 35.868 83.2449 36.48 81.6609 36.912C80.1489 37.344 78.6729 37.848 77.1969 38.424C76.9449 38.532 76.6929 38.604 76.4049 38.712C76.3329 38.712 76.2609 38.712 76.1529 38.748C76.1169 38.748 76.0449 38.712 76.0449 38.676C76.0449 38.64 76.0809 38.568 76.1169 38.532L76.4409 38.424C76.8729 38.28 77.3049 38.1 77.7009 37.956C78.4569 37.668 79.2129 37.38 79.9689 37.164C81.3009 36.804 82.5969 36.372 83.8929 35.904C84.6849 35.652 85.4769 35.328 86.2689 35.04C86.4129 35.004 86.5929 34.932 86.7009 34.824C86.7729 34.752 86.7729 34.68 86.7369 34.572C86.7009 34.536 86.6649 34.464 86.5929 34.464C86.4849 34.5 86.3409 34.5 86.2329 34.536L85.1169 34.896C84.9009 34.968 84.7209 35.04 84.5049 35.076V35.04C84.3969 35.112 84.2889 35.148 84.1809 35.148L83.8929 35.256C83.8209 35.328 83.7129 35.364 83.6049 35.364C83.4969 35.4 83.3889 35.436 83.2809 35.472C83.1729 35.508 83.1009 35.544 82.9929 35.544C82.8129 35.652 82.6329 35.724 82.4169 35.76L82.5969 35.544C82.3089 35.616 81.9849 35.688 81.6969 35.868C81.7329 35.868 81.7689 35.868 81.7689 35.904C81.7689 35.904 81.7329 35.94 81.6969 35.94C81.6969 35.904 81.6969 35.904 81.6969 35.868V35.832C80.9769 35.976 80.2929 36.156 79.6089 36.444C79.6449 36.444 79.7169 36.444 79.6809 36.516C79.6809 36.516 79.6449 36.552 79.6089 36.552V36.444C79.2849 36.48 78.9969 36.588 78.7089 36.732H79.0329C79.1049 36.696 79.2129 36.66 79.3209 36.66C79.2489 36.696 79.1409 36.732 79.0329 36.732C78.9249 36.804 78.8169 36.84 78.7089 36.84H78.7449C78.2769 37.128 76.8009 37.668 76.3329 37.74L76.5489 37.524C76.4769 37.524 76.4409 37.524 76.4049 37.488C76.3689 37.416 76.4049 37.38 76.4409 37.344L76.7289 37.236C77.9889 36.732 79.2849 36.264 80.5809 35.94C82.3809 35.436 84.1449 34.86 85.8729 34.248C85.9809 34.212 86.0889 34.14 86.1969 34.104C86.2329 34.068 86.2329 33.996 86.2329 33.96C86.2329 33.924 86.1609 33.888 86.1249 33.888C86.0889 33.852 86.0529 33.852 86.0169 33.888C85.6569 33.96 85.2609 33.996 84.9009 34.104C84.1449 34.356 83.3889 34.536 82.6329 34.86C82.4169 34.932 82.1649 35.004 81.9129 35.04C80.8329 35.184 79.8609 35.616 78.8169 35.868L78.6729 35.904C78.2769 36.156 77.8089 36.228 77.3769 36.372C77.3049 36.408 77.2329 36.408 77.1609 36.408C77.0529 36.444 76.9449 36.336 76.9809 36.228C76.9809 36.084 77.0169 35.904 77.0169 35.76V35.616C77.0529 35.508 77.0889 35.472 77.2329 35.544C77.3769 35.364 77.4849 35.184 77.4489 34.968C77.4489 34.86 77.4849 34.788 77.5929 34.752C77.7369 34.68 77.8809 34.608 77.9169 34.464C77.8449 34.392 77.8089 34.284 77.9169 34.212C78.1329 34.032 78.2409 33.816 78.3489 33.564C78.6009 33.132 78.8169 32.7 79.3209 32.484C79.4289 32.448 79.4649 32.376 79.5009 32.268C79.4289 32.268 79.3929 32.196 79.4649 32.124C79.5009 32.088 79.5729 32.016 79.6089 31.98V32.16C80.0409 31.8 80.4009 31.368 80.7609 30.936C80.8689 30.756 81.0129 30.54 81.1569 30.396L82.8129 28.668C82.8849 28.56 82.9929 28.488 83.1009 28.38C83.1369 28.344 83.1729 28.308 83.2089 28.308C83.2809 28.164 83.3889 28.092 83.4969 27.984C83.5689 27.804 83.6769 27.66 83.8209 27.516C84.3969 26.832 85.0089 26.22 85.6209 25.608C85.7649 25.464 85.9449 25.356 86.0889 25.212L86.1969 25.104C86.4849 24.636 86.8809 24.24 87.3849 23.916H87.3489C87.4209 23.736 87.5289 23.628 87.7089 23.52L88.2489 23.124H88.2849C88.2129 22.944 88.3209 22.836 88.4289 22.764C88.5729 22.656 88.6809 22.512 88.7529 22.368C88.8249 22.26 88.7169 22.152 88.7889 22.044C88.8609 21.9 89.0409 22.044 89.1489 21.936L89.6889 21.396C89.7249 21.36 89.7609 21.288 89.7249 21.252C89.6529 21.072 89.7969 21 89.9049 20.964C90.1929 20.892 90.4809 20.856 90.7329 20.748C90.9489 20.64 91.1649 20.604 91.4169 20.604C92.9649 20.604 94.5489 20.748 96.1329 20.784C96.2409 20.784 96.3849 20.784 96.4929 20.82C97.6449 20.856 98.7609 21 99.8769 21.144C100.525 21.216 101.209 21.324 101.857 21.504C102.253 21.612 102.613 21.756 102.901 22.044C102.973 22.152 103.081 22.224 103.153 22.296C103.261 22.332 103.369 22.332 103.405 22.224C103.513 22.008 103.549 21.756 103.513 21.54ZM99.3729 11.64C99.4089 11.64 99.4449 11.64 99.4809 11.676C99.4809 11.676 99.4809 11.748 99.4449 11.748C99.2289 11.964 99.0129 12.108 98.7249 12.18C98.9049 11.964 99.1209 11.784 99.3729 11.64ZM98.4009 12.396C98.1849 12.648 97.9329 12.864 97.6089 12.972C97.8249 12.72 98.1129 12.54 98.4009 12.396ZM97.5009 13.08C97.4289 13.188 97.3209 13.26 97.2129 13.296C97.2849 13.188 97.3929 13.116 97.5009 13.08ZM97.0689 13.404C96.9969 13.512 96.9249 13.548 96.8169 13.584C96.8889 13.476 96.9609 13.44 97.0689 13.404ZM97.4649 14.34C97.4649 14.304 97.4649 14.304 97.4649 14.304H97.5009C97.4649 14.304 97.4649 14.304 97.4649 14.34ZM93.3969 16.284C93.1809 16.68 92.8929 16.86 92.5329 17.076C92.7849 16.716 93.0729 16.464 93.3969 16.284ZM88.8969 19.344C88.7529 19.416 88.6089 19.38 88.4649 19.38H85.3329C85.3329 19.38 85.3329 19.416 85.3689 19.416C86.2689 19.416 87.1689 19.416 88.0689 19.416H88.5369C88.5729 19.452 88.6089 19.452 88.6089 19.488C88.6089 19.56 88.5729 19.56 88.5369 19.56C88.3569 19.56 88.2129 19.596 88.0689 19.596C86.3769 19.56 84.6489 19.632 82.9569 19.704C81.8769 19.704 80.7609 19.812 79.6809 19.956C78.2769 20.1 76.9089 20.28 75.5049 20.532C74.2089 20.784 72.9129 21.072 71.6529 21.468L71.3649 21.576C71.2929 21.576 71.2209 21.648 71.1129 21.576C71.0769 21.54 71.1489 21.324 71.2569 21.288C71.4729 21.18 71.6889 21.072 71.9049 21C73.1289 20.64 74.3889 20.352 75.6849 20.1C76.9089 19.884 78.1689 19.704 79.4649 19.56C80.4729 19.416 81.4809 19.38 82.5249 19.308C84.1809 19.2 85.8729 19.2 87.5289 19.164C87.9249 19.164 88.3209 19.2 88.7169 19.2C88.7889 19.2 88.8609 19.236 88.8969 19.272C88.9329 19.272 88.9329 19.272 88.9329 19.308C88.9329 19.308 88.9329 19.344 88.8969 19.344ZM102.397 20.496L102.361 20.532C102.073 20.568 101.821 20.496 101.569 20.424C101.461 20.424 101.389 20.352 101.281 20.352C101.065 20.316 100.849 20.316 100.633 20.28C99.0489 20.1 97.4649 19.92 95.8449 19.848C94.6929 19.812 93.5769 19.74 92.4249 19.668C92.3529 19.668 92.2809 19.668 92.2449 19.632C92.2089 19.632 92.2089 19.596 92.1729 19.596C92.2089 19.56 92.2089 19.524 92.2449 19.524H92.7129C92.7849 19.524 92.8929 19.524 93.0009 19.488H92.6769C92.5329 19.452 92.3169 19.56 92.2089 19.38C92.3529 19.2 92.5329 19.272 92.7129 19.272C93.8289 19.308 94.9089 19.344 95.9889 19.416C96.8889 19.488 97.7889 19.596 98.7249 19.668C99.5529 19.74 100.381 19.92 101.209 20.028C101.569 20.064 101.893 20.172 102.217 20.28L102.397 20.388C102.397 20.424 102.433 20.46 102.397 20.496ZM81.3369 19.596C81.4089 19.632 81.4449 19.596 81.4809 19.596C81.4449 19.596 81.4089 19.596 81.3729 19.596H81.3369ZM101.857 21.252C100.273 20.964 98.6529 20.82 97.0329 20.676C96.1689 20.64 95.3409 20.604 94.4769 20.568L91.5609 20.46C91.3089 20.46 91.1289 20.388 91.2009 20.316C91.2729 20.172 91.4169 20.208 91.5609 20.208C92.1729 20.208 92.8209 20.208 93.5409 20.244C94.9809 20.316 96.4929 20.424 98.0049 20.532C99.2289 20.604 100.453 20.784 101.641 21.036C101.713 21.036 101.821 21.036 101.893 21.072C102.001 21.144 102.181 21.072 102.253 21.288C102.109 21.36 101.965 21.288 101.857 21.252ZM87.9609 21.432C88.0329 21.324 88.1409 21.216 88.2489 21.144C88.2129 21.288 88.1049 21.396 87.9609 21.432ZM89.3649 21.504C89.3289 21.504 89.2929 21.504 89.2569 21.54C89.2929 21.504 89.3289 21.468 89.3649 21.468V21.504ZM87.4569 21.936C87.4209 22.008 87.3489 22.08 87.2769 22.116C87.3129 22.044 87.3849 21.972 87.4569 21.936C87.5289 21.792 87.6369 21.72 87.7809 21.648C87.7089 21.792 87.6369 21.9 87.4569 21.936ZM70.9689 22.44C70.8249 22.44 70.6449 22.44 70.4289 22.584C70.6809 22.584 70.8249 22.512 70.9689 22.44ZM81.9129 27.768C81.8769 27.804 81.8049 27.876 81.8049 27.84C81.7329 27.804 81.8409 27.768 81.8769 27.732C81.9129 27.66 81.9489 27.66 81.9849 27.588C81.9849 27.66 81.9489 27.732 81.9129 27.768ZM79.5369 32.268C79.5369 32.232 79.5729 32.196 79.6089 32.16C79.5729 32.196 79.5369 32.232 79.5009 32.268H79.5369ZM84.1809 35.04L83.8929 35.148C84.0009 35.148 84.1089 35.148 84.1809 35.148V35.04ZM83.8929 35.148L83.6049 35.256C83.6769 35.256 83.7849 35.256 83.8929 35.256V35.148ZM83.6049 35.256L83.2809 35.364C83.3889 35.364 83.4969 35.364 83.6049 35.364V35.256ZM83.2809 35.364C83.2089 35.4 83.1009 35.436 82.9929 35.436C83.1009 35.436 83.1729 35.436 83.2809 35.436V35.364ZM82.9929 35.436L82.5969 35.544C82.7409 35.544 82.8849 35.544 82.9929 35.544V35.436ZM83.2809 35.436V35.472C83.2809 35.436 83.3169 35.436 83.3169 35.436H83.2809ZM78.4209 36.84H78.7089C78.7089 36.804 78.7089 36.768 78.7089 36.732L78.4209 36.84ZM77.6289 37.128C77.7009 37.128 77.7729 37.092 77.8449 37.056C77.7729 37.056 77.7009 37.092 77.6289 37.128ZM77.6289 37.128C77.5209 37.164 77.4129 37.2 77.3409 37.236L77.6289 37.128ZM77.0169 37.344C76.9809 37.38 76.9089 37.416 76.8369 37.452L77.0529 37.344H77.0169ZM76.5489 37.524C76.6209 37.524 76.7289 37.488 76.8369 37.452C76.7289 37.488 76.6209 37.488 76.5489 37.524Z" fill="black"/>
</svg>
