<svg width="296" height="26" viewBox="0 0 296 26" fill="none" xmlns="http://www.w3.org/2000/svg">
<path d="M6.15625 7.03125C6.13542 7.78125 6.16667 8.17708 6.25 8.21875C6.35417 8.23958 6.61458 8.10417 7.03125 7.8125C8.09375 7.14583 8.91667 6.45834 9.5 5.75C9.625 5.60417 9.78125 5.54167 9.96875 5.5625C10.1771 5.5625 10.3229 5.63542 10.4062 5.78125C10.5521 5.94792 10.5 6.1875 10.25 6.5C10.0208 6.79167 9.67708 7.125 9.21875 7.5C8.78125 7.875 8.54167 8.08334 8.5 8.125C8.41667 8.20833 8.25 8.33333 8 8.5C7.75 8.66667 7.48958 8.82292 7.21875 8.96875C6.96875 9.11458 6.73958 9.26042 6.53125 9.40625C6.34375 9.55208 6.26041 9.64583 6.28125 9.6875C6.21875 9.8125 6.1875 10.3542 6.1875 11.3125L6.1875 12.9375C6.16666 13.0833 6.20833 13.2917 6.3125 13.5625L6.46875 13.9688L7.09375 14.125C7.59375 14.2708 8.20833 14.375 8.9375 14.4375C9.6875 14.4792 10.2292 14.5417 10.5625 14.625C10.8958 14.7292 11.1562 14.7813 11.3437 14.7813C11.5729 14.7813 11.7604 14.8958 11.9062 15.125C12.0729 15.3542 12.0729 15.5313 11.9062 15.6563C11.6562 15.8646 11.1667 15.9167 10.4375 15.8125C9.52083 15.6667 8.36458 15.5208 6.96875 15.375C6.73958 15.3542 6.5625 15.375 6.4375 15.4375C6.33333 15.4792 6.27083 15.5208 6.25 15.5625C6.22916 15.6042 6.19791 15.7396 6.15625 15.9688C6.13541 16.1771 6.11458 16.3333 6.09375 16.4375C6.07291 16.6042 6.01041 16.9063 5.90625 17.3438C5.82291 17.7813 5.76041 18.0833 5.71875 18.25C5.69791 18.3958 5.65625 18.6563 5.59375 19.0313C5.55208 19.3854 5.52083 19.6979 5.5 19.9688C5.47916 20.2188 5.45833 20.5521 5.4375 20.9688C5.41666 21.3646 5.40625 21.7917 5.40625 22.25C5.38541 22.8333 5.36458 23.2083 5.34375 23.375C5.32291 23.5417 5.25 23.7396 5.125 23.9688C4.89583 24.4479 4.61458 24.5938 4.28125 24.4063C4.01041 24.2604 3.86458 23.5625 3.84375 22.3125C3.84375 21 3.96875 20.1875 4.21875 19.875C4.30208 19.5625 4.39583 19.0625 4.5 18.375C4.60416 17.6875 4.67708 17.2396 4.71875 17.0313C4.86458 16.2604 4.9375 15.7292 4.9375 15.4375C4.9375 15.1458 4.86458 14.9688 4.71875 14.9063C4.63541 14.8646 4.5625 14.8854 4.5 14.9688C4.4375 15.0521 4.28125 15.3229 4.03125 15.7813C3.61458 16.6146 3.30208 17.1771 3.09375 17.4688C2.88541 17.7396 2.625 17.9688 2.3125 18.1563C2 18.3646 1.78125 18.4792 1.65625 18.5C1.53125 18.5208 1.40625 18.4688 1.28125 18.3438C1.17708 18.2396 1.15625 18.1146 1.21875 17.9688C1.32291 17.6771 1.51041 17.3958 1.78125 17.125C2.05208 16.8542 2.21875 16.6771 2.28125 16.5938C2.42708 16.3854 2.71875 15.8438 3.15625 14.9688C3.59375 14.0729 3.89583 13.5 4.0625 13.25C4.1875 13.1042 4.29166 12.8854 4.375 12.5938C4.47916 12.3021 4.57291 12.0938 4.65625 11.9688C4.78125 11.8854 4.84375 11.6458 4.84375 11.25C4.86458 10.8333 4.82291 10.5833 4.71875 10.5C4.65625 10.4792 4.40625 10.5417 3.96875 10.6875C3.01041 11.0625 2.1875 11.3229 1.5 11.4688C0.833331 11.5938 0.479164 11.5729 0.437498 11.4063C0.395831 11.3229 0.395831 11.2083 0.437498 11.0625C0.499998 10.9167 0.531248 10.8021 0.531248 10.7188C0.531248 10.4896 0.624998 10.3333 0.812498 10.25C1.02083 10.1667 1.64583 10.0104 2.6875 9.78125C3.45833 9.61458 4.03125 9.40625 4.40625 9.15625C4.61458 9.09375 4.75 8.97917 4.8125 8.8125C4.875 8.64583 4.90625 8.3125 4.90625 7.8125C4.90625 7.39583 4.95833 6.89583 5.0625 6.3125C5.1875 5.72917 5.25 5.29167 5.25 5C5.25 4.5625 5.39583 4.29167 5.6875 4.1875C6 4.0625 6.25 4.1875 6.4375 4.5625C6.54167 4.77083 6.59375 4.9375 6.59375 5.0625C6.59375 5.1875 6.53125 5.39583 6.40625 5.6875C6.26042 6 6.17708 6.44792 6.15625 7.03125ZM21.3437 19.6875C21.2396 20.7292 20.9583 21.3333 20.5 21.5C20.1875 21.5417 19.8542 21.375 19.5 21L19.1875 20.6563L18.4687 20.8438C18.2187 20.9063 17.9896 20.9583 17.7812 21C17.5729 21.0208 17.3958 21.0521 17.25 21.0938C17.125 21.1146 16.8958 21.1875 16.5625 21.3125C15.9792 21.5208 15.5937 21.6146 15.4062 21.5938C15.2187 21.5729 15.0521 21.4271 14.9062 21.1563C14.8229 20.9688 14.7917 20.8229 14.8125 20.7188C14.8542 20.6146 14.9792 20.5104 15.1875 20.4063C15.4792 20.2813 16 20.1146 16.75 19.9063C17.5 19.6771 17.9687 19.5208 18.1562 19.4375L18.625 19.2188L18.5937 18.625C18.5729 18.2708 18.5937 18.0625 18.6562 18C18.7396 17.9167 18.8333 17.9479 18.9375 18.0938C19.0417 18.2396 19.1146 18.3958 19.1562 18.5625L19.2812 18.9688L19.75 18.9688C20 18.9688 20.1562 18.9167 20.2187 18.8125C20.3021 18.7083 20.3333 18.5521 20.3125 18.3438C20.2917 18.1146 20.3125 17.8646 20.375 17.5938C20.375 17.2813 20.3958 16.9583 20.4375 16.625C20.5 16.2708 20.5312 15.9896 20.5312 15.7813C20.5104 15.6771 20.5312 15.4375 20.5937 15.0625C20.6562 14.6667 20.6458 14.4271 20.5625 14.3438L20.2812 14.5313C20.1562 14.5938 19.9583 14.6563 19.6875 14.7188C19.4167 14.7604 19.1771 14.8646 18.9687 15.0313C18.7604 15.1771 18.3333 15.4271 17.6875 15.7813C17.0417 16.1146 16.6875 16.2813 16.625 16.2813C16.5625 16.3229 16.4896 16.3646 16.4062 16.4063C16.3229 16.4479 16.2708 16.4896 16.25 16.5313C16.2292 16.5521 16.1979 16.5938 16.1562 16.6563C16.1146 16.6979 16.0937 16.7708 16.0937 16.875C16.0937 16.9792 16.0833 17.1042 16.0625 17.25C16.0625 17.375 16.0521 17.5625 16.0312 17.8125C15.9896 18.875 15.8646 19.5417 15.6562 19.8125C15.4062 20.125 15.1354 20.0729 14.8437 19.6563L14.5625 19.3125L14.625 17.8438C14.6667 16.4479 14.7812 15.4896 14.9687 14.9688C15.0312 14.7604 15.1146 14.1979 15.2187 13.2813C15.3229 12.3646 15.4062 11.7604 15.4687 11.4688C15.5312 11.2604 15.5417 11 15.5 10.6875C15.4792 10.375 15.4792 10.0313 15.5 9.65625C15.5417 9.05209 15.5521 8.65625 15.5312 8.46875C15.4896 8.21875 15.5729 8 15.7812 7.8125C16.0104 7.60417 16.2396 7.54167 16.4687 7.625C16.5937 7.72917 16.7187 7.69792 16.8437 7.53125C16.9687 7.36459 17.0625 7.19792 17.125 7.03125C17.2917 6.61459 17.6667 6.27084 18.25 6C18.8333 5.70834 19.4062 5.70834 19.9687 6C20.1354 6.08334 20.2708 6.20834 20.375 6.375C20.4792 6.52084 20.6667 6.875 20.9375 7.4375C21.0417 7.60417 21.1146 7.80209 21.1562 8.03125C21.2187 8.23959 21.2708 8.45834 21.3125 8.6875C21.3542 8.89584 21.4167 9.30209 21.5 9.90625C21.6042 10.4896 21.6979 11.0417 21.7812 11.5625C21.8854 12.125 21.875 13.4792 21.75 15.625C21.625 17.7708 21.4896 19.125 21.3437 19.6875ZM19.4062 7.0625C19.2812 6.91667 19.0937 6.85417 18.8437 6.875C18.6146 6.875 18.4375 6.94792 18.3125 7.09375C17.75 7.78125 17.3333 8.14584 17.0625 8.1875L16.7187 8.25L16.7187 9.6875C16.7187 10.6458 16.75 11.1667 16.8125 11.25C16.9583 11.375 17.4375 11.3021 18.25 11.0313C19.0833 10.7604 19.6042 10.6354 19.8125 10.6563C20.2292 10.6354 20.4479 10.6146 20.4687 10.5938C20.5312 10.5313 20.4271 9.91667 20.1562 8.75C19.9687 7.9375 19.7187 7.375 19.4062 7.0625ZM19.875 11.875C19.7708 11.8542 19.2917 11.9583 18.4375 12.1875C17.6042 12.4167 17.1458 12.5313 17.0625 12.5313C16.8333 12.5313 16.6771 12.6146 16.5937 12.7813C16.5104 12.9271 16.4479 13.2604 16.4062 13.7813C16.3646 14.4063 16.3542 14.75 16.375 14.8125C16.7917 14.8958 17.8229 14.4271 19.4687 13.4063C19.7812 13.1354 20.0729 13.0313 20.3437 13.0938C20.4479 13.1146 20.5312 13.1146 20.5937 13.0938C20.6562 13.0729 20.6875 13.0313 20.6875 12.9688C20.7083 12.9063 20.7187 12.8438 20.7187 12.7813C20.7187 12.7188 20.7083 12.6354 20.6875 12.5313C20.6875 12.4063 20.6875 12.3021 20.6875 12.2188C20.6667 12.0313 20.625 11.9063 20.5625 11.8438C20.5208 11.7604 20.4792 11.7188 20.4375 11.7188C20.3958 11.7188 20.3125 11.7396 20.1875 11.7813C20.0625 11.8229 19.9583 11.8542 19.875 11.875ZM39.8125 3.84376C39.8958 3.90626 40.0833 3.95834 40.375 4.00001C40.6667 4.02084 40.8646 4.10417 40.9687 4.25001C41.1979 4.47917 41.2917 4.69792 41.25 4.90626C41.2083 5.09376 41.0417 5.22917 40.75 5.31251C40.5208 5.39584 40.2708 5.39584 40 5.31251C39.7292 5.22917 39.375 5.11459 38.9375 4.96876C38.5208 4.80209 38.2396 4.70834 38.0937 4.68751C37.7187 4.66667 37.4167 4.53126 37.1875 4.28126C36.9583 4.03126 36.9687 3.75001 37.2187 3.43751C37.3646 3.29167 37.5625 3.22917 37.8125 3.25001C38.0833 3.27084 38.3125 3.32292 38.5 3.40626C38.6875 3.46876 38.9167 3.55209 39.1875 3.65626C39.4583 3.76042 39.6667 3.82292 39.8125 3.84376ZM28.6562 10.4688C28.5729 10.6146 28.1875 11.2813 27.5 12.4688C26.8333 13.6354 26.4271 14.4479 26.2812 14.9063C26.2604 15.0104 26.1562 15.1146 25.9687 15.2188C25.8021 15.3021 25.6562 15.2708 25.5312 15.125C25.3854 15.0208 25.3125 14.8854 25.3125 14.7188C25.3125 14.5521 25.375 14.2813 25.5 13.9063C25.8542 13.0521 26.3021 12.0938 26.8437 11.0313C27.4062 9.94792 27.8958 9.12501 28.3125 8.56251C28.5208 8.27084 28.6979 7.77084 28.8437 7.06251C29.0104 6.35417 29.2083 5.87501 29.4375 5.62501C29.6458 5.52084 29.9062 5.54167 30.2187 5.68751C30.8854 6.00001 30.8646 6.78126 30.1562 8.03126C30.1146 8.13542 30.0625 8.25001 30 8.37501C29.9375 8.47917 29.875 8.56251 29.8125 8.62501C29.7708 8.68751 29.7396 8.75001 29.7187 8.81251C29.6979 8.87501 29.6979 8.92709 29.7187 8.96876C29.7396 9.01042 29.8021 9.03126 29.9062 9.03126C30.0521 9.03126 30.1875 9.10417 30.3125 9.25001C30.4583 9.39584 30.5312 9.55209 30.5312 9.71876C30.4896 10.5729 30.4792 11.8021 30.5 13.4063C30.5417 15.0104 30.5312 16.7604 30.4687 18.6563C30.4062 20.5521 30.2917 21.75 30.125 22.25C30.1042 22.4792 29.9896 22.6563 29.7812 22.7813C29.5937 22.9063 29.3958 22.9271 29.1875 22.8438C28.9792 22.7604 28.8542 22.5833 28.8125 22.3125C29.0208 21.1042 29.1458 19.1563 29.1875 16.4688C29.25 13.7604 29.2292 11.6771 29.125 10.2188C29.1042 10.0104 28.9792 10.0521 28.75 10.3438C28.7292 10.3854 28.6979 10.4271 28.6562 10.4688ZM36.1875 9.15626C36.3542 8.92709 36.7708 8.65626 37.4375 8.34376C38.125 8.03126 38.5104 7.83334 38.5937 7.75001C38.9062 7.50001 39.1771 7.30209 39.4062 7.15626C39.6354 7.01042 39.9062 6.84376 40.2187 6.65626C40.5521 6.46876 40.7812 6.33334 40.9062 6.25001C41.1771 6.06251 41.4271 6.01042 41.6562 6.09376C41.8854 6.17709 42 6.36459 42 6.65626C42 6.78126 41.875 6.97917 41.625 7.25001C41.3958 7.50001 41.1875 7.65626 41 7.71876C40.9375 7.71876 40.2396 8.12501 38.9062 8.93751C37.5937 9.75001 36.8437 10.1354 36.6562 10.0938C36.4062 10.1354 36.2292 10.0521 36.125 9.84376C36.0208 9.61459 36.0417 9.38542 36.1875 9.15626ZM41.7187 9.56251C41.5312 9.85417 41.3542 10.0625 41.1875 10.1875C41.0208 10.3125 40.7812 10.4688 40.4687 10.6563C40.1771 10.9063 39.7708 11.1875 39.25 11.5C38.75 11.8125 38.4271 11.9792 38.2812 12C37.8854 12.0833 37.6146 11.9167 37.4687 11.5C37.3437 11.3542 37.4271 11.1771 37.7187 10.9688C38.0312 10.7396 38.3958 10.5208 38.8125 10.3125C39.2292 10.0833 39.4687 9.92709 39.5312 9.84376C40.2812 9.30209 40.8021 8.90626 41.0937 8.65626C41.5937 8.11459 41.9479 7.97917 42.1562 8.25001C42.3646 8.54167 42.25 8.94792 41.8125 9.46876C41.7917 9.48959 41.7604 9.52084 41.7187 9.56251ZM39.9062 15.0625C39.8646 15.8542 39.9167 16.25 40.0625 16.25C40.1042 16.25 40.2812 16.125 40.5937 15.875C40.7396 15.8125 40.9375 15.6667 41.1875 15.4375C41.4375 15.2083 41.6875 15.0417 41.9375 14.9375C42.2083 14.8125 42.4896 14.8125 42.7812 14.9375C43.1562 15.0208 43.375 15.2708 43.4375 15.6875C43.5 16.0833 43.4479 16.5 43.2812 16.9375C43.1354 17.375 42.9479 17.6979 42.7187 17.9063C42.3646 18.3229 42.2396 18.5521 42.3437 18.5938C42.3437 18.6146 42.3646 18.625 42.4062 18.625C42.6146 18.6667 43.3542 18.6146 44.625 18.4688C45.8958 18.3229 46.6146 18.2813 46.7812 18.3438C46.9271 18.4688 46.9792 18.6979 46.9375 19.0313C46.9167 19.3438 46.8229 19.5521 46.6562 19.6563C46.1979 19.7188 45.5208 19.7813 44.625 19.8438C43.7292 19.8854 42.9896 19.9688 42.4062 20.0938C41.8229 20.2188 41.2292 20.4271 40.625 20.7188C40.3333 20.8854 39.9792 21 39.5625 21.0625C39.1458 21.125 38.8229 21.0625 38.5937 20.875C38.4479 20.6875 38.3958 20.3854 38.4375 19.9688C38.4792 19.5313 38.5312 18.9479 38.5937 18.2188C38.6562 17.4896 38.6667 16.9792 38.625 16.6875C38.5417 16.1458 38.5 15.8229 38.5 15.7188C38.5208 15.5938 38.5833 15.4375 38.6875 15.25C38.8542 14.8542 38.8437 14.5729 38.6562 14.4063C38.4271 14.1146 38.3021 13.8646 38.2812 13.6563C38.2812 13.4271 38.3333 13.25 38.4375 13.125C38.5625 13 38.7604 12.8333 39.0312 12.625C39.0937 12.5625 39.1354 12.5208 39.1562 12.5C39.3437 12.3333 39.5833 12.1563 39.875 11.9688C40.1667 11.7604 40.4167 11.5625 40.625 11.375C40.8333 11.1875 41.0208 10.9583 41.1875 10.6875C41.2917 10.5208 41.4375 10.4375 41.625 10.4375C41.8125 10.4375 41.9583 10.5208 42.0625 10.6875C42.2083 10.9167 42.2396 11.125 42.1562 11.3125C42.0729 11.5 41.8021 11.8333 41.3437 12.3125C41.0729 12.5833 40.7604 12.8646 40.4062 13.1563C40.0729 13.4479 39.8333 13.6771 39.6875 13.8438C39.625 13.9688 39.6562 14.1563 39.7812 14.4063C39.9271 14.6354 39.9687 14.8542 39.9062 15.0625ZM40.6875 17.4688C40.6667 17.4896 40.5417 17.6563 40.3125 17.9688C40.1042 18.2604 40.0312 18.5 40.0937 18.6875L40.0937 19.125C40.4271 18.9792 40.8125 18.5938 41.25 17.9688C41.7083 17.3438 41.9687 16.875 42.0312 16.5625C42.0521 16.2917 41.9479 16.2396 41.7187 16.4063C41.6562 16.4479 41.5833 16.5104 41.5 16.5938C41.4375 16.6563 41.2917 16.7917 41.0625 17C40.8542 17.2083 40.7292 17.3646 40.6875 17.4688ZM67.3125 7.03126C67.4583 6.71876 67.7187 6.59376 68.0937 6.65626C68.4687 6.71876 68.6146 6.93751 68.5312 7.31251C68.4896 7.54168 68.4271 7.70835 68.3437 7.81251C68.2604 7.89585 68.1354 7.9896 67.9687 8.09376C67.8229 8.19793 67.6875 8.33335 67.5625 8.50001C67 9.06251 66.5625 9.34376 66.25 9.34376C66.125 9.34376 66.0312 9.32293 65.9687 9.28126C65.9271 9.2396 65.875 9.13543 65.8125 8.96876C65.7083 8.76043 65.6562 8.56251 65.6562 8.37501C65.6562 8.16668 65.6979 7.75001 65.7812 7.12501C65.8229 6.75001 65.8437 6.45835 65.8437 6.25001C65.8646 6.02085 65.8437 5.8646 65.7812 5.78126C65.7187 5.67709 65.625 5.64584 65.5 5.68751C65.375 5.70834 65.2083 5.79168 65 5.93751C64.75 6.12501 64.5729 6.32293 64.4687 6.53126C64.3646 6.71876 64.2812 7.04168 64.2187 7.50001C64.1146 8.16668 63.9479 8.62501 63.7187 8.87501C63.4896 9.12501 63.2812 9.13543 63.0937 8.90626C63.0312 8.84376 63.0104 8.25001 63.0312 7.12501C63.0521 6.00001 63.0417 5.35418 63 5.18751C62.9375 4.79168 62.9271 4.53126 62.9687 4.40626C63.0104 4.26043 63.125 4.14584 63.3125 4.06251C63.7083 3.83334 64.0104 3.96876 64.2187 4.46876L64.375 4.84376L64.9375 4.53126C65.1667 4.40626 65.375 4.31251 65.5625 4.25001C65.75 4.18751 65.9062 4.1771 66.0312 4.21876C66.1562 4.2396 66.2708 4.28126 66.375 4.34376C66.4792 4.38543 66.5521 4.47918 66.5937 4.62501C66.6562 4.77085 66.7083 4.90626 66.75 5.03126C66.7917 5.15626 66.8229 5.33335 66.8437 5.56251C66.8646 5.77085 66.875 5.94793 66.875 6.09376C66.8958 6.2396 66.9062 6.44793 66.9062 6.71876C66.9062 6.96876 66.9167 7.16668 66.9375 7.31251C66.9792 7.35418 67.1042 7.26043 67.3125 7.03126ZM52.4375 4.71876C52.75 4.80209 53.1562 4.79168 53.6562 4.68751C54.1562 4.56251 54.4896 4.51043 54.6562 4.53126C54.9062 4.55209 55.0729 4.63543 55.1562 4.78126C55.1979 4.84376 55.2187 4.90626 55.2187 4.96876C55.2396 5.03126 55.2292 5.09376 55.1875 5.15626C55.1667 5.21876 55.1354 5.27084 55.0937 5.31251C55.0729 5.35418 55.0208 5.39584 54.9375 5.43751C54.875 5.47918 54.8125 5.51043 54.75 5.53126C54.6875 5.55209 54.6042 5.58334 54.5 5.62501C54.4167 5.64584 54.3437 5.66668 54.2812 5.68751C54.2187 5.70834 54.1354 5.72918 54.0312 5.75001C53.9479 5.77084 53.8854 5.79168 53.8437 5.81251C53.5521 5.89584 53.1667 5.95834 52.6875 6.00001L52 6.03126L51.75 5.75001C51.6042 5.56251 51.5208 5.35418 51.5 5.12501C51.5 4.85418 51.5521 4.68751 51.6562 4.62501C51.7812 4.56251 52.0417 4.59376 52.4375 4.71876ZM54.375 8.03126C54.4583 8.01043 54.5729 7.92709 54.7187 7.78126C54.8854 7.61459 55.0312 7.46876 55.1562 7.34376C55.2812 7.19793 55.4167 7.09376 55.5625 7.03126C55.7292 6.94793 55.875 6.98959 56 7.15626C56.1042 7.32293 56.1667 7.44793 56.1875 7.53126C56.2292 7.59376 56.2292 7.68751 56.1875 7.81251C56.1458 7.93751 56.0417 8.08334 55.875 8.25001C55.4167 8.70834 54.6042 9.21876 53.4375 9.78126C51.7292 10.6146 50.6354 10.9063 50.1562 10.6563C49.7604 10.4479 49.75 10.125 50.125 9.68751C50.2708 9.54168 50.375 9.45834 50.4375 9.43751C50.5208 9.39584 50.7083 9.37501 51 9.37501C51.2708 9.43751 51.75 9.33334 52.4375 9.06251C53.1458 8.77084 53.6146 8.54168 53.8437 8.37501C54.0104 8.22918 54.1875 8.11459 54.375 8.03126ZM56 11.125C56 11.4167 55.5729 11.8542 54.7187 12.4375C54.0521 12.875 53.4271 13.2188 52.8437 13.4688C52.2812 13.6979 51.875 13.7813 51.625 13.7188C51.3333 13.6354 51.2187 13.3854 51.2812 12.9688C51.3021 12.7396 51.3958 12.5938 51.5625 12.5313C51.7292 12.4479 51.9479 12.3958 52.2187 12.375C52.4896 12.3542 52.6875 12.3125 52.8125 12.25C53.0833 12.1458 53.5104 11.9167 54.0937 11.5625C54.6771 11.1875 55.0312 10.9271 55.1562 10.7813C55.3437 10.5938 55.5312 10.5417 55.7187 10.625C55.9062 10.6875 56 10.8542 56 11.125ZM64.625 19.4063C64.5208 19.5313 64.4271 19.6563 64.3437 19.7813C64.2812 19.9063 64.2292 20 64.1875 20.0625C64.1458 20.125 64.0625 20.2188 63.9375 20.3438C63.8125 20.4688 63.6458 20.6354 63.4375 20.8438C62.8542 21.4271 62.4583 21.75 62.25 21.8125C62.0417 21.8958 61.8958 21.9063 61.8125 21.8438C61.7292 21.7604 61.6458 21.625 61.5625 21.4375C61.5417 21.4167 61.5312 21.3958 61.5312 21.375C61.4687 21.25 61.4896 21.1563 61.5937 21.0938C61.6979 21.0104 61.8021 20.9896 61.9062 21.0313C62.1771 21.1771 62.7917 20.5625 63.75 19.1875C64 18.8333 64.2396 18.4271 64.4687 17.9688C64.6979 17.4896 64.8125 17.1771 64.8125 17.0313C64.8125 16.9063 64.7396 16.7813 64.5937 16.6563C64.4062 16.5104 64.2708 16.2708 64.1875 15.9375C64.1042 15.6042 64.125 15.3542 64.25 15.1875C64.3333 15.0833 64.3021 14.9479 64.1562 14.7813C64.0312 14.6146 64.0104 14.4375 64.0937 14.25C64.0729 14.0417 64.1771 13.8438 64.4062 13.6563C64.6354 13.4479 64.8646 13.2813 65.0937 13.1563C65.2187 13.1771 65.4375 13.0625 65.75 12.8125C66.0833 12.5625 66.4167 12.2708 66.75 11.9375C67.1042 11.6042 67.3333 11.4063 67.4375 11.3438C67.6458 11.2188 67.8333 11.25 68 11.4375C68.1875 11.625 68.25 11.8542 68.1875 12.125C68.125 12.375 67.875 12.9479 67.4375 13.8438C66.8958 14.9479 66.5937 15.6146 66.5312 15.8438C66.4896 16.0729 66.4896 16.2292 66.5312 16.3125C66.5937 16.3958 66.7917 16.5417 67.125 16.75C67.8333 17.2292 69.5521 18.3229 72.2812 20.0313C72.5312 20.2188 72.6979 20.3333 72.7812 20.375C72.8854 20.3958 73.0312 20.3958 73.2187 20.375C73.5312 20.2917 73.7292 20.3542 73.8125 20.5625C73.9167 20.75 73.9062 20.9792 73.7812 21.25C73.5937 21.6042 73.3646 21.7917 73.0937 21.8125C72.8437 21.8333 72.4792 21.6771 72 21.3438C71.6667 21.1354 70.9896 20.7188 69.9687 20.0938C68.9479 19.4688 68.2292 19.0104 67.8125 18.7188C67.5 18.4896 67.1146 18.25 66.6562 18C66.1979 17.75 65.9167 17.6458 65.8125 17.6875C65.6042 17.7917 65.3646 18.0938 65.0937 18.5938C64.8229 19.0729 64.6667 19.3438 64.625 19.4063ZM65.9687 14.4688C65.9687 14.3229 65.8646 14.3125 65.6562 14.4375C65.5729 14.5 65.4583 14.5729 65.3125 14.6563C64.8125 14.9896 64.6667 15.1563 64.875 15.1563C64.8958 15.1354 64.9583 15.1771 65.0625 15.2813C65.1875 15.3646 65.2917 15.4375 65.375 15.5C65.4792 15.5417 65.5521 15.5417 65.5937 15.5C65.6562 15.4375 65.7292 15.2813 65.8125 15.0313C65.9167 14.7813 65.9687 14.5938 65.9687 14.4688ZM54.0937 14.1563C54.3021 14.0104 54.5625 13.7604 54.875 13.4063C55.1875 13.0313 55.4687 12.7813 55.7187 12.6563C55.9271 12.6563 56.0417 12.7708 56.0625 13C56.1042 13.2292 56.0312 13.4688 55.8437 13.7188C55.6771 13.9479 55.3125 14.3438 54.75 14.9063C54.3542 15.2604 54.1042 15.5208 54 15.6875C53.9167 15.8542 53.8646 16.0729 53.8437 16.3438C53.8229 16.5938 53.7604 16.875 53.6562 17.1875C53.4062 17.8125 53.3542 18.1771 53.5 18.2813C53.5833 18.3229 53.7292 18.2292 53.9375 18C54.375 17.5833 54.6562 17.3333 54.7812 17.25C54.9271 17.1667 55.1042 17.1458 55.3125 17.1875C55.8542 17.2083 56.1667 17.5833 56.25 18.3125C56.25 18.4792 56.2812 18.5833 56.3437 18.625C56.4271 18.6458 56.5208 18.5938 56.625 18.4688C56.8125 18.2396 56.9896 18.125 57.1562 18.125C57.3229 18.125 57.4062 18.2396 57.4062 18.4688C57.4062 19.0104 56.7812 19.9583 55.5312 21.3125C55.1771 21.6667 55 21.8646 55 21.9063C55 21.9688 54.7812 22.125 54.3437 22.375C53.9062 22.6042 53.625 22.7188 53.5 22.7188C53.3333 22.7188 53.1875 22.8125 53.0625 23C52.9792 23.1667 52.8542 23.2917 52.6875 23.375C52.5208 23.4583 52.3854 23.4688 52.2812 23.4063C52.0521 23.2813 51.9896 22.875 52.0937 22.1875C52.1354 21.8125 52.1771 21.0313 52.2187 19.8438C52.2604 18.4271 52.3958 17.4479 52.625 16.9063C52.7292 16.6979 52.7604 16.5729 52.7187 16.5313C52.6979 16.4896 52.5729 16.4792 52.3437 16.5C52.0521 16.5417 51.8646 16.5208 51.7812 16.4375C51.6979 16.3542 51.6667 16.1875 51.6875 15.9375C51.6875 15.6667 51.7708 15.4792 51.9375 15.375C52.125 15.2708 52.3542 15.1875 52.625 15.125C52.8958 15.0625 53.0833 14.9688 53.1875 14.8438C53.6667 14.4688 53.9687 14.2396 54.0937 14.1563ZM53.4375 21.4063C53.5208 21.4063 53.6667 21.3229 53.875 21.1563C54.1042 20.9896 54.25 20.8542 54.3125 20.75C54.4792 20.5208 54.6667 20.1875 54.875 19.75C55.0833 19.2917 55.1875 19 55.1875 18.875C55.2083 18.6875 55.1562 18.5938 55.0312 18.5938C54.7604 18.5729 54.4062 18.9271 53.9687 19.6563C53.5312 20.3854 53.3542 20.9688 53.4375 21.4063ZM83.0312 3.65626C83.0312 4.03126 82.8646 4.21876 82.5312 4.21876C82.0521 4.21876 81.4271 4.10418 80.6562 3.87501C79.8854 3.64585 79.3125 3.40626 78.9375 3.15626C78.5417 3.03126 78.4792 2.66668 78.75 2.06251C78.8125 1.97918 78.9062 1.9271 79.0312 1.90626C79.1771 1.8646 79.2708 1.87501 79.3125 1.93751C80.125 2.54168 81.1354 2.90626 82.3437 3.03126C82.5937 3.07293 82.7708 3.13543 82.875 3.21876C82.9792 3.3021 83.0312 3.44793 83.0312 3.65626ZM94.3125 24.25C93.6875 24.125 93.5729 23.7917 93.9687 23.25C94.0937 23.0208 94.1562 22.75 94.1562 22.4375C94.1562 22.1042 94.125 21.6875 94.0625 21.1875C94 20.6667 93.9583 20.3125 93.9375 20.125C93.875 19.6458 93.8229 18.9583 93.7812 18.0625C93.7396 17.1458 93.6875 16.4375 93.625 15.9375C93.375 13.8542 93.2292 12.3438 93.1875 11.4063C93.1667 10.8854 93.1146 10.6042 93.0312 10.5625C92.9479 10.5208 92.5937 10.6042 91.9687 10.8125C90.7187 11.2708 89.3542 11.4583 87.875 11.375C87.6875 11.2708 87.6146 11.0729 87.6562 10.7813C87.6979 10.4896 87.7917 10.25 87.9375 10.0625C87.9792 9.95835 88.1042 9.9271 88.3125 9.96877C88.5208 10.0104 88.7604 10.0625 89.0312 10.125C89.3021 10.1875 89.4583 10.1979 89.5 10.1563C91.1667 9.90627 92.3021 9.60418 92.9062 9.25002C93.0312 9.18752 93.1042 9.12502 93.125 9.06252C93.1458 8.97918 93.1667 8.82293 93.1875 8.59377C93.2083 8.03127 93.1771 7.35418 93.0937 6.56252C93.0312 5.77085 92.9479 5.20835 92.8437 4.87502C92.7604 4.54168 92.7396 4.31252 92.7812 4.18752C92.8229 4.04168 92.9479 3.89585 93.1562 3.75002C93.3646 3.58335 93.4896 3.50002 93.5312 3.50002C93.5937 3.47918 93.6875 3.51043 93.8125 3.59377C93.9792 3.69793 94.0833 3.9271 94.125 4.28127C94.1875 4.63543 94.25 5.38543 94.3125 6.53127C94.3333 6.90627 94.3437 7.33335 94.3437 7.81252C94.3229 8.22918 94.3437 8.45835 94.4062 8.50002C94.4687 8.52085 94.6771 8.44793 95.0312 8.28127C95.1146 8.21877 95.1875 8.1771 95.25 8.15627C95.9167 7.8021 96.3542 7.58335 96.5625 7.50002C96.7708 7.41668 96.9375 7.39585 97.0625 7.43752C97.4167 7.56252 97.5417 7.81252 97.4375 8.18752C97.3333 8.56252 97.0729 8.78127 96.6562 8.84377C96.4479 8.8646 96.0729 9.01043 95.5312 9.28127C94.9896 9.53127 94.6562 9.72918 94.5312 9.87502C94.4271 9.97918 94.375 10.4688 94.375 11.3438C94.375 12.0729 94.4375 13.1459 94.5625 14.5625C94.7083 15.9792 94.8021 16.9063 94.8437 17.3438C94.9062 18.4688 95.0312 19.6667 95.2187 20.9375C95.3646 21.8959 95.3542 22.6875 95.1875 23.3125C95.0208 23.9375 94.7292 24.25 94.3125 24.25ZM83.7812 7.15626C83.7812 7.34376 83.7187 7.4896 83.5937 7.59376C83.4687 7.69793 83.1979 7.85418 82.7812 8.06251C82.4479 8.22918 82.125 8.3646 81.8125 8.46876C81.5208 8.57293 81.1979 8.66668 80.8437 8.75001C80.5104 8.81251 80.2396 8.8646 80.0312 8.90626C79.8229 8.9271 79.4687 8.96876 78.9687 9.03126C78.4896 9.07293 78.1354 9.1146 77.9062 9.15626C77.3437 9.19793 77.0104 9.16668 76.9062 9.06251C76.8021 8.93751 76.7812 8.77085 76.8437 8.56251C76.9062 8.35418 77.0417 8.1771 77.25 8.03126C77.4583 7.8646 77.6562 7.81251 77.8437 7.87501C78.8229 7.87501 79.8021 7.76043 80.7812 7.53126C81.7604 7.3021 82.5104 6.9896 83.0312 6.59376C83.2187 6.51043 83.3854 6.53126 83.5312 6.65626C83.6979 6.76043 83.7812 6.9271 83.7812 7.15626ZM79.0312 11.8125C79.0312 11.5833 79.0833 11.4063 79.1875 11.2813C79.3125 11.1563 79.5312 11.0417 79.8437 10.9375C80.4062 10.7917 80.8333 10.6354 81.125 10.4688C81.4167 10.2813 81.7708 10.0104 82.1875 9.65626C82.4792 9.3646 82.75 9.29168 83 9.43751C83.2708 9.58335 83.3333 9.83335 83.1875 10.1875C83.1042 10.4167 82.9271 10.5938 82.6562 10.7188C82.4062 10.8438 82.2187 10.9583 82.0937 11.0625C81.5312 11.5 80.8229 11.875 79.9687 12.1875C79.6562 12.3125 79.4271 12.3542 79.2812 12.3125C79.1354 12.2708 79.0521 12.1042 79.0312 11.8125ZM82.9375 21.8438C82.5208 22.2188 82.0729 22.2708 81.5937 22C81.3229 21.8125 81.1146 21.8438 80.9687 22.0938C80.6146 22.5521 80.3229 22.6354 80.0937 22.3438C79.9062 22.1563 79.9167 21.5417 80.125 20.5C80.2292 19.9792 80.3229 19.0417 80.4062 17.6875C80.5104 16.3333 80.5937 15.4583 80.6562 15.0625C80.6771 14.8958 80.6667 14.8021 80.625 14.7813C80.6042 14.7604 80.5417 14.7813 80.4375 14.8438C80.3542 14.9063 80.2812 14.9479 80.2187 14.9688C79.9271 15.1563 79.6979 15.2188 79.5312 15.1563C79.3854 15.0729 79.3333 14.875 79.375 14.5625C79.3958 14.3125 79.4792 14.125 79.625 14C79.7708 13.8542 79.9687 13.7188 80.2187 13.5938C80.4896 13.4688 80.6875 13.3542 80.8125 13.25C81.125 13.0417 81.4167 12.8542 81.6875 12.6875C81.9167 12.5417 82.0625 12.4688 82.125 12.4688C82.1875 12.4479 82.2812 12.4792 82.4062 12.5625C82.5521 12.6667 82.6042 12.8125 82.5625 13C82.5417 13.1875 82.4167 13.5208 82.1875 14C82 14.4375 81.8437 14.9167 81.7187 15.4375C81.5937 15.9375 81.5625 16.2396 81.625 16.3438C81.6667 16.3854 81.6562 16.7188 81.5937 17.3438C81.5312 18.0104 81.5417 18.3542 81.625 18.375C81.6667 18.3958 81.7396 18.3542 81.8437 18.25C81.9479 18.0208 82.3125 17.8125 82.9375 17.625C83.5833 17.4167 84.0521 17.4583 84.3437 17.75C84.4896 17.875 84.5729 17.9792 84.5937 18.0625C84.6354 18.1458 84.6562 18.3333 84.6562 18.625C84.6771 18.9167 84.6771 19.125 84.6562 19.25C84.6354 19.375 84.5521 19.5833 84.4062 19.875C84.0104 20.7083 83.5208 21.3646 82.9375 21.8438ZM83.5625 18.8125C83.4583 18.7083 83.3542 18.6667 83.25 18.6875C83.1667 18.7083 83.0208 18.7917 82.8125 18.9375C82.4375 19.1875 82.1458 19.5104 81.9375 19.9063C81.75 20.2813 81.6979 20.6042 81.7812 20.875C81.9271 21.1875 82.25 21.0625 82.75 20.5C83.0833 20.125 83.3542 19.7083 83.5625 19.25C83.6458 19.0417 83.6458 18.8958 83.5625 18.8125ZM115.594 7.87502C115.76 7.87502 115.875 7.85419 115.937 7.81252C116.021 7.77085 116.135 7.66669 116.281 7.50002C116.427 7.29169 116.594 7.01044 116.781 6.65627C116.969 6.3021 117.104 5.97919 117.187 5.68752C117.292 5.39585 117.312 5.25002 117.25 5.25002C117.021 5.31252 116.625 5.58335 116.062 6.06252C115.5 6.52085 115.073 6.81252 114.781 6.93752C114.323 7.16669 113.99 7.39585 113.781 7.62502C113.573 7.83335 113.344 8.1771 113.094 8.65627C112.781 9.28127 112.542 9.66669 112.375 9.81252C112.229 9.93752 112.052 9.90627 111.844 9.71877C111.719 9.6146 111.677 9.4271 111.719 9.15627C111.781 8.8646 111.937 8.40627 112.187 7.78127C112.583 6.82294 113.01 5.57294 113.469 4.03127C113.573 3.6771 113.625 3.45835 113.625 3.37502C113.646 3.29169 113.625 3.21877 113.562 3.15627C113.5 3.07294 113.469 3.01044 113.469 2.96877C113.49 2.9271 113.552 2.84377 113.656 2.71877C113.906 2.4271 114.187 2.37502 114.5 2.56252C114.833 2.75002 114.937 3.03127 114.812 3.40627C114.812 3.4896 114.76 3.84377 114.656 4.46877C114.552 5.07294 114.51 5.43752 114.531 5.56252C114.448 5.64585 114.5 5.63544 114.687 5.53127C114.812 5.46877 115.104 5.29169 115.562 5.00002C116.417 4.50002 116.875 4.25002 116.937 4.25002C117.125 4.18752 117.354 4.08335 117.625 3.93752C117.937 3.77085 118.219 3.76044 118.469 3.90627C118.74 4.03127 118.875 4.2396 118.875 4.53127C118.854 5.03127 118.562 5.84377 118 6.96877C117.437 8.09377 116.948 8.83335 116.531 9.18752C115.969 9.64585 115.521 9.54169 115.187 8.87502C114.875 8.20835 115.01 7.87502 115.594 7.87502ZM102.156 6.43752C102.24 6.35418 102.312 6.31252 102.375 6.31252C102.458 6.31252 102.771 6.33335 103.312 6.37502C103.854 6.43752 104.25 6.53127 104.5 6.65627C104.75 6.78127 104.917 6.95835 105 7.18752C105.125 7.62502 105.01 7.83335 104.656 7.81252C103.677 7.72918 102.969 7.64585 102.531 7.56252C102.302 7.50002 102.135 7.34377 102.031 7.09377C101.948 6.84377 101.99 6.62502 102.156 6.43752ZM117.562 13.4063C117.562 13.5729 117.135 14.3125 116.281 15.625C115.844 16.2709 115.625 16.6667 115.625 16.8125C115.646 16.9584 115.958 17.2604 116.562 17.7188C117.167 18.1771 117.5 18.4479 117.562 18.5313C117.896 18.8438 118.375 19.2396 119 19.7188C119.625 20.1771 120.062 20.5 120.312 20.6875C120.396 20.7709 120.49 20.8646 120.594 20.9688C120.719 21.0521 120.792 21.1042 120.812 21.125C120.854 21.1459 120.917 21.1771 121 21.2188C121.083 21.2604 121.167 21.2917 121.25 21.3125C121.333 21.3334 121.448 21.3438 121.594 21.3438C121.76 21.3854 122.021 21.5 122.375 21.6875C122.75 21.8542 123.01 21.9479 123.156 21.9688C123.594 22.0938 123.885 22.3021 124.031 22.5938C124.177 22.8646 124.125 23.1563 123.875 23.4688C123.729 23.6146 123.562 23.6771 123.375 23.6563C123.208 23.6354 122.906 23.5209 122.469 23.3125C122.052 23.0834 121.625 22.8854 121.187 22.7188C120.75 22.5313 120.375 22.3542 120.062 22.1875C119.75 22.0209 119.385 21.7709 118.969 21.4375C118.885 21.375 118.708 21.2813 118.437 21.1563C118.187 21.0313 117.969 20.8438 117.781 20.5938C117.635 20.3854 117.323 20.1042 116.844 19.75C116.385 19.3959 116.104 19.1771 116 19.0938C115.875 18.9271 115.646 18.7188 115.312 18.4688C114.979 18.2188 114.771 18.0938 114.687 18.0938C114.583 18.0938 114.312 18.3229 113.875 18.7813C112.437 20.3229 111.437 20.8021 110.875 20.2188C110.75 20.0938 110.677 19.9375 110.656 19.75C110.635 19.5625 110.667 19.4167 110.75 19.3125C110.854 19.1875 110.969 19.1459 111.094 19.1875C111.219 19.2084 111.354 19.2084 111.5 19.1875C111.646 19.1459 111.958 18.8959 112.437 18.4375C112.937 17.9584 113.24 17.625 113.344 17.4375C113.406 17.3125 113.427 17.2292 113.406 17.1875C113.385 17.125 113.281 17.0209 113.094 16.875C112.698 16.5625 112.437 16.3334 112.312 16.1875C112.187 16.0209 112.125 15.8542 112.125 15.6875C112.125 15.375 112.25 15.2188 112.5 15.2188C112.75 15.2188 113.052 15.3646 113.406 15.6563C113.844 16.0104 114.125 16.1563 114.25 16.0938C114.354 16.0729 114.635 15.7396 115.094 15.0938C115.552 14.4479 115.99 13.7813 116.406 13.0938C116.448 13.0104 116.49 12.9063 116.531 12.7813C116.573 12.6354 116.594 12.5313 116.594 12.4688C116.594 12.3854 116.573 12.3334 116.531 12.3125C116.385 12.3125 116.094 12.5313 115.656 12.9688C114.865 13.7604 114.333 14.2396 114.062 14.4063C113.792 14.5521 113.542 14.5104 113.312 14.2813C113.125 14.1146 113.062 13.9584 113.125 13.8125C113.187 13.6459 113.385 13.4063 113.719 13.0938C114.01 12.8438 114.292 12.6146 114.562 12.4063C114.854 12.1979 115.156 11.9479 115.469 11.6563C116.323 10.8438 117.062 10.2604 117.687 9.90627C117.958 9.7396 118.187 9.77085 118.375 10C118.583 10.2084 118.625 10.4688 118.5 10.7813C118.187 12.0938 117.917 12.8646 117.687 13.0938C117.604 13.1979 117.562 13.3021 117.562 13.4063ZM104.25 11.7188C104.604 11.6771 104.833 11.8646 104.937 12.2813C105.042 12.6771 104.927 12.9271 104.594 13.0313C104.49 13.0938 104.198 13.3229 103.719 13.7188C103.26 14.0938 102.854 14.4063 102.5 14.6563C102.146 14.8854 101.823 15.0521 101.531 15.1563C101.24 15.2813 101.021 15.3229 100.875 15.2813C100.75 15.2396 100.635 15.0938 100.531 14.8438C100.406 14.5521 100.385 14.3334 100.469 14.1875C100.573 14.0417 100.812 13.9063 101.187 13.7813C101.833 13.5729 102.531 13.1042 103.281 12.375C103.76 11.9375 104.083 11.7188 104.25 11.7188ZM106.469 14.6563C106.635 14.4271 106.781 14.3854 106.906 14.5313C106.969 14.6354 106.979 14.7813 106.937 14.9688C106.896 15.1563 106.844 15.3125 106.781 15.4375C106.719 15.5417 106.635 15.6875 106.531 15.875C106.427 16.0417 106.365 16.1771 106.344 16.2813C106.24 16.5104 106.094 16.7604 105.906 17.0313C105.74 17.2813 105.604 17.5 105.5 17.6875C105.333 18.0209 105.135 18.3542 104.906 18.6875C104.698 19.0209 104.531 19.2813 104.406 19.4688C104.281 19.6354 104.073 19.9063 103.781 20.2813C103.49 20.6563 103.302 20.8959 103.219 21C103.198 21.0209 103.125 21.1146 103 21.2813C102.875 21.4271 102.75 21.5729 102.625 21.7188C102.521 21.8438 102.385 21.9688 102.219 22.0938C102.073 22.1979 101.937 22.2396 101.812 22.2188C101.687 22.1979 101.573 22.0938 101.469 21.9063C101.344 21.6771 101.302 21.4896 101.344 21.3438C101.385 21.1979 101.542 20.9792 101.812 20.6875C103.083 19.3125 104.635 17.3021 106.469 14.6563ZM133.5 8.87502C133.521 8.91669 133.531 8.94794 133.531 8.96877C133.531 9.05211 133.458 9.13544 133.312 9.21877C133.146 9.36461 132.844 9.86461 132.406 10.7188C131.969 11.5521 131.677 12.0417 131.531 12.1875C130.781 13.2292 130.167 14.1354 129.687 14.9063C129.229 15.6771 128.771 16.4063 128.312 17.0938C128.042 17.4896 127.906 17.7709 127.906 17.9375C127.906 18.0209 127.927 18.0938 127.969 18.1563C128.031 18.1979 128.062 18.25 128.062 18.3125C128.062 18.4375 127.927 18.6771 127.656 19.0313C127.385 19.3646 127.24 19.5625 127.219 19.625C127.073 19.8959 126.823 20.0313 126.469 20.0313C126.323 20.0313 126.187 19.9896 126.062 19.9063C125.979 19.8438 125.937 19.7604 125.937 19.6563C125.937 19.5938 125.937 19.5209 125.937 19.4375C125.958 19.2292 126.177 18.6979 126.594 17.8438C127.01 16.9896 127.312 16.4584 127.5 16.25C127.667 16.0209 128.094 15.3438 128.781 14.2188C129.49 13.0938 129.937 12.4375 130.125 12.25C130.292 12.0834 130.604 11.5521 131.062 10.6563C131.542 9.73961 131.781 9.15627 131.781 8.90627C131.76 8.65627 131.615 8.53127 131.344 8.53127C131.177 8.53127 130.885 8.61461 130.469 8.78127C130.073 8.94794 129.844 9.03127 129.781 9.03127C129.635 9.11461 129.271 9.25002 128.687 9.43752C128.125 9.62502 127.76 9.71877 127.594 9.71877C127.344 9.71877 127.219 9.57294 127.219 9.28127C127.219 9.05211 127.271 8.83336 127.375 8.62502C127.458 8.50002 127.615 8.37502 127.844 8.25002C128.094 8.10419 128.281 8.03127 128.406 8.03127L128.437 8.03127C129.458 7.82294 130.948 7.26044 132.906 6.34377C133.073 6.32294 133.208 6.26044 133.312 6.15627C133.437 6.03127 133.521 5.91669 133.562 5.81252C133.604 5.70836 133.646 5.55211 133.687 5.34377C133.75 5.15627 133.802 5.03127 133.844 4.96877C133.969 4.48961 134.437 3.65627 135.25 2.46877C135.354 2.21877 135.552 2.09377 135.844 2.09377C136.073 2.09377 136.25 2.18752 136.375 2.37502C136.542 2.58336 136.625 2.72919 136.625 2.81252C136.625 2.89586 136.49 3.09377 136.219 3.40627C136.01 3.63544 135.781 3.95836 135.531 4.37502C135.281 4.79169 135.156 5.08336 135.156 5.25002C135.156 5.33336 135.208 5.37502 135.312 5.37502C135.479 5.37502 135.844 5.23961 136.406 4.96877C136.719 4.84377 137.375 4.53127 138.375 4.03127C139.375 3.51044 140.24 3.13544 140.969 2.90627C141.094 2.86461 141.187 2.84377 141.25 2.84377C141.437 2.84377 141.615 2.90627 141.781 3.03127C141.948 3.13544 142.031 3.25003 142.031 3.37503C142.031 3.45836 141.99 3.54169 141.906 3.62502C141.76 3.89586 141.146 4.21877 140.062 4.59377C139.917 4.63544 139.729 4.70836 139.5 4.81252C139.292 4.91669 139.125 4.98961 139 5.03127C138.896 5.03127 138.812 5.08336 138.75 5.18752C138.583 5.35419 138.156 5.60419 137.469 5.93752C136.802 6.27086 136.115 6.54169 135.406 6.75002C134.969 6.89586 134.542 7.18752 134.125 7.62502C133.708 8.04169 133.5 8.41669 133.5 8.75002C133.5 8.77086 133.5 8.81252 133.5 8.87502ZM137.062 22.9375C136.854 22.4792 136.75 22.1146 136.75 21.8438C136.75 21.6771 136.792 21.5938 136.875 21.5938C136.958 21.5938 137.083 21.6979 137.25 21.9063C137.417 22.0938 137.531 22.2917 137.594 22.5C137.719 22.8542 137.854 23.0313 138 23.0313C138.187 23.0313 138.323 22.6771 138.406 21.9688C138.49 21.3229 138.531 20.5 138.531 19.5C138.531 19.4792 138.531 19.4479 138.531 19.4063C138.531 19.3438 138.531 19.3021 138.531 19.2813C138.531 18.9271 138.5 18.7188 138.437 18.6563C138.083 18.7396 137.49 18.9584 136.656 19.3125C135.844 19.6667 135.208 19.8542 134.75 19.875C134.479 19.875 134.302 19.9167 134.219 20C134.156 20.0417 134.104 20.3021 134.062 20.7813C134.042 21.2604 134.01 21.8125 133.969 22.4375C133.927 23.0417 133.896 23.4584 133.875 23.6875C133.833 23.9167 133.74 24.1042 133.594 24.25C133.448 24.3959 133.292 24.4688 133.125 24.4688C133 24.4688 132.885 24.4271 132.781 24.3438C132.552 24.1563 132.437 23.875 132.437 23.5C132.521 22.8542 132.562 22.5313 132.562 22.5313C132.646 22.1979 132.76 21.0521 132.906 19.0938C133.052 17.1354 133.167 15.8854 133.25 15.3438C133.333 14.9271 133.396 14.0209 133.437 12.625C133.479 11.2084 133.583 10.2917 133.75 9.87502C133.812 9.62502 134.062 9.50002 134.5 9.50002C134.792 9.50002 135 9.56252 135.125 9.68752C135.25 9.77086 135.312 9.87502 135.312 10C135.312 10.1459 135.229 10.3959 135.062 10.75C134.917 11.0834 134.844 11.3021 134.844 11.4063C134.844 11.4063 134.844 11.4167 134.844 11.4375C134.823 11.5209 134.812 11.5938 134.812 11.6563C134.812 11.8229 134.865 11.9063 134.969 11.9063C135.115 11.9063 135.406 11.6875 135.844 11.25C136.26 10.8542 136.583 10.5834 136.812 10.4375C137.062 10.2709 137.417 10.125 137.875 10C138.167 9.93752 138.406 9.90627 138.594 9.90627C138.865 9.90627 139.073 9.98961 139.219 10.1563C139.385 10.3021 139.552 10.5729 139.719 10.9688C139.844 11.2604 139.917 11.5209 139.937 11.75C139.958 11.9792 139.969 12.5729 139.969 13.5313L140 15.5625C140.333 15.7292 140.531 15.8438 140.594 15.9063C140.677 15.9688 140.719 16.0521 140.719 16.1563C140.719 16.3229 140.594 16.5938 140.344 16.9688C140.156 17.2604 140.031 17.4688 139.969 17.5938C139.927 17.7188 139.906 17.9167 139.906 18.1875C139.906 18.5209 139.885 18.8125 139.844 19.0625C139.823 19.2917 139.812 19.4479 139.812 19.5313C139.75 20.7604 139.667 21.9479 139.562 23.0938C139.562 23.5104 139.542 23.7813 139.5 23.9063C139.479 24.0104 139.417 24.1354 139.312 24.2813C139.125 24.5313 138.906 24.6563 138.656 24.6563C138.469 24.6563 138.302 24.5729 138.156 24.4063C138.073 24.3229 137.937 24.1875 137.75 24C137.5 23.7292 137.271 23.375 137.062 22.9375ZM138.531 13.3438C138.615 13.2396 138.656 13.0834 138.656 12.875C138.656 12.7917 138.646 12.6354 138.625 12.4063C138.583 11.9271 138.531 11.6146 138.469 11.4688C138.406 11.3021 138.302 11.2188 138.156 11.2188C137.948 11.2188 137.594 11.4167 137.094 11.8125C137.031 11.875 136.99 11.9167 136.969 11.9375C136.844 12.0834 136.594 12.3125 136.219 12.625C135.865 12.9167 135.625 13.125 135.5 13.25C135.396 13.3959 135.26 13.5 135.094 13.5625C134.865 13.6459 134.719 13.9063 134.656 14.3438C134.656 14.4479 134.656 14.5417 134.656 14.625C134.656 14.9375 134.781 15.0938 135.031 15.0938C135.365 15.0938 135.854 14.9271 136.5 14.5938C137.167 14.2604 137.698 13.9479 138.094 13.6563C138.323 13.5521 138.469 13.4479 138.531 13.3438ZM138.594 15.2188C138.552 15.0729 138.469 15 138.344 15C138.156 15 137.74 15.1979 137.094 15.5938C136.427 15.9896 135.937 16.2396 135.625 16.3438C134.875 16.5521 134.469 16.7813 134.406 17.0313C134.365 17.1771 134.344 17.4375 134.344 17.8125C134.344 18.25 134.417 18.4688 134.562 18.4688C135 18.4688 135.667 18.2917 136.562 17.9375C137.458 17.5625 138.125 17.2084 138.562 16.875C138.625 16.8334 138.656 16.5729 138.656 16.0938C138.656 15.6563 138.635 15.3646 138.594 15.2188ZM153.625 8.18753C153.625 8.29169 153.698 8.50003 153.844 8.81253C154.115 9.18753 154.073 9.45836 153.719 9.62503C153.344 9.77086 153.042 9.68753 152.812 9.37503C152.5 9.02086 152.229 8.45836 152 7.68753C151.771 6.89586 151.615 6.40628 151.531 6.21878C151.51 6.19794 151.417 5.88544 151.25 5.28128C151.083 4.67711 150.958 4.34378 150.875 4.28128C150.687 4.11461 150.573 3.72919 150.531 3.12503C150.49 2.52086 150.646 2.17711 151 2.09378C151.521 1.96878 151.875 2.25003 152.062 2.93753C152.146 3.22919 152.229 3.41669 152.312 3.50003C152.396 3.58336 152.458 3.55211 152.5 3.40628C152.562 3.26044 152.604 3.13544 152.625 3.03128C152.75 2.80211 152.969 2.59378 153.281 2.40628C153.615 2.19794 153.979 2.06253 154.375 2.00003C154.646 1.91669 155.052 1.76044 155.594 1.53128C156.135 1.30211 156.771 1.12503 157.5 1.00003C158.062 0.812528 158.562 0.729195 159 0.750028C159.458 0.770861 159.844 0.968778 160.156 1.34378C160.26 1.51044 160.312 1.88544 160.312 2.46878C160.333 2.76044 160.302 3.07294 160.219 3.40628C160.156 3.71878 160.01 4.15628 159.781 4.71878C159.573 5.26044 159.448 5.59378 159.406 5.71878C159.344 5.98961 159.156 6.37503 158.844 6.87503C158.531 7.37503 158.208 7.80211 157.875 8.15628C157.542 8.51044 157.333 8.71878 157.25 8.78128C157.167 8.84378 157.021 8.86461 156.812 8.84378C156.479 8.84378 156.281 8.77086 156.219 8.62503C156.156 8.45836 156.25 8.27086 156.5 8.06253C157.021 7.60419 157.229 7.36461 157.125 7.34378C157.042 7.32294 156.719 7.42711 156.156 7.65628C155.698 7.84378 155.24 7.97919 154.781 8.06253C154.344 8.14586 154.031 8.14586 153.844 8.06253C153.74 8.04169 153.677 8.04169 153.656 8.06253C153.635 8.06253 153.625 8.10419 153.625 8.18753ZM152.531 4.40628C152.531 4.71878 152.583 5.02086 152.687 5.31253C152.812 5.60419 152.896 5.89586 152.937 6.18753C153 6.41669 153.083 6.69794 153.187 7.03128C153.312 7.36461 153.396 7.55211 153.437 7.59378C153.604 7.51044 154.083 7.29169 154.875 6.93753C155.667 6.58336 156.26 6.29169 156.656 6.06253C157.052 5.81253 157.385 5.67711 157.656 5.65628C157.865 5.65628 158 5.61461 158.062 5.53128C158.146 5.44794 158.198 5.32294 158.219 5.15628C158.26 4.98961 158.312 4.86461 158.375 4.78128C158.417 4.63544 158.479 4.44794 158.562 4.21878C158.667 3.96878 158.75 3.76044 158.812 3.59378C158.896 3.40628 158.958 3.21878 159 3.03128C159.062 2.82294 159.094 2.64586 159.094 2.50003C159.094 2.33336 159.052 2.20836 158.969 2.12503C158.906 2.04169 158.823 2.01044 158.719 2.03128C158.615 2.03128 158.281 2.07294 157.719 2.15628C157.469 2.17711 157.187 2.25003 156.875 2.37503C156.583 2.47919 156.271 2.60419 155.937 2.75003C155.625 2.89586 155.406 2.98961 155.281 3.03128C155.24 3.05211 155.135 3.10419 154.969 3.18753C154.802 3.25003 154.687 3.30211 154.625 3.34378C154.562 3.36461 154.458 3.41669 154.312 3.50003C154.187 3.56253 154.094 3.62503 154.031 3.68753C153.99 3.72919 153.927 3.79169 153.844 3.87503C153.76 3.93753 153.698 4.02086 153.656 4.12503C153.615 4.20836 153.583 4.30211 153.562 4.40628C153.521 4.61461 153.448 4.73961 153.344 4.78128C153.26 4.80211 153.115 4.75003 152.906 4.62503L152.531 4.40628ZM154.437 6.31253C154.146 6.31253 153.937 6.15628 153.812 5.84378C153.708 5.73961 153.687 5.62503 153.75 5.50003C153.812 5.37503 153.885 5.28128 153.969 5.21878C154.052 5.15628 154.167 5.08336 154.312 5.00003C154.458 4.91669 154.552 4.85419 154.594 4.81253C154.656 4.75003 154.792 4.68753 155 4.62503C155.229 4.56253 155.365 4.51044 155.406 4.46878C155.49 4.40628 155.771 4.25003 156.25 4.00003C157.021 3.56253 157.531 3.45836 157.781 3.68753C157.948 3.81253 157.875 4.01044 157.562 4.28128C157.25 4.55211 156.823 4.84378 156.281 5.15628C155.74 5.46878 155.417 5.68753 155.312 5.81253C154.833 6.14586 154.542 6.31253 154.437 6.31253ZM159.344 8.31253C159.802 8.12503 160.521 7.84378 161.5 7.46878C162.479 7.09378 163.135 6.83336 163.469 6.68753C163.677 6.5417 163.917 6.53128 164.187 6.65628C164.479 6.76045 164.625 6.92711 164.625 7.15628C164.667 7.48961 164.542 7.76045 164.25 7.96878C163.979 8.15628 163.583 8.31253 163.062 8.43753C162.542 8.56253 162.271 8.63545 162.25 8.65628C162.167 8.67711 161.708 8.84378 160.875 9.15628C160.062 9.46878 159.594 9.61461 159.469 9.59378C158.948 9.73961 158.24 10.0313 157.344 10.4688C156.448 10.9063 155.781 11.1875 155.344 11.3125C155.323 11.3334 155.281 11.3542 155.219 11.375C155.156 11.3959 155.115 11.4167 155.094 11.4375C155.094 11.4375 155.062 11.4584 155 11.5C154.958 11.5209 154.937 11.5417 154.937 11.5625C154.937 11.5834 154.927 11.6146 154.906 11.6563C154.885 11.6979 154.875 11.75 154.875 11.8125C154.875 11.8542 154.875 11.9167 154.875 12C154.875 12.0625 154.885 12.1354 154.906 12.2188C154.885 12.4688 154.979 12.8021 155.187 13.2188C155.417 13.6354 155.531 13.8438 155.531 13.8438C155.531 13.9063 155.469 14.0313 155.344 14.2188L155.187 14.5L155.406 14.75C155.531 14.9167 155.594 15.0521 155.594 15.1563C155.594 15.2396 155.521 15.3854 155.375 15.5938C155.187 15.8646 155.073 16.1354 155.031 16.4063C155.01 16.6771 155.062 16.9063 155.187 17.0938L155.406 17.3438L155.219 17.6563C155.094 17.9063 155.021 18.3125 155 18.875C154.979 19.4167 154.948 19.8125 154.906 20.0625C154.844 20.6459 154.792 21.3125 154.75 22.0625C154.708 23.25 154.667 24.0209 154.625 24.375C154.583 24.7292 154.5 24.9688 154.375 25.0938C154 25.4896 153.625 25.4792 153.25 25.0625C152.875 24.6459 152.667 24.2292 152.625 23.8125C152.625 23.625 152.667 23.4896 152.75 23.4063C152.833 23.3021 152.937 23.2813 153.062 23.3438C153.146 23.3438 153.208 23.3438 153.25 23.3438C153.312 23.3438 153.354 23.2917 153.375 23.1875C153.396 23.0625 153.406 22.9584 153.406 22.875C153.406 22.7709 153.406 22.625 153.406 22.4375C153.427 22.2292 153.437 22.0521 153.437 21.9063C153.542 20.9063 153.573 20.2604 153.531 19.9688C153.51 19.8646 153.198 20.0729 152.594 20.5938C152.323 20.8438 151.833 21.3021 151.125 21.9688C150.875 22.2188 150.573 22.4688 150.219 22.7188C149.885 22.9688 149.687 23.125 149.625 23.1875C149.542 23.2917 149.365 23.3438 149.094 23.3438C148.844 23.3438 148.667 23.3021 148.562 23.2188C148.479 23.1146 148.437 22.9271 148.437 22.6563C148.437 22.4479 148.458 22.3229 148.5 22.2813C148.542 22.2188 148.656 22.125 148.844 22C148.99 21.8959 149.125 21.8229 149.25 21.7813C149.375 21.7396 149.479 21.6875 149.562 21.625C149.646 21.5625 149.771 21.4584 149.937 21.3125C150.021 21.2292 150.167 21.1042 150.375 20.9375C150.604 20.75 150.75 20.625 150.812 20.5625C151.042 20.375 151.167 20.2396 151.187 20.1563C151.208 20.0521 151.146 19.9271 151 19.7813C150.854 19.6354 150.76 19.5313 150.719 19.4688C150.552 19.6563 150.531 18.5209 150.656 16.0625C150.677 15.5417 150.698 15.2813 150.719 15.2813C150.781 15.0938 150.823 14.7188 150.844 14.1563C150.865 13.5938 150.844 13.2917 150.781 13.25C150.49 13.25 150.042 13.4063 149.437 13.7188C148.854 14.0104 148.354 14.1979 147.937 14.2813C147.625 14.3646 147.406 14.3854 147.281 14.3438C147.177 14.2813 147.094 14.1146 147.031 13.8438C146.99 13.5729 147 13.375 147.062 13.25C147.125 13.1042 147.281 12.9896 147.531 12.9063C149.698 12.1354 151.469 11.4375 152.844 10.8125C153.365 10.5417 154 10.2813 154.75 10.0313C155.521 9.78128 156.198 9.51044 156.781 9.21878C158.031 8.69794 158.885 8.39586 159.344 8.31253ZM152.437 13.6875C152.5 13.6667 152.656 13.6459 152.906 13.625C153.156 13.5834 153.323 13.5209 153.406 13.4375C153.615 13.1875 153.615 12.875 153.406 12.5C153.24 12.1667 153 12.1354 152.687 12.4063C152.583 12.4896 152.51 12.7188 152.469 13.0938L152.437 13.6875ZM153.594 15.0938C153.552 14.6563 153.146 14.8125 152.375 15.5625C151.958 15.9584 151.802 16.3334 151.906 16.6875C152.01 16.8125 152.208 16.7396 152.5 16.4688C152.583 16.3438 152.729 16.2188 152.937 16.0938C153.167 15.9688 153.344 15.8334 153.469 15.6875C153.594 15.5417 153.635 15.3438 153.594 15.0938ZM153.625 17.6875C153.604 17.5625 153.562 17.4896 153.5 17.4688C153.458 17.4271 153.417 17.4271 153.375 17.4688C153.333 17.4896 153.271 17.5417 153.187 17.625C153.125 17.6667 153.073 17.6979 153.031 17.7188C153.01 17.7396 152.969 17.7709 152.906 17.8125C152.865 17.8334 152.833 17.8438 152.812 17.8438C152.708 17.8854 152.583 17.8854 152.437 17.8438C152.312 17.7813 152.219 17.7292 152.156 17.6875C152.094 17.6459 152.042 17.6667 152 17.75C151.958 17.8125 151.99 17.9896 152.094 18.2813C152.135 18.4063 152.156 18.5521 152.156 18.7188C152.156 18.8646 152.156 18.9896 152.156 19.0938C152.156 19.1771 152.167 19.2396 152.187 19.2813C152.208 19.3229 152.26 19.3229 152.344 19.2813C152.448 19.2188 152.594 19.0938 152.781 18.9063C153.344 18.3646 153.625 17.9584 153.625 17.6875ZM163.094 12.9063C162.885 12.9271 162.437 13.1771 161.75 13.6563C161.062 14.1354 160.635 14.3542 160.469 14.3125C160.281 14.3125 160.115 14.25 159.969 14.125C159.844 13.9792 159.781 13.8229 159.781 13.6563C159.885 13.3438 160.083 13.0729 160.375 12.8438C160.687 12.6146 161.083 12.3854 161.562 12.1563C162.062 11.9271 162.406 11.75 162.594 11.625C163.219 11.25 163.729 11.0313 164.125 10.9688C164.354 10.9271 164.583 11.0521 164.812 11.3438C164.875 11.4479 164.906 11.5417 164.906 11.625C164.906 11.7084 164.865 11.9271 164.781 12.2813C164.594 13.1979 164.135 14.4688 163.406 16.0938C163.323 16.3021 163.271 16.4688 163.25 16.5938C163.229 16.7188 163.25 16.8229 163.312 16.9063C163.375 16.9688 163.437 17.0209 163.5 17.0625C163.583 17.1042 163.687 17.1563 163.812 17.2188C163.958 17.2813 164.073 17.3542 164.156 17.4375C164.385 17.625 165.021 17.9896 166.062 18.5313C167.104 19.0521 167.677 19.3646 167.781 19.4688C167.99 19.5938 168.24 19.6875 168.531 19.75C168.969 19.8334 169.302 19.9792 169.531 20.1875C169.781 20.3959 169.885 20.6459 169.844 20.9375C169.781 21.4167 169.521 21.6563 169.062 21.6563C168.854 21.6563 168.687 21.6354 168.562 21.5938C168.437 21.5313 168.094 21.3334 167.531 21C167.198 20.7917 166.698 20.5104 166.031 20.1563C165.385 19.8021 164.812 19.4792 164.312 19.1875C163.833 18.8959 163.385 18.5938 162.969 18.2813C162.615 18.0313 162.354 18.0209 162.187 18.25C161.729 18.9167 161.104 19.4584 160.312 19.875C159.854 20.1042 159.542 20.2188 159.375 20.2188C159.208 20.1979 158.99 20.0521 158.719 19.7813C158.51 19.5729 158.396 19.4271 158.375 19.3438C158.354 19.2396 158.417 19.1042 158.562 18.9375L158.781 18.6875L159.062 18.8438C159.25 18.9479 159.427 18.9584 159.594 18.875C159.781 18.7709 160.062 18.5417 160.437 18.1875C160.812 17.8125 161 17.5625 161 17.4375C161.021 17.2917 160.865 17.1354 160.531 16.9688C159.927 16.6771 159.615 16.3646 159.594 16.0313C159.594 15.6771 159.885 15.4792 160.469 15.4375C160.677 15.4167 160.823 15.4167 160.906 15.4375C161.01 15.4584 161.146 15.5417 161.312 15.6875C161.604 15.9167 161.802 16.0104 161.906 15.9688C162.031 15.9271 162.156 15.7084 162.281 15.3125C162.302 15.2084 162.406 14.9584 162.594 14.5625C162.781 14.1667 162.937 13.8021 163.062 13.4688C163.187 13.1354 163.198 12.9479 163.094 12.9063ZM189.5 9.59378C189.417 8.84378 189.625 7.89587 190.125 6.75003C190.646 5.6042 190.937 4.8542 191 4.50003C191 4.25003 190.937 4.09378 190.812 4.03128C190.708 3.94795 190.469 3.9167 190.094 3.93753C189.76 4.02087 189.5 3.9792 189.312 3.81253C189.125 3.64587 189.031 3.42712 189.031 3.15628C189.031 3.09378 189.031 3.05212 189.031 3.03128C189.052 2.98962 189.062 2.95837 189.062 2.93753C189.083 2.9167 189.115 2.89587 189.156 2.87503C189.198 2.83337 189.229 2.80212 189.25 2.78128C189.292 2.76045 189.365 2.7292 189.469 2.68753C189.573 2.62503 189.667 2.57295 189.75 2.53128C190.062 2.34378 190.427 2.34378 190.844 2.53128C191.281 2.71878 191.646 2.9792 191.937 3.31253C192.229 3.64587 192.354 3.9167 192.312 4.12503C192.333 4.37503 192.292 4.67712 192.187 5.03128C192.104 5.36462 191.927 5.83337 191.656 6.43753C191.385 7.0417 191.24 7.37503 191.219 7.43753C191.115 7.77087 191.01 7.98962 190.906 8.09378C190.719 8.34378 190.698 8.5417 190.844 8.68753C190.99 8.81253 191.271 8.86462 191.687 8.84378C192.562 8.69795 193.156 9.2292 193.469 10.4375C193.51 10.6459 193.604 10.75 193.75 10.75C193.917 10.75 194.24 10.6355 194.719 10.4063C194.948 10.3021 195.167 10.2188 195.375 10.1563C195.583 10.073 195.74 10.0105 195.844 9.96878C195.969 9.90628 196.115 9.78128 196.281 9.59378C196.594 9.32295 196.896 9.25003 197.187 9.37503C197.5 9.50003 197.656 9.76045 197.656 10.1563C197.656 10.4896 197.573 10.7188 197.406 10.8438C197.26 10.948 196.875 11.0938 196.25 11.2813C195.833 11.3855 195.542 11.4792 195.375 11.5625C195.208 11.625 195.042 11.7188 194.875 11.8438C194.708 11.948 194.521 12.0417 194.312 12.125C193.937 12.3125 193.708 12.4792 193.625 12.625C193.542 12.75 193.49 13.1042 193.469 13.6875C193.448 14.0834 193.385 14.5313 193.281 15.0313C193.198 15.5313 193.156 15.9688 193.156 16.3438C193.156 17.0313 193.01 17.8334 192.719 18.75C192.448 19.6459 192.177 20.2292 191.906 20.5C191.656 20.7084 191.062 20.823 190.125 20.8438C189.937 20.8438 189.802 20.823 189.719 20.7813C189.635 20.7396 189.49 20.6146 189.281 20.4063C188.802 19.9896 188.604 19.5625 188.687 19.125C188.792 18.8334 189.021 18.8125 189.375 19.0625C189.437 19.1042 189.51 19.1979 189.594 19.3438C189.677 19.4688 189.771 19.5625 189.875 19.625C189.979 19.6667 190.115 19.6771 190.281 19.6563C190.656 19.5938 190.937 19.4271 191.125 19.1563C191.312 18.8021 191.49 18.1667 191.656 17.25C191.844 16.3334 191.958 15.5209 192 14.8125C192.125 13.9375 192.125 13.4375 192 13.3125C191.937 13.25 191.302 13.5313 190.094 14.1563C188.781 14.7188 187.979 15.0625 187.687 15.1875C187.583 15.1875 187.437 15.0834 187.25 14.875C187.083 14.6459 187 14.4688 187 14.3438C187 14.0938 187.198 13.8438 187.594 13.5938C188.01 13.3229 188.521 13.1042 189.125 12.9375C189.458 12.8542 189.729 12.7709 189.937 12.6875C190.146 12.5834 190.375 12.4688 190.625 12.3438C190.875 12.198 191.104 12.073 191.312 11.9688C191.687 11.8021 191.917 11.6667 192 11.5625C192.104 11.4584 192.156 11.3021 192.156 11.0938C192.156 10.8438 192.083 10.6667 191.937 10.5625C191.792 10.4584 191.469 10.3646 190.969 10.2813C190.156 10.1355 189.667 9.90628 189.5 9.59378ZM172.781 14.4375C172.698 14.3334 172.823 14.1667 173.156 13.9375C173.51 13.7084 173.75 13.5729 173.875 13.5313C173.958 13.4896 174.125 13.3959 174.375 13.25C174.646 13.1042 174.833 13.0104 174.937 12.9688L175.344 12.8438L175.344 11.5938C175.344 9.88545 175.396 8.96878 175.5 8.84378C175.75 8.57295 176.052 8.61461 176.406 8.96878L176.687 9.25003L176.687 10.3438C176.687 11.2813 176.75 11.7604 176.875 11.7813C176.937 11.7813 177.156 11.6146 177.531 11.2813C177.677 11.1354 177.844 11 178.031 10.875C178.219 10.7292 178.365 10.5938 178.469 10.4688C178.594 10.3438 178.698 10.1563 178.781 9.90628C178.885 9.59378 178.99 9.39586 179.094 9.31253C179.198 9.2292 179.385 9.20836 179.656 9.25003C179.844 9.2917 180.031 9.2292 180.219 9.06253C180.781 8.5417 181.156 8.28128 181.344 8.28128C181.385 8.28128 181.458 8.26045 181.562 8.21878C181.667 8.15628 181.75 8.11462 181.812 8.09378C181.896 8.05212 181.979 8.0417 182.062 8.06253C182.146 8.06253 182.208 8.1042 182.25 8.18753C182.375 8.4167 182.229 8.6667 181.812 8.93753C181.5 9.14587 181.167 9.44795 180.812 9.84378C180.458 10.2188 180.229 10.5313 180.125 10.7813C179.979 11.0938 179.833 11.6042 179.687 12.3125C179.542 13.0209 179.5 13.4271 179.562 13.5313C179.583 13.5729 179.698 13.5625 179.906 13.5C180.115 13.4375 180.25 13.4584 180.312 13.5625C180.417 13.6875 180.448 13.8229 180.406 13.9688C180.365 14.0938 180.25 14.3021 180.062 14.5938C179.5 15.3229 179.083 16.2709 178.812 17.4375C178.542 18.6042 178.208 19.5521 177.812 20.2813C177.792 20.3229 177.76 20.3854 177.719 20.4688C177.51 20.9479 177.344 21.3125 177.219 21.5625C177.094 21.8125 176.917 22.125 176.687 22.5C176.458 22.875 176.219 23.1667 175.969 23.375C175.74 23.5625 175.5 23.6875 175.25 23.75C175 23.7709 174.792 23.6875 174.625 23.5C174.312 23.1875 174.24 22.875 174.406 22.5625C174.51 22.3959 174.656 22.3542 174.844 22.4375C174.99 22.4792 175.115 22.4584 175.219 22.375C175.344 22.2917 175.427 22.2084 175.469 22.125C175.531 22.0417 175.604 21.9167 175.687 21.75C175.812 21.4584 176.021 21.0313 176.312 20.4688C176.604 19.9063 176.844 19.3959 177.031 18.9375C177.219 18.4584 177.365 17.9688 177.469 17.4688C177.531 17.1354 177.542 16.9479 177.5 16.9063C177.479 16.8646 177.344 16.8229 177.094 16.7813C176.74 16.6979 176.406 16.4792 176.094 16.125C175.781 15.7709 175.646 15.3646 175.687 14.9063C175.687 14.5729 175.656 14.3854 175.594 14.3438C175.531 14.2813 175.365 14.3125 175.094 14.4375C174.323 14.7709 173.823 14.9584 173.594 15C173.385 15.0417 173.187 14.9896 173 14.8438C172.854 14.7188 172.781 14.5834 172.781 14.4375ZM178.281 12.625C178.281 12.4584 178.25 12.375 178.187 12.375C178.146 12.375 178.042 12.4479 177.875 12.5938C177.833 12.6354 177.677 12.7604 177.406 12.9688C177.135 13.1771 176.969 13.375 176.906 13.5625C176.844 13.75 176.854 14.0209 176.937 14.375C176.979 14.6667 177.021 14.8542 177.062 14.9375C177.104 15.0209 177.177 15.0938 177.281 15.1563C177.656 15.3438 177.885 15.2604 177.969 14.9063C178.177 13.7396 178.281 12.9792 178.281 12.625ZM215.375 11.5313C215.812 11.5313 216.031 11.7709 216.031 12.25C216.031 12.4584 215.979 12.625 215.875 12.75C215.771 12.8542 215.635 12.9063 215.469 12.9063C215.135 12.9271 214.719 13.1459 214.219 13.5625C213.74 13.9584 213.417 14.198 213.25 14.2813C213.021 14.448 212.781 14.6355 212.531 14.8438C212.302 15.0313 212.073 15.2084 211.844 15.375C211.615 15.5209 211.292 15.698 210.875 15.9063C210.583 16.0313 210.396 16.0625 210.312 16C210.229 15.9375 210.115 15.8125 209.969 15.625C209.844 15.4375 209.729 15.3125 209.625 15.25C209.375 15.1875 209.167 14.948 209 14.5313C208.854 14.1146 208.719 13.6042 208.594 13C208.469 12.3959 208.365 11.9896 208.281 11.7813C208.177 11.5313 208.042 11.1875 207.875 10.75C207.667 10.1459 207.5 9.67712 207.375 9.34379C207.271 9.01045 207.198 8.73962 207.156 8.53129C207.135 8.32295 207.146 8.18754 207.187 8.12504C207.229 8.0417 207.312 8.00004 207.437 8.00004C207.562 8.02087 207.635 7.94795 207.656 7.78129C207.698 7.59379 207.729 7.44795 207.75 7.34379C207.771 7.21879 207.896 7.2292 208.125 7.37504C208.333 7.64587 208.531 8.18754 208.719 9.00004C208.906 9.81254 209.073 10.3542 209.219 10.625C209.24 10.7292 209.281 10.8125 209.344 10.875C209.406 10.9167 209.458 10.948 209.5 10.9688C209.562 10.9688 209.656 10.9792 209.781 11C209.927 11.0209 210.031 11.0313 210.094 11.0313L210.094 12.0625C210.115 12.7084 210.229 13.5313 210.437 14.5313C210.896 14.2605 211.521 13.7188 212.312 12.9063C213.125 12.073 213.698 11.3646 214.031 10.7813C214.906 9.51045 215.437 8.58337 215.625 8.00004C215.562 7.87504 215.448 7.80212 215.281 7.78129C215.135 7.76045 214.969 7.78129 214.781 7.84379C214.615 7.88545 214.417 7.94795 214.187 8.03129C213.979 8.09379 213.812 8.12504 213.687 8.12504C213.604 8.14587 213.427 8.19795 213.156 8.28129C212.906 8.36462 212.75 8.4167 212.687 8.43754C212.625 8.45837 212.49 8.51045 212.281 8.59379C212.094 8.65629 211.958 8.70837 211.875 8.75004C211.792 8.7917 211.667 8.8542 211.5 8.93754C211.354 9.02087 211.229 9.1042 211.125 9.18754C211.021 9.27087 210.896 9.37504 210.75 9.50004C210.625 9.6042 210.49 9.7292 210.344 9.87504L209.875 10.375C209.562 10.0834 209.448 9.70837 209.531 9.25004C209.615 8.7917 209.854 8.4792 210.25 8.31254C210.687 7.9792 211.104 7.73962 211.5 7.59379C211.896 7.42712 212.74 7.15629 214.031 6.78129C214.323 6.69795 214.531 6.63545 214.656 6.59379C214.802 6.55212 215.021 6.50004 215.312 6.43754C215.604 6.37504 215.823 6.36462 215.969 6.40629C216.135 6.42712 216.302 6.4792 216.469 6.56254C216.656 6.62504 216.771 6.76045 216.812 6.96879C216.875 7.17712 216.885 7.43754 216.844 7.75004C216.823 8.27087 216.531 8.9792 215.969 9.87504C215.406 10.7709 215.094 11.2917 215.031 11.4375C215.031 11.5 215.146 11.5313 215.375 11.5313ZM206.969 21.875C206.969 21.7292 207.021 21.5834 207.125 21.4375C207.25 21.2917 207.542 21.0209 208 20.625C209 19.7292 209.698 18.9271 210.094 18.2188C210.427 17.6355 210.771 17.1042 211.125 16.625C211.5 16.1459 211.76 15.8542 211.906 15.75C212.094 15.6459 212.281 15.625 212.469 15.6875C212.677 15.75 212.781 15.8542 212.781 16C212.573 16.3542 212.302 16.823 211.969 17.4063C211.656 17.9688 211.406 18.3959 211.219 18.6875C211.052 18.9792 210.792 19.3542 210.437 19.8125C210.104 20.25 209.719 20.698 209.281 21.1563C209.135 21.2813 208.948 21.4792 208.719 21.75C208.49 22.0209 208.281 22.2292 208.094 22.375C207.927 22.5 207.698 22.573 207.406 22.5938C207.302 22.573 207.198 22.4896 207.094 22.3438C207.01 22.1771 206.969 22.0209 206.969 21.875ZM222.875 21.8125C223.271 21.9792 223.49 22.3542 223.531 22.9375C223.594 23.5209 223.427 23.8959 223.031 24.0625C222.698 24.2084 222.448 24.0625 222.281 23.625C222.177 23.3334 221.99 23.0417 221.719 22.75C221.448 22.4375 221.115 22.1042 220.719 21.75C220.323 21.375 220.031 21.0938 219.844 20.9063C219.677 20.698 219.323 20.3646 218.781 19.9063C218.26 19.448 217.917 19.073 217.75 18.7813C217.625 18.3438 217.604 18.0625 217.687 17.9375C217.771 17.7917 218.01 17.7917 218.406 17.9375C218.615 17.9792 218.99 18.2709 219.531 18.8125C220.094 19.3334 220.448 19.6355 220.594 19.7188C220.802 19.8855 221.146 20.2188 221.625 20.7188C222.104 21.2188 222.521 21.5834 222.875 21.8125ZM233.281 8.87504C233.302 8.91671 233.312 8.94796 233.312 8.96879C233.312 9.05212 233.24 9.13546 233.094 9.21879C232.927 9.36462 232.625 9.86462 232.187 10.7188C231.75 11.5521 231.458 12.0417 231.312 12.1875C230.562 13.2292 229.948 14.1355 229.469 14.9063C229.01 15.6771 228.552 16.4063 228.094 17.0938C227.823 17.4896 227.687 17.7709 227.687 17.9375C227.687 18.0209 227.708 18.0938 227.75 18.1563C227.812 18.198 227.844 18.25 227.844 18.3125C227.844 18.4375 227.708 18.6771 227.437 19.0313C227.167 19.3646 227.021 19.5625 227 19.625C226.854 19.8959 226.604 20.0313 226.25 20.0313C226.104 20.0313 225.969 19.9896 225.844 19.9063C225.76 19.8438 225.719 19.7605 225.719 19.6563C225.719 19.5938 225.719 19.5209 225.719 19.4375C225.74 19.2292 225.958 18.698 226.375 17.8438C226.792 16.9896 227.094 16.4584 227.281 16.25C227.448 16.0209 227.875 15.3438 228.562 14.2188C229.271 13.0938 229.719 12.4375 229.906 12.25C230.073 12.0834 230.385 11.5521 230.844 10.6563C231.323 9.73962 231.562 9.15629 231.562 8.90629C231.542 8.65629 231.396 8.53129 231.125 8.53129C230.958 8.53129 230.667 8.61462 230.25 8.78129C229.854 8.94796 229.625 9.03129 229.562 9.03129C229.417 9.11462 229.052 9.25004 228.469 9.43754C227.906 9.62504 227.542 9.71879 227.375 9.71879C227.125 9.71879 227 9.57296 227 9.28129C227 9.05212 227.052 8.83337 227.156 8.62504C227.24 8.50004 227.396 8.37504 227.625 8.25004C227.875 8.10421 228.062 8.03129 228.187 8.03129L228.219 8.03129C229.24 7.82296 230.729 7.26046 232.687 6.34379C232.854 6.32296 232.99 6.26046 233.094 6.15629C233.219 6.03129 233.302 5.91671 233.344 5.81254C233.385 5.70837 233.427 5.55212 233.469 5.34379C233.531 5.15629 233.583 5.03129 233.625 4.96879C233.75 4.48962 234.219 3.65629 235.031 2.46879C235.135 2.21879 235.333 2.09379 235.625 2.09379C235.854 2.09379 236.031 2.18754 236.156 2.37504C236.323 2.58337 236.406 2.72921 236.406 2.81254C236.406 2.89587 236.271 3.09379 236 3.40629C235.792 3.63546 235.562 3.95837 235.312 4.37504C235.062 4.79171 234.937 5.08337 234.937 5.25004C234.937 5.33337 234.99 5.37504 235.094 5.37504C235.26 5.37504 235.625 5.23962 236.187 4.96879C236.5 4.84379 237.156 4.53129 238.156 4.03129C239.156 3.51046 240.021 3.13546 240.75 2.90629C240.875 2.86463 240.969 2.84379 241.031 2.84379C241.219 2.84379 241.396 2.90629 241.562 3.03129C241.729 3.13546 241.812 3.25004 241.812 3.37504C241.812 3.45838 241.771 3.54171 241.687 3.62504C241.542 3.89588 240.927 4.21879 239.844 4.59379C239.698 4.63546 239.51 4.70838 239.281 4.81254C239.073 4.91671 238.906 4.98963 238.781 5.03129C238.677 5.03129 238.594 5.08338 238.531 5.18754C238.365 5.35421 237.937 5.60421 237.25 5.93754C236.583 6.27087 235.896 6.54171 235.187 6.75004C234.75 6.89587 234.323 7.18754 233.906 7.62504C233.49 8.04171 233.281 8.41671 233.281 8.75004C233.281 8.77087 233.281 8.81254 233.281 8.87504ZM236.844 22.9375C236.635 22.4792 236.531 22.1146 236.531 21.8438C236.531 21.6771 236.573 21.5938 236.656 21.5938C236.74 21.5938 236.865 21.698 237.031 21.9063C237.198 22.0938 237.312 22.2917 237.375 22.5C237.5 22.8542 237.635 23.0313 237.781 23.0313C237.969 23.0313 238.104 22.6771 238.187 21.9688C238.271 21.323 238.312 20.5 238.312 19.5C238.312 19.4792 238.312 19.448 238.312 19.4063C238.312 19.3438 238.312 19.3021 238.312 19.2813C238.312 18.9271 238.281 18.7188 238.219 18.6563C237.865 18.7396 237.271 18.9584 236.437 19.3125C235.625 19.6667 234.99 19.8542 234.531 19.875C234.26 19.875 234.083 19.9167 234 20C233.937 20.0417 233.885 20.3021 233.844 20.7813C233.823 21.2605 233.792 21.8125 233.75 22.4375C233.708 23.0417 233.677 23.4584 233.656 23.6875C233.615 23.9167 233.521 24.1042 233.375 24.25C233.229 24.3959 233.073 24.4688 232.906 24.4688C232.781 24.4688 232.667 24.4271 232.562 24.3438C232.333 24.1563 232.219 23.875 232.219 23.5C232.302 22.8542 232.344 22.5313 232.344 22.5313C232.427 22.198 232.542 21.0521 232.687 19.0938C232.833 17.1355 232.948 15.8855 233.031 15.3438C233.115 14.9271 233.177 14.0209 233.219 12.625C233.26 11.2084 233.365 10.2917 233.531 9.87504C233.594 9.62504 233.844 9.50004 234.281 9.50004C234.573 9.50004 234.781 9.56254 234.906 9.68754C235.031 9.77087 235.094 9.87504 235.094 10C235.094 10.1459 235.01 10.3959 234.844 10.75C234.698 11.0834 234.625 11.3021 234.625 11.4063C234.625 11.4063 234.625 11.4167 234.625 11.4375C234.604 11.5209 234.594 11.5938 234.594 11.6563C234.594 11.823 234.646 11.9063 234.75 11.9063C234.896 11.9063 235.187 11.6875 235.625 11.25C236.042 10.8542 236.365 10.5834 236.594 10.4375C236.844 10.2709 237.198 10.125 237.656 10C237.948 9.93754 238.187 9.90629 238.375 9.90629C238.646 9.90629 238.854 9.98963 239 10.1563C239.167 10.3021 239.333 10.573 239.5 10.9688C239.625 11.2605 239.698 11.5209 239.719 11.75C239.74 11.9792 239.75 12.573 239.75 13.5313L239.781 15.5625C240.115 15.7292 240.312 15.8438 240.375 15.9063C240.458 15.9688 240.5 16.0521 240.5 16.1563C240.5 16.323 240.375 16.5938 240.125 16.9688C239.937 17.2605 239.812 17.4688 239.75 17.5938C239.708 17.7188 239.687 17.9167 239.687 18.1875C239.687 18.5209 239.667 18.8125 239.625 19.0625C239.604 19.2917 239.594 19.448 239.594 19.5313C239.531 20.7605 239.448 21.948 239.344 23.0938C239.344 23.5105 239.323 23.7813 239.281 23.9063C239.26 24.0105 239.198 24.1355 239.094 24.2813C238.906 24.5313 238.687 24.6563 238.437 24.6563C238.25 24.6563 238.083 24.573 237.937 24.4063C237.854 24.323 237.719 24.1875 237.531 24C237.281 23.7292 237.052 23.375 236.844 22.9375ZM238.312 13.3438C238.396 13.2396 238.437 13.0834 238.437 12.875C238.437 12.7917 238.427 12.6355 238.406 12.4063C238.365 11.9271 238.312 11.6146 238.25 11.4688C238.187 11.3021 238.083 11.2188 237.937 11.2188C237.729 11.2188 237.375 11.4167 236.875 11.8125C236.812 11.875 236.771 11.9167 236.75 11.9375C236.625 12.0834 236.375 12.3125 236 12.625C235.646 12.9167 235.406 13.125 235.281 13.25C235.177 13.3959 235.042 13.5 234.875 13.5625C234.646 13.6459 234.5 13.9063 234.437 14.3438C234.437 14.448 234.437 14.5417 234.437 14.625C234.437 14.9375 234.562 15.0938 234.812 15.0938C235.146 15.0938 235.635 14.9271 236.281 14.5938C236.948 14.2605 237.479 13.948 237.875 13.6563C238.104 13.5521 238.25 13.448 238.312 13.3438ZM238.375 15.2188C238.333 15.073 238.25 15 238.125 15C237.937 15 237.521 15.198 236.875 15.5938C236.208 15.9896 235.719 16.2396 235.406 16.3438C234.656 16.5521 234.25 16.7813 234.187 17.0313C234.146 17.1771 234.125 17.4375 234.125 17.8125C234.125 18.25 234.198 18.4688 234.344 18.4688C234.781 18.4688 235.448 18.2917 236.344 17.9375C237.24 17.5625 237.906 17.2084 238.344 16.875C238.406 16.8334 238.437 16.573 238.437 16.0938C238.437 15.6563 238.417 15.3646 238.375 15.2188ZM248.875 9.43754C248.833 9.10421 248.917 8.72921 249.125 8.31254C249.354 7.89588 249.552 7.66671 249.719 7.62504C249.823 7.62504 249.927 7.79171 250.031 8.12504C250.156 8.45838 250.219 8.76046 250.219 9.03129C250.219 9.34379 250.302 9.85421 250.469 10.5625C250.656 11.2709 250.781 11.6459 250.844 11.6875C251.031 11.5834 251.354 11.323 251.812 10.9063C252.292 10.4688 252.635 10.1875 252.844 10.0625C253.344 9.68754 253.594 9.41671 253.594 9.25004C253.615 9.10421 253.594 9.01046 253.531 8.96879C253.49 8.90629 253.406 8.90629 253.281 8.96879C252.906 9.15629 252.458 9.52088 251.937 10.0625C251.792 10.2084 251.687 10.3021 251.625 10.3438C251.562 10.3646 251.469 10.3646 251.344 10.3438C250.99 10.2813 250.802 10.1563 250.781 9.96879C250.781 9.78129 250.937 9.48963 251.25 9.09379C251.354 8.88546 251.552 8.66671 251.844 8.43754C252.156 8.18754 252.51 7.92713 252.906 7.65629C253.323 7.38546 253.594 7.19796 253.719 7.09379C253.76 7.01046 253.771 6.61463 253.75 5.90629C253.729 5.17713 253.656 4.77088 253.531 4.68754C251.885 5.16671 250.792 5.53129 250.25 5.78129C249.875 6.03129 249.594 6.14588 249.406 6.12504C249.24 6.08338 249.146 5.86463 249.125 5.46879C249.104 5.26046 249.104 5.12504 249.125 5.06254C249.146 5.00004 249.25 4.89588 249.437 4.75004C249.771 4.50004 250.417 4.25004 251.375 4.00004C252.458 3.72921 253.969 3.13546 255.906 2.21879C256.219 2.09379 256.521 2.02088 256.812 2.00005C257.104 1.95838 257.281 1.97921 257.344 2.06255C257.49 2.22921 257.531 2.45838 257.469 2.75005C257.406 3.02088 257.281 3.17713 257.094 3.2188C257.031 3.23963 256.792 3.3438 256.375 3.5313C255.979 3.69796 255.719 3.79171 255.594 3.81254C255.323 3.87504 255.146 3.95838 255.062 4.06254C255 4.16671 254.969 4.35421 254.969 4.62504C254.969 4.87504 255 5.20838 255.062 5.62504C255.146 6.02088 255.208 6.25004 255.25 6.31254C255.437 6.29171 255.99 6.18754 256.906 6.00005C257.844 5.79171 258.437 5.69796 258.687 5.7188C258.958 5.7188 259.208 5.8438 259.437 6.0938C259.667 6.3438 259.781 6.61463 259.781 6.9063C259.781 7.26046 259.677 7.7813 259.469 8.4688C259.26 9.1563 259.073 9.5938 258.906 9.7813C258.49 10.5105 258.031 11.1771 257.531 11.7813C257.365 12.0105 257.229 12.1875 257.125 12.3125C257.021 12.4167 256.937 12.4896 256.875 12.5313C256.833 12.573 256.719 12.6459 256.531 12.75C256.365 12.8334 256.208 12.9271 256.062 13.0313C255.854 13.198 255.521 13.3542 255.062 13.5C254.625 13.625 254.344 13.7709 254.219 13.9375C254.219 13.9375 254.073 14.2917 253.781 15C253.49 15.6875 253.344 16.1042 253.344 16.25C253.302 16.4792 253.219 16.75 253.094 17.0625C252.99 17.375 252.969 17.6042 253.031 17.75C253.094 17.875 253.312 18.0209 253.687 18.1875C254.208 18.4584 255.052 18.7709 256.219 19.125C257.406 19.4792 258.208 19.75 258.625 19.9375C258.854 20.0834 259.417 20.2605 260.312 20.4688C261.208 20.6563 261.792 20.8021 262.062 20.9063C262.229 20.9896 262.521 21.0938 262.937 21.2188C263.375 21.323 263.698 21.4271 263.906 21.5313C265.094 22.0313 265.937 22.3021 266.437 22.3438C267.292 22.3438 267.823 22.4792 268.031 22.75C268.156 22.9375 268.177 23.1667 268.094 23.4375C268.031 23.6875 267.875 23.8959 267.625 24.0625C267.5 24.125 267.375 24.1459 267.25 24.125C267.146 24.1042 267 24.0625 266.812 24C266.625 23.9167 266.5 23.875 266.437 23.875C265.896 23.7292 264.937 23.4167 263.562 22.9375C262.187 22.4375 261.021 22.0834 260.062 21.875C259.583 21.7709 258.865 21.5417 257.906 21.1875C256.969 20.8334 256.271 20.6146 255.812 20.5313C255.146 20.3021 254.437 20.0313 253.687 19.7188C252.854 19.323 252.344 19.1875 252.156 19.3125C252.031 19.5209 251.76 20.0209 251.344 20.8125C250.948 21.5834 250.573 22.198 250.219 22.6563C249.885 23.1146 249.479 23.4688 249 23.7188C248.583 23.9271 248.25 23.9584 248 23.8125C247.854 23.7292 247.646 23.5521 247.375 23.2813C247.104 22.9896 246.948 22.7813 246.906 22.6563C246.844 22.4896 246.833 22.2396 246.875 21.9063C246.917 21.573 246.979 21.3855 247.062 21.3438C247.167 21.2813 247.271 21.3021 247.375 21.4063C247.479 21.5105 247.542 21.6563 247.562 21.8438C247.625 22.2396 247.76 22.4792 247.969 22.5625C248.177 22.6459 248.448 22.5625 248.781 22.3125C248.927 22.1875 249.031 22.0834 249.094 22C249.156 21.8959 249.219 21.7813 249.281 21.6563C249.344 21.5105 249.427 21.3646 249.531 21.2188C249.698 20.9896 249.948 20.5417 250.281 19.875C250.469 19.5209 250.573 19.25 250.594 19.0625C250.635 18.875 250.635 18.7605 250.594 18.7188C250.552 18.6771 250.417 18.6355 250.187 18.5938C249.979 18.5313 249.833 18.4896 249.75 18.4688C249.625 18.3855 249.469 18.3438 249.281 18.3438C248.865 18.3021 248.49 18.1459 248.156 17.875C247.823 17.6042 247.781 17.2709 248.031 16.875C248.302 16.6042 248.812 16.5938 249.562 16.8438C249.625 16.8646 249.708 16.8959 249.812 16.9375C250.687 17.2084 251.198 17.3542 251.344 17.375C251.51 17.375 251.625 17.2396 251.687 16.9688C251.708 16.9271 251.719 16.8959 251.719 16.875C251.74 16.75 251.812 16.5 251.937 16.125C252.083 15.7292 252.167 15.4375 252.187 15.25C252.229 15.1042 252.198 15.0105 252.094 14.9688C251.99 14.9063 251.854 14.8646 251.687 14.8438C251.521 14.8021 251.417 14.75 251.375 14.6875C251.083 14.4584 250.917 14.5417 250.875 14.9375C250.75 15.3334 250.51 15.4584 250.156 15.3125C249.76 15.1459 249.583 14.8438 249.625 14.4063C249.625 14.3646 249.635 14.323 249.656 14.2813C249.698 13.5938 249.583 12.75 249.312 11.75C249.042 10.75 248.896 9.97921 248.875 9.43754ZM258.531 7.18755C258.427 7.02088 258.312 6.92713 258.187 6.9063C258.062 6.88546 257.844 6.9063 257.531 6.9688C257.115 7.01046 256.677 7.12505 256.219 7.31254C255.781 7.47921 255.49 7.64588 255.344 7.81254C255.281 7.91671 255.24 8.03129 255.219 8.15629C255.198 8.28129 255.219 8.36463 255.281 8.40629C255.344 8.40629 255.458 8.37504 255.625 8.31254C255.792 8.22921 255.937 8.17713 256.062 8.15629C256.187 8.11463 256.323 8.08338 256.469 8.06255C256.615 8.04171 256.729 8.08338 256.812 8.18755C256.896 8.27088 256.937 8.4063 256.937 8.5938C256.917 8.73963 256.656 8.95838 256.156 9.25004C255.531 9.66671 255.167 9.93754 255.062 10.0625C254.979 10.1667 254.885 10.4896 254.781 11.0313C254.719 11.2813 254.719 11.4271 254.781 11.4688C254.844 11.5105 254.979 11.448 255.187 11.2813C255.25 11.2188 255.396 11.1042 255.625 10.9375C255.875 10.75 256.083 10.573 256.25 10.4063C256.417 10.2188 256.51 10.0521 256.531 9.9063C256.594 9.73963 256.646 9.6563 256.687 9.6563C256.75 9.63546 256.958 9.6563 257.312 9.7188C257.396 9.73963 257.469 9.70838 257.531 9.62505C257.594 9.54171 257.74 9.22921 257.969 8.68755C258.344 7.89588 258.531 7.39588 258.531 7.18755ZM253.281 11.7813C253.281 11.5313 253.25 11.4063 253.187 11.4063C253.125 11.3855 252.99 11.4688 252.781 11.6563C252.49 11.9063 252.135 12.198 251.719 12.5313C251.635 12.6146 251.552 12.6771 251.469 12.7188C251.406 12.7396 251.354 12.75 251.312 12.75C251.271 12.75 251.208 12.7396 251.125 12.7188C251.042 12.6771 250.969 12.6459 250.906 12.625C250.906 12.6667 250.937 12.8855 251 13.2813C251.062 13.5938 251.104 13.7813 251.125 13.8438C251.146 13.8855 251.219 13.8959 251.344 13.875C251.49 13.8542 251.76 13.75 252.156 13.5625C252.781 13.3542 253.156 12.7605 253.281 11.7813ZM287.812 9.5938C287.729 8.8438 287.937 7.89588 288.437 6.75005C288.958 5.60422 289.25 4.85422 289.312 4.50005C289.312 4.25005 289.25 4.0938 289.125 4.0313C289.021 3.94797 288.781 3.91672 288.406 3.93755C288.073 4.02088 287.812 3.97922 287.625 3.81255C287.437 3.64588 287.344 3.42713 287.344 3.1563C287.344 3.0938 287.344 3.05213 287.344 3.0313C287.365 2.98963 287.375 2.95838 287.375 2.93755C287.396 2.91672 287.427 2.89588 287.469 2.87505C287.51 2.83338 287.542 2.80213 287.562 2.7813C287.604 2.76047 287.677 2.72922 287.781 2.68755C287.885 2.62505 287.979 2.57297 288.062 2.5313C288.375 2.3438 288.74 2.3438 289.156 2.5313C289.594 2.7188 289.958 2.97922 290.25 3.31255C290.542 3.64588 290.667 3.91672 290.625 4.12505C290.646 4.37505 290.604 4.67713 290.5 5.0313C290.417 5.36463 290.24 5.83338 289.969 6.43755C289.698 7.04172 289.552 7.37505 289.531 7.43755C289.427 7.77088 289.323 7.98963 289.219 8.0938C289.031 8.3438 289.01 8.54172 289.156 8.68755C289.302 8.81255 289.583 8.86463 290 8.8438C290.875 8.69797 291.469 9.22922 291.781 10.4376C291.823 10.6459 291.917 10.7501 292.062 10.7501C292.229 10.7501 292.552 10.6355 293.031 10.4063C293.26 10.3021 293.479 10.2188 293.687 10.1563C293.896 10.073 294.052 10.0105 294.156 9.9688C294.281 9.9063 294.427 9.7813 294.594 9.5938C294.906 9.32297 295.208 9.25005 295.5 9.37505C295.812 9.50005 295.969 9.76047 295.969 10.1563C295.969 10.4896 295.885 10.7188 295.719 10.8438C295.573 10.948 295.187 11.0938 294.562 11.2813C294.146 11.3855 293.854 11.4792 293.687 11.5626C293.521 11.6251 293.354 11.7188 293.187 11.8438C293.021 11.948 292.833 12.0417 292.625 12.1251C292.25 12.3126 292.021 12.4792 291.937 12.6251C291.854 12.7501 291.802 13.1042 291.781 13.6876C291.76 14.0834 291.698 14.5313 291.594 15.0313C291.51 15.5313 291.469 15.9688 291.469 16.3438C291.469 17.0313 291.323 17.8334 291.031 18.7501C290.76 19.6459 290.49 20.2292 290.219 20.5001C289.969 20.7084 289.375 20.823 288.437 20.8438C288.25 20.8438 288.115 20.823 288.031 20.7813C287.948 20.7396 287.802 20.6146 287.594 20.4063C287.115 19.9896 286.917 19.5626 287 19.1251C287.104 18.8334 287.333 18.8126 287.687 19.0626C287.75 19.1042 287.823 19.198 287.906 19.3438C287.99 19.4688 288.083 19.5626 288.187 19.6251C288.292 19.6667 288.427 19.6771 288.594 19.6563C288.969 19.5938 289.25 19.4271 289.437 19.1563C289.625 18.8021 289.802 18.1667 289.969 17.2501C290.156 16.3334 290.271 15.5209 290.312 14.8126C290.437 13.9376 290.437 13.4376 290.312 13.3126C290.25 13.2501 289.615 13.5313 288.406 14.1563C287.094 14.7188 286.292 15.0626 286 15.1876C285.896 15.1876 285.75 15.0834 285.562 14.8751C285.396 14.6459 285.312 14.4688 285.312 14.3438C285.312 14.0938 285.51 13.8438 285.906 13.5938C286.323 13.323 286.833 13.1042 287.437 12.9376C287.771 12.8542 288.042 12.7709 288.25 12.6876C288.458 12.5834 288.687 12.4688 288.937 12.3438C289.187 12.198 289.417 12.073 289.625 11.9688C290 11.8021 290.229 11.6667 290.312 11.5626C290.417 11.4584 290.469 11.3021 290.469 11.0938C290.469 10.8438 290.396 10.6667 290.25 10.5626C290.104 10.4584 289.781 10.3646 289.281 10.2813C288.469 10.1355 287.979 9.9063 287.812 9.5938ZM271.094 14.4375C271.01 14.3334 271.135 14.1667 271.469 13.9375C271.823 13.7084 272.062 13.573 272.187 13.5313C272.271 13.4896 272.437 13.3959 272.687 13.25C272.958 13.1042 273.146 13.0105 273.25 12.9688L273.656 12.8438L273.656 11.5938C273.656 9.88546 273.708 8.9688 273.812 8.8438C274.062 8.57296 274.365 8.61463 274.719 8.9688L275 9.25005L275 10.3438C275 11.2813 275.062 11.7605 275.187 11.7813C275.25 11.7813 275.469 11.6146 275.844 11.2813C275.99 11.1355 276.156 11 276.344 10.875C276.531 10.7292 276.677 10.5938 276.781 10.4688C276.906 10.3438 277.01 10.1563 277.094 9.9063C277.198 9.5938 277.302 9.39588 277.406 9.31255C277.51 9.22922 277.698 9.20838 277.969 9.25005C278.156 9.29172 278.344 9.22922 278.531 9.06255C279.094 8.54172 279.469 8.2813 279.656 8.2813C279.698 8.2813 279.771 8.26047 279.875 8.2188C279.979 8.1563 280.062 8.11463 280.125 8.0938C280.208 8.05213 280.292 8.04172 280.375 8.06255C280.458 8.06255 280.521 8.10422 280.562 8.18755C280.687 8.41672 280.542 8.66672 280.125 8.93755C279.812 9.14588 279.479 9.44797 279.125 9.8438C278.771 10.2188 278.542 10.5313 278.437 10.7813C278.292 11.0938 278.146 11.6042 278 12.3125C277.854 13.0209 277.812 13.4271 277.875 13.5313C277.896 13.573 278.01 13.5625 278.219 13.5C278.427 13.4375 278.562 13.4584 278.625 13.5625C278.729 13.6875 278.76 13.823 278.719 13.9688C278.677 14.0938 278.562 14.3021 278.375 14.5938C277.812 15.323 277.396 16.2709 277.125 17.4375C276.854 18.6042 276.521 19.5521 276.125 20.2813C276.104 20.323 276.073 20.3855 276.031 20.4688C275.823 20.948 275.656 21.3125 275.531 21.5625C275.406 21.8125 275.229 22.125 275 22.5C274.771 22.875 274.531 23.1667 274.281 23.375C274.052 23.5625 273.812 23.6875 273.562 23.75C273.312 23.7709 273.104 23.6875 272.937 23.5C272.625 23.1875 272.552 22.875 272.719 22.5625C272.823 22.3959 272.969 22.3542 273.156 22.4375C273.302 22.4792 273.427 22.4584 273.531 22.375C273.656 22.2917 273.74 22.2084 273.781 22.125C273.844 22.0417 273.917 21.9167 274 21.75C274.125 21.4584 274.333 21.0313 274.625 20.4688C274.917 19.9063 275.156 19.3959 275.344 18.9375C275.531 18.4584 275.677 17.9688 275.781 17.4688C275.844 17.1355 275.854 16.948 275.812 16.9063C275.792 16.8646 275.656 16.823 275.406 16.7813C275.052 16.698 274.719 16.4792 274.406 16.125C274.094 15.7709 273.958 15.3646 274 14.9063C274 14.573 273.969 14.3855 273.906 14.3438C273.844 14.2813 273.677 14.3125 273.406 14.4375C272.635 14.7709 272.135 14.9584 271.906 15C271.698 15.0417 271.5 14.9896 271.312 14.8438C271.167 14.7188 271.094 14.5834 271.094 14.4375ZM276.594 12.625C276.594 12.4584 276.562 12.375 276.5 12.375C276.458 12.375 276.354 12.448 276.187 12.5938C276.146 12.6355 275.99 12.7605 275.719 12.9688C275.448 13.1771 275.281 13.375 275.219 13.5625C275.156 13.75 275.167 14.0209 275.25 14.375C275.292 14.6667 275.333 14.8542 275.375 14.9375C275.417 15.0209 275.49 15.0938 275.594 15.1563C275.969 15.3438 276.198 15.2605 276.281 14.9063C276.49 13.7396 276.594 12.9792 276.594 12.625Z" fill="#0D0D0D"/>
</svg>
