<svg width="305" height="37" viewBox="0 0 305 37" fill="none" xmlns="http://www.w3.org/2000/svg">
<path d="M0.999996 20.1563C0.999997 18.5521 1.02083 16.9583 1.0625 15.375C1.125 13.7917 1.15625 12.1875 1.15625 10.5625C1.15625 9.625 1.10416 8.6875 0.999998 7.75C0.916665 6.8125 0.874999 5.875 0.874999 4.9375C0.874999 4.64583 0.958332 4.39583 1.125 4.1875C1.3125 3.97917 1.55208 3.875 1.84375 3.875C2.34375 3.875 2.71875 3.97917 2.96875 4.1875C3.21875 4.39583 3.39583 4.65625 3.5 4.96875C3.60417 5.28125 3.65625 5.63542 3.65625 6.03125C3.65625 6.42708 3.65625 6.8125 3.65625 7.1875C3.65625 7.27083 3.65625 7.47917 3.65625 7.8125C3.67708 8.14583 3.69792 8.51042 3.71875 8.90625C3.73958 9.28125 3.75 9.63542 3.75 9.96875C3.77083 10.3021 3.78125 10.5104 3.78125 10.5938L3.78125 11.625C3.78125 12.9792 3.76041 14.3229 3.71875 15.6563C3.67708 16.9896 3.65625 18.3438 3.65625 19.7188L3.65625 21.0313C3.65625 21.1354 3.66666 21.2813 3.6875 21.4688C3.72916 21.6354 3.76041 21.7188 3.78125 21.7188L4.03125 21.7188L11.4375 18.7813C11.6042 18.6354 11.75 18.5625 11.875 18.5625C12 18.5417 12.1458 18.5313 12.3125 18.5313C12.4167 18.5313 12.5521 18.5417 12.7187 18.5625C12.8854 18.5625 13.0417 18.5938 13.1875 18.6563C13.3542 18.6979 13.4896 18.7708 13.5937 18.875C13.7187 18.9583 13.7812 19.0938 13.7812 19.2813C13.7812 19.7604 13.5208 20.1771 13 20.5313C12.3333 20.8854 11.6458 21.2188 10.9375 21.5313C10.2292 21.8229 9.51041 22.0625 8.78125 22.25L8.625 22.375C7.625 22.6458 6.6875 23.0417 5.8125 23.5625C4.95833 24.0833 4.0625 24.5625 3.125 25L2.84375 25C2.28125 25 1.86458 24.8125 1.59375 24.4375C1.32291 24.0625 1.14583 23.625 1.0625 23.125C0.979163 22.6042 0.947913 22.0729 0.968746 21.5313C0.989579 20.9688 0.999996 20.5104 0.999996 20.1563ZM27.11 16.125C27.0683 16.5 27.0162 16.7917 26.9537 17C26.9121 17.2083 26.8287 17.3958 26.7037 17.5625C26.5787 17.7292 26.4017 17.9063 26.1725 18.0938C25.9433 18.2604 25.6308 18.5104 25.235 18.8438C24.8392 19.1563 24.3496 19.5729 23.7662 20.0938C23.1829 20.6146 22.4746 21.2917 21.6412 22.125C21.3079 22.4375 20.9642 22.7604 20.61 23.0938C20.2558 23.4271 19.8808 23.7292 19.485 24C19.11 24.25 18.7142 24.4583 18.2975 24.625C17.8808 24.7917 17.4433 24.875 16.985 24.875C16.0892 24.875 15.4329 24.5729 15.0162 23.9688C14.5996 23.3646 14.3912 22.6667 14.3912 21.875C14.3912 21.3542 14.4017 20.9167 14.4225 20.5625C14.4642 20.2083 14.5475 19.75 14.6725 19.1875C14.4433 18.9792 14.2454 18.8021 14.0787 18.6563C13.9121 18.4896 13.8287 18.2708 13.8287 18C13.8287 17.75 13.8808 17.5833 13.985 17.5C14.11 17.4167 14.2454 17.3646 14.3912 17.3438C14.5579 17.3021 14.7142 17.2604 14.86 17.2188C15.0058 17.1771 15.11 17.0938 15.1725 16.9688C15.2142 16.8438 15.2871 16.6146 15.3912 16.2813C15.5162 15.9479 15.6412 15.6042 15.7662 15.25C15.8912 14.875 16.0058 14.5313 16.11 14.2188C16.235 13.8854 16.3183 13.6563 16.36 13.5313C16.5058 13.1771 16.6621 12.8229 16.8287 12.4688C17.0162 12.0938 17.2246 11.7604 17.4537 11.4688C17.7037 11.1771 17.985 10.9375 18.2975 10.75C18.6308 10.5625 19.0162 10.4688 19.4537 10.4688C19.7037 10.4688 20.0058 10.5833 20.36 10.8125C20.735 11.0417 21.0892 11.3229 21.4225 11.6563C21.7558 11.9688 22.0371 12.3021 22.2662 12.6563C22.4954 13.0104 22.61 13.3125 22.61 13.5625C22.61 13.875 22.5371 14.1667 22.3912 14.4375C22.2454 14.6875 22.0579 14.9271 21.8287 15.1563C21.6204 15.3646 21.3912 15.5625 21.1412 15.75C20.8912 15.9375 20.6621 16.1146 20.4537 16.2813C20.4329 16.2813 20.3912 16.3021 20.3287 16.3438C20.2662 16.3854 20.2142 16.4167 20.1725 16.4375C20.1517 16.4583 20.0996 16.5104 20.0162 16.5938C19.9537 16.6563 19.8808 16.7292 19.7975 16.8125C19.7142 16.8958 19.6308 16.9792 19.5475 17.0625C19.485 17.1458 19.4433 17.1979 19.4225 17.2188C19.36 17.2813 19.235 17.3854 19.0475 17.5313C18.8808 17.6563 18.6933 17.8021 18.485 17.9688C18.2767 18.1146 18.0787 18.2604 17.8912 18.4063C17.7246 18.5313 17.61 18.6146 17.5475 18.6563L17.4225 18.9063C17.3808 18.9896 17.3392 19.1771 17.2975 19.4688C17.2767 19.7396 17.2454 20.0521 17.2037 20.4063C17.1621 20.7604 17.1204 21.125 17.0787 21.5C17.0579 21.8542 17.0475 22.1458 17.0475 22.375C17.0475 22.3958 17.0579 22.4167 17.0787 22.4375C17.1204 22.4792 17.1517 22.5 17.1725 22.5C17.3392 22.5 17.4954 22.4271 17.6412 22.2813C17.7871 22.1354 17.9433 22.0313 18.11 21.9688L23.11 17.3438L24.3912 15.375C24.4954 15.2292 24.6933 15.0729 24.985 14.9063C25.2975 14.7188 25.61 14.625 25.9225 14.625C26.235 14.6042 26.5058 14.6979 26.735 14.9063C26.985 15.1146 27.11 15.5208 27.11 16.125ZM20.235 13.6875C20.3392 13.6042 20.3808 13.4792 20.36 13.3125C20.3392 13.1458 20.2767 13 20.1725 12.875C20.0892 12.75 19.9746 12.6771 19.8287 12.6563C19.6829 12.6146 19.5475 12.6875 19.4225 12.875C19.36 12.9583 19.2454 13.125 19.0787 13.375C18.9329 13.625 18.7767 13.8854 18.61 14.1563C18.4642 14.4063 18.3392 14.625 18.235 14.8125C18.1308 15 18.11 15.0729 18.1725 15.0313L20.235 13.6875ZM30.3137 15.875C30.0221 15.875 29.7617 15.9479 29.5325 16.0938C29.3033 16.2396 29.0325 16.3125 28.72 16.3125C28.6783 16.3125 28.5637 16.3125 28.3762 16.3125C28.2096 16.2917 28.1054 16.2813 28.0637 16.2813C27.9804 16.1771 27.8867 16.0938 27.7825 16.0313C27.6783 15.9688 27.5742 15.9063 27.47 15.8438C27.3658 15.7604 27.2721 15.6667 27.1887 15.5625C27.1262 15.4583 27.095 15.3125 27.095 15.125C27.095 14.8125 27.22 14.5625 27.47 14.375C27.72 14.1667 28.0117 13.9896 28.345 13.8438C28.6783 13.6979 29.0117 13.5625 29.345 13.4375C29.6992 13.3125 29.9804 13.1667 30.1887 13L30.1887 11.625C30.1887 10.0833 30.1158 8.54167 29.97 7.00001C29.8242 5.43751 29.7512 3.89584 29.7512 2.37501C29.7512 1.95834 29.8554 1.68751 30.0637 1.56251C30.2721 1.43751 30.5533 1.37501 30.9075 1.37501C31.3242 1.37501 31.6262 1.50001 31.8137 1.75001C32.0221 1.97917 32.1679 2.27084 32.2512 2.62501C32.3346 2.95834 32.3762 3.32292 32.3762 3.71876C32.3762 4.09376 32.3867 4.41667 32.4075 4.68751C32.4075 4.95834 32.4283 5.43751 32.47 6.12501C32.5117 6.81251 32.5533 7.54167 32.595 8.31251C32.6367 9.08334 32.6783 9.81251 32.72 10.5C32.7617 11.1875 32.7929 11.6667 32.8137 11.9375C32.8971 11.9167 33.0533 11.8646 33.2825 11.7813C33.5325 11.6771 33.7929 11.5833 34.0637 11.5C34.3346 11.3958 34.5846 11.3021 34.8137 11.2188C35.0637 11.1354 35.2408 11.0729 35.345 11.0313C35.8867 10.8021 36.4492 10.5521 37.0325 10.2813C37.6158 9.98959 38.2096 9.84376 38.8137 9.84376C39.2304 9.84376 39.5429 9.98959 39.7512 10.2813C39.9804 10.5521 40.095 10.875 40.095 11.25C40.095 11.5208 39.9908 11.7188 39.7825 11.8438C39.5742 11.9688 39.3554 12.0833 39.1262 12.1875L33.4387 14.3125C33.3762 14.3542 33.3137 14.3958 33.2512 14.4375C33.1887 14.4583 33.1262 14.5 33.0637 14.5625L33.0637 15.5625C33.0637 16.2917 33.0742 17.0521 33.095 17.8438C33.1367 18.6146 33.2096 19.3646 33.3137 20.0938C33.4179 20.7188 33.5325 21.3333 33.6575 21.9375C33.7825 22.5417 33.845 23.1563 33.845 23.7813C33.845 23.9688 33.7825 24.2188 33.6575 24.5313C33.5325 24.8438 33.3346 25 33.0637 25C32.5012 25 32.0429 24.8333 31.6887 24.5C31.3346 24.1667 31.1367 23.7188 31.095 23.1563C30.9908 22.0729 30.8762 20.8854 30.7512 19.5938C30.6471 18.3021 30.5429 17.0625 30.4387 15.875L30.3137 15.875ZM40.455 9.21876C40.455 9.07292 40.4654 8.81251 40.4863 8.43751C40.5279 8.06251 40.5592 7.66667 40.58 7.25001C40.6217 6.83334 40.6529 6.43751 40.6738 6.06251C40.6946 5.68751 40.705 5.41667 40.705 5.25001C40.8508 4.72917 41.1842 4.46876 41.705 4.46876C42.1633 4.46876 42.4863 4.60417 42.6738 4.87501C42.8613 5.12501 42.955 5.45834 42.955 5.87501C42.955 6.00001 42.9446 6.25001 42.9238 6.62501C42.9238 6.97917 42.9029 7.39584 42.8613 7.87501C42.8196 8.33334 42.7675 8.82292 42.705 9.34376C42.6633 9.84376 42.6008 10.3021 42.5175 10.7188C42.4342 11.1354 42.33 11.4792 42.205 11.75C42.08 12.0208 41.9446 12.1458 41.7987 12.125C41.5071 12.0833 41.2779 11.9792 41.1112 11.8125C40.9446 11.625 40.8092 11.4167 40.705 11.1875C40.6008 10.9583 40.5279 10.7188 40.4862 10.4688C40.4654 10.1979 40.455 9.94792 40.455 9.71876L40.455 9.21876ZM48.565 23.8125C48.565 23.7083 48.565 23.6146 48.565 23.5313C48.5858 23.4479 48.6379 23.3646 48.7212 23.2813C48.9712 22.9688 49.2525 22.6458 49.565 22.3125C49.8775 21.9583 50.1796 21.6146 50.4712 21.2813C50.7629 20.9271 51.0337 20.5625 51.2837 20.1875C51.5337 19.8125 51.7421 19.4375 51.9087 19.0625L51.9087 18.875L47.815 19.7188L47.3462 19.7188C47.0546 19.7188 46.69 19.6979 46.2525 19.6563C45.8358 19.6146 45.4192 19.5313 45.0025 19.4063C44.6067 19.2604 44.2629 19.0625 43.9712 18.8125C43.7004 18.5625 43.565 18.2292 43.565 17.8125C43.5858 17.3333 43.8358 16.8021 44.315 16.2188C44.7942 15.6354 45.3567 15.0625 46.0025 14.5C46.6483 13.9375 47.2942 13.4167 47.94 12.9375C48.6067 12.4583 49.1379 12.0833 49.5337 11.8125C49.9712 11.5625 50.4921 11.3646 51.0962 11.2188C51.7004 11.0521 52.2525 10.9688 52.7525 10.9688C53.1692 10.9688 53.5337 11.0521 53.8462 11.2188C54.1587 11.3646 54.315 11.6667 54.315 12.125C54.315 12.3125 54.2942 12.4896 54.2525 12.6563C54.2317 12.8229 54.1067 12.9375 53.8775 13C53.2108 12.9375 52.5858 12.9896 52.0025 13.1563C51.4192 13.3021 50.8671 13.5313 50.3462 13.8438C49.8254 14.1563 49.3358 14.5313 48.8775 14.9688C48.4192 15.3854 47.9712 15.8229 47.5337 16.2813C47.4087 16.4271 47.2525 16.6354 47.065 16.9063C46.8775 17.1563 46.7837 17.3021 46.7837 17.3438L46.7837 17.375C47.3254 17.375 47.8567 17.3229 48.3775 17.2188C48.9192 17.1146 49.4504 17.0104 49.9712 16.9063C50.5129 16.7813 51.0442 16.6667 51.565 16.5625C52.1067 16.4583 52.6587 16.4063 53.2212 16.4063C53.4296 16.4063 53.6587 16.4271 53.9087 16.4688C54.1587 16.4896 54.3879 16.5521 54.5962 16.6563C54.8254 16.7604 55.0025 16.9063 55.1275 17.0938C55.2733 17.2604 55.3462 17.4792 55.3462 17.75C55.3462 18.1458 55.2421 18.5313 55.0337 18.9063C54.8462 19.2604 54.5546 19.6979 54.1587 20.2188C53.7837 20.7188 53.2942 21.3333 52.69 22.0625C52.1067 22.7917 51.4087 23.7292 50.5962 24.875C50.5546 24.9375 50.4504 24.9792 50.2837 25C50.1379 25.0208 50.0129 25.0313 49.9087 25.0313C49.6171 25.0313 49.315 24.9063 49.0025 24.6563C48.7108 24.4063 48.565 24.125 48.565 23.8125ZM76.0975 20.0625C76.0767 20.0625 75.9308 20.2917 75.66 20.75C75.41 21.2083 75.0662 21.7083 74.6287 22.25C74.1912 22.7917 73.6704 23.2917 73.0662 23.75C72.4829 24.2083 71.8579 24.4375 71.1912 24.4375C70.2746 24.4375 69.5037 24.1563 68.8787 23.5938C68.2746 23.0313 67.9725 22.2604 67.9725 21.2813C67.9308 20.7813 67.9933 20.1875 68.16 19.5C68.3475 18.8125 68.6079 18.1042 68.9413 17.375C69.2954 16.625 69.7121 15.9063 70.1913 15.2188C70.6913 14.5104 71.2225 13.9063 71.785 13.4063C72.3475 12.8854 72.9308 12.5 73.535 12.25C74.16 12 74.785 11.9583 75.41 12.125L75.41 11.6875C75.41 11.1458 75.3892 10.5938 75.3475 10.0313C75.3267 9.44793 75.2954 8.79168 75.2538 8.06251C75.2329 7.31251 75.2017 6.45835 75.16 5.50001C75.1392 4.52085 75.1288 3.35418 75.1288 2.00001C75.1913 1.77085 75.2954 1.62501 75.4413 1.56251C75.6079 1.47918 75.785 1.43751 75.9725 1.43751C76.4517 1.43751 76.8267 1.59376 77.0975 1.90626C77.3892 2.21876 77.5663 2.60418 77.6288 3.06251C77.5871 3.77085 77.5663 4.50001 77.5663 5.25001C77.5871 5.97918 77.6288 6.81251 77.6913 7.75001C77.7538 8.68751 77.8475 9.75001 77.9725 10.9375C78.1183 12.125 78.2954 13.5313 78.5038 15.1563C78.7121 16.7604 78.9621 18.6146 79.2537 20.7188C79.5454 22.8021 79.8892 25.2188 80.285 27.9688L80.285 29.0313C80.285 29.1563 80.2329 29.25 80.1287 29.3125C80.0454 29.375 79.9308 29.4167 79.785 29.4375C79.66 29.4792 79.5246 29.5 79.3787 29.5C79.2537 29.5208 79.16 29.5313 79.0975 29.5313C78.785 29.5313 78.4517 29.4375 78.0975 29.25C77.7433 29.0833 77.535 28.8438 77.4725 28.5313L76.3162 20.1875C76.3162 20.125 76.285 20.0938 76.2225 20.0938C76.1808 20.0729 76.1392 20.0625 76.0975 20.0625ZM70.5975 20.75C70.5975 20.8125 70.5871 20.9271 70.5662 21.0938C70.5662 21.2396 70.5662 21.3958 70.5662 21.5625C70.5871 21.7292 70.6183 21.875 70.66 22C70.7017 22.125 70.785 22.1875 70.91 22.1875C71.4308 22.2083 71.9621 22.0104 72.5037 21.5938C73.0662 21.1771 73.5767 20.6667 74.035 20.0625C74.4933 19.4375 74.8683 18.7708 75.16 18.0625C75.4725 17.3542 75.6392 16.7188 75.66 16.1563C75.7017 15.5938 75.5663 15.1667 75.2538 14.875C74.9621 14.5625 74.4517 14.4896 73.7225 14.6563C72.8267 15.4479 72.0767 16.3542 71.4725 17.375C70.8892 18.3958 70.5975 19.5208 70.5975 20.75ZM93.5512 16.125C93.5096 16.5 93.4575 16.7917 93.395 17C93.3533 17.2083 93.27 17.3958 93.145 17.5625C93.02 17.7292 92.8429 17.9063 92.6137 18.0938C92.3846 18.2604 92.0721 18.5104 91.6762 18.8438C91.2804 19.1563 90.7908 19.5729 90.2075 20.0938C89.6242 20.6146 88.9158 21.2917 88.0825 22.125C87.7492 22.4375 87.4054 22.7604 87.0512 23.0938C86.6971 23.4271 86.3221 23.7292 85.9262 24C85.5512 24.25 85.1554 24.4583 84.7387 24.625C84.3221 24.7917 83.8846 24.875 83.4262 24.875C82.5304 24.875 81.8742 24.5729 81.4575 23.9688C81.0408 23.3646 80.8325 22.6667 80.8325 21.875C80.8325 21.3542 80.8429 20.9167 80.8637 20.5625C80.9054 20.2083 80.9887 19.75 81.1137 19.1875C80.8846 18.9792 80.6867 18.8021 80.52 18.6563C80.3533 18.4896 80.27 18.2708 80.27 18C80.27 17.75 80.3221 17.5833 80.4262 17.5C80.5512 17.4167 80.6867 17.3646 80.8325 17.3438C80.9992 17.3021 81.1554 17.2604 81.3012 17.2188C81.4471 17.1771 81.5512 17.0938 81.6137 16.9688C81.6554 16.8438 81.7283 16.6146 81.8325 16.2813C81.9575 15.9479 82.0825 15.6042 82.2075 15.25C82.3325 14.875 82.4471 14.5313 82.5512 14.2188C82.6762 13.8854 82.7596 13.6563 82.8012 13.5313C82.9471 13.1771 83.1033 12.8229 83.27 12.4688C83.4575 12.0938 83.6658 11.7604 83.895 11.4688C84.145 11.1771 84.4262 10.9375 84.7387 10.75C85.0721 10.5625 85.4575 10.4688 85.895 10.4688C86.145 10.4688 86.4471 10.5833 86.8012 10.8125C87.1762 11.0417 87.5304 11.3229 87.8637 11.6563C88.1971 11.9688 88.4783 12.3021 88.7075 12.6563C88.9367 13.0104 89.0512 13.3125 89.0512 13.5625C89.0512 13.875 88.9783 14.1667 88.8325 14.4375C88.6867 14.6875 88.4992 14.9271 88.27 15.1563C88.0617 15.3646 87.8325 15.5625 87.5825 15.75C87.3325 15.9375 87.1033 16.1146 86.895 16.2813C86.8742 16.2813 86.8325 16.3021 86.77 16.3438C86.7075 16.3854 86.6554 16.4167 86.6137 16.4375C86.5929 16.4583 86.5408 16.5104 86.4575 16.5938C86.395 16.6563 86.3221 16.7292 86.2387 16.8125C86.1554 16.8958 86.0721 16.9792 85.9887 17.0625C85.9262 17.1458 85.8846 17.1979 85.8637 17.2188C85.8012 17.2813 85.6762 17.3854 85.4887 17.5313C85.3221 17.6563 85.1346 17.8021 84.9262 17.9688C84.7179 18.1146 84.52 18.2604 84.3325 18.4063C84.1658 18.5313 84.0512 18.6146 83.9887 18.6563L83.8637 18.9063C83.8221 18.9896 83.7804 19.1771 83.7387 19.4688C83.7179 19.7396 83.6867 20.0521 83.645 20.4063C83.6033 20.7604 83.5617 21.125 83.52 21.5C83.4992 21.8542 83.4887 22.1458 83.4887 22.375C83.4887 22.3958 83.4992 22.4167 83.52 22.4375C83.5617 22.4792 83.5929 22.5 83.6137 22.5C83.7804 22.5 83.9367 22.4271 84.0825 22.2813C84.2283 22.1354 84.3846 22.0313 84.5512 21.9688L89.5512 17.3438L90.8325 15.375C90.9367 15.2292 91.1346 15.0729 91.4262 14.9063C91.7387 14.7188 92.0512 14.625 92.3637 14.625C92.6762 14.6042 92.9471 14.6979 93.1762 14.9063C93.4262 15.1146 93.5512 15.5208 93.5512 16.125ZM86.6762 13.6875C86.7804 13.6042 86.8221 13.4792 86.8012 13.3125C86.7804 13.1458 86.7179 13 86.6137 12.875C86.5304 12.75 86.4158 12.6771 86.27 12.6563C86.1242 12.6146 85.9887 12.6875 85.8637 12.875C85.8012 12.9583 85.6867 13.125 85.52 13.375C85.3742 13.625 85.2179 13.8854 85.0512 14.1563C84.9054 14.4063 84.7804 14.625 84.6762 14.8125C84.5721 15 84.5512 15.0729 84.6137 15.0313L86.6762 13.6875ZM98.4737 23.8125C98.4737 23.7084 98.4737 23.6146 98.4737 23.5313C98.4946 23.4479 98.5467 23.3646 98.63 23.2813C98.88 22.9688 99.1612 22.6459 99.4737 22.3125C99.7862 21.9584 100.088 21.6146 100.38 21.2813C100.672 20.9271 100.942 20.5625 101.192 20.1875C101.442 19.8125 101.651 19.4375 101.817 19.0625L101.817 18.875L97.7237 19.7188L97.255 19.7188C96.9633 19.7188 96.5987 19.6979 96.1612 19.6563C95.7446 19.6146 95.3279 19.5313 94.9112 19.4063C94.5154 19.2604 94.1717 19.0625 93.88 18.8125C93.6092 18.5625 93.4737 18.2292 93.4737 17.8125C93.4946 17.3333 93.7446 16.8021 94.2237 16.2188C94.7029 15.6354 95.2654 15.0625 95.9112 14.5C96.5571 13.9375 97.2029 13.4167 97.8487 12.9375C98.5154 12.4584 99.0467 12.0834 99.4425 11.8125C99.88 11.5625 100.401 11.3646 101.005 11.2188C101.609 11.0521 102.161 10.9688 102.661 10.9688C103.078 10.9688 103.442 11.0521 103.755 11.2188C104.067 11.3646 104.224 11.6667 104.224 12.125C104.224 12.3125 104.203 12.4896 104.161 12.6563C104.14 12.8229 104.015 12.9375 103.786 13C103.12 12.9375 102.495 12.9896 101.911 13.1563C101.328 13.3021 100.776 13.5313 100.255 13.8438C99.7342 14.1563 99.2446 14.5313 98.7862 14.9688C98.3279 15.3854 97.88 15.8229 97.4425 16.2813C97.3175 16.4271 97.1612 16.6354 96.9737 16.9063C96.7862 17.1563 96.6925 17.3021 96.6925 17.3438L96.6925 17.375C97.2342 17.375 97.7654 17.3229 98.2862 17.2188C98.8279 17.1146 99.3592 17.0104 99.88 16.9063C100.422 16.7813 100.953 16.6667 101.474 16.5625C102.015 16.4584 102.567 16.4063 103.13 16.4063C103.338 16.4063 103.567 16.4271 103.817 16.4688C104.067 16.4896 104.297 16.5521 104.505 16.6563C104.734 16.7604 104.911 16.9063 105.036 17.0938C105.182 17.2604 105.255 17.4792 105.255 17.75C105.255 18.1459 105.151 18.5313 104.942 18.9063C104.755 19.2604 104.463 19.6979 104.067 20.2188C103.692 20.7188 103.203 21.3334 102.599 22.0625C102.015 22.7917 101.317 23.7292 100.505 24.875C100.463 24.9375 100.359 24.9792 100.192 25C100.047 25.0209 99.9217 25.0313 99.8175 25.0313C99.5258 25.0313 99.2237 24.9063 98.9112 24.6563C98.6196 24.4063 98.4737 24.125 98.4737 23.8125ZM107.459 23.8125C107.25 21.7292 107.073 19.9479 106.927 18.4688C106.782 16.9896 106.657 15.75 106.552 14.75C106.448 13.75 106.355 12.9584 106.271 12.375C106.209 11.7709 106.157 11.3229 106.115 11.0313C106.073 10.7188 106.042 10.5104 106.021 10.4063C106 10.3021 105.99 10.2396 105.99 10.2188L105.99 10.0938C105.99 9.8646 106.084 9.6771 106.271 9.53127C106.48 9.3646 106.688 9.28127 106.896 9.28127C107.209 9.28127 107.542 9.33335 107.896 9.43752C108.271 9.54169 108.521 9.76044 108.646 10.0938C108.834 11.1146 108.959 12.1459 109.021 13.1875C109.105 14.2292 109.167 15.2709 109.209 16.3125C109.271 17.3334 109.344 18.3646 109.427 19.4063C109.532 20.4479 109.709 21.4792 109.959 22.5C109.959 22.5417 109.969 22.625 109.99 22.75C110.032 22.875 110.063 23.0104 110.084 23.1563C110.125 23.3021 110.157 23.4375 110.177 23.5625C110.198 23.6875 110.209 23.7709 110.209 23.8125L110.209 23.875C110.209 23.8959 110.219 23.9167 110.24 23.9375C110.24 24.1875 110.125 24.4375 109.896 24.6875C109.667 24.9375 109.427 25.0417 109.177 25C109.115 24.9792 108.959 24.9479 108.709 24.9063C108.48 24.8438 108.323 24.7917 108.24 24.75C108.177 24.7292 108.094 24.6875 107.99 24.625C107.886 24.5417 107.782 24.4584 107.677 24.375C107.594 24.2917 107.521 24.1979 107.459 24.0938C107.396 23.9896 107.396 23.8959 107.459 23.8125ZM105.709 1.03127C105.709 0.885435 105.823 0.760435 106.052 0.656269C106.302 0.531269 106.49 0.468769 106.615 0.468769C106.927 0.468769 107.271 0.562519 107.646 0.750019C108.042 0.916686 108.24 1.1771 108.24 1.53127C108.24 1.88544 108.188 2.12502 108.084 2.25002C108 2.37502 107.782 2.43752 107.427 2.43752C107.052 2.43752 106.667 2.31252 106.271 2.06252C105.896 1.81252 105.709 1.46877 105.709 1.03127ZM112.287 35.9063C112.204 35.6771 112.204 35.4167 112.287 35.125C112.392 34.8334 112.59 34.6459 112.881 34.5625C113.36 34.7709 113.86 34.9063 114.381 34.9688C114.902 35.0313 115.423 35.0417 115.944 35C116.485 34.9584 117.017 34.875 117.537 34.75C118.058 34.625 118.558 34.4792 119.037 34.3125C119.517 33.9167 119.85 33.3959 120.037 32.75C120.225 32.125 120.298 31.2604 120.256 30.1563C120.215 29.0729 120.069 27.7084 119.819 26.0625C119.59 24.4375 119.287 22.4375 118.912 20.0625C118.912 20 118.912 19.9063 118.912 19.7813C118.933 19.6563 118.933 19.5417 118.912 19.4375C118.892 19.3125 118.85 19.2188 118.787 19.1563C118.746 19.0938 118.683 19.0938 118.6 19.1563C118.329 19.6771 118.006 20.25 117.631 20.875C117.277 21.4792 116.86 22.0521 116.381 22.5938C115.923 23.1146 115.402 23.5521 114.819 23.9063C114.256 24.2604 113.621 24.4375 112.912 24.4375C112.287 24.4375 111.735 24.2604 111.256 23.9063C110.798 23.5313 110.569 23 110.569 22.3125C110.569 21.7917 110.673 21.1354 110.881 20.3438C111.11 19.5521 111.412 18.7188 111.787 17.8438C112.162 16.9479 112.6 16.0625 113.1 15.1875C113.6 14.3125 114.121 13.5209 114.662 12.8125C115.204 12.1042 115.756 11.5313 116.319 11.0938C116.881 10.6354 117.423 10.4063 117.944 10.4063C118.152 10.4063 118.423 10.4479 118.756 10.5313C119.11 10.5938 119.444 10.6979 119.756 10.8438C120.09 10.9896 120.371 11.1563 120.6 11.3438C120.85 11.5313 120.975 11.75 120.975 12L120.975 14.5313L123.006 29.2813C123.006 30.1146 122.985 30.9063 122.944 31.6563C122.923 32.4271 122.787 33.1354 122.537 33.7813C122.308 34.4271 121.933 35 121.412 35.5C120.892 36 120.142 36.4063 119.162 36.7188C119.037 36.7813 118.777 36.8334 118.381 36.875C117.985 36.9167 117.527 36.9479 117.006 36.9688C116.506 36.9896 115.965 36.9896 115.381 36.9688C114.819 36.9479 114.298 36.8959 113.819 36.8125C113.36 36.75 112.985 36.6459 112.694 36.5C112.402 36.3542 112.267 36.1563 112.287 35.9063ZM117.162 13.1875C116.954 13.4167 116.673 13.7813 116.319 14.2813C115.985 14.7813 115.642 15.3334 115.287 15.9375C114.933 16.5417 114.579 17.1771 114.225 17.8438C113.892 18.4896 113.621 19.0938 113.412 19.6563C113.204 20.2188 113.069 20.6979 113.006 21.0938C112.965 21.4896 113.058 21.7292 113.287 21.8125C113.725 21.5834 114.194 21.2084 114.694 20.6875C115.194 20.1459 115.662 19.5521 116.1 18.9063C116.558 18.2396 116.954 17.5625 117.287 16.875C117.642 16.1667 117.881 15.5313 118.006 14.9688C118.152 14.4063 118.162 13.9584 118.037 13.625C117.933 13.2709 117.642 13.125 117.162 13.1875ZM132.022 23.9375C131.731 23.5209 131.481 22.9479 131.272 22.2188C131.085 21.4688 130.897 20.6875 130.71 19.875C130.543 19.0417 130.387 18.2396 130.241 17.4688C130.095 16.6771 129.939 16.0521 129.772 15.5938C129.627 15.1146 129.46 14.8438 129.272 14.7813C129.085 14.7188 128.866 15 128.616 15.625L125.897 24C125.793 24.2917 125.668 24.5 125.522 24.625C125.377 24.7292 125.137 24.7813 124.804 24.7813C124.637 24.7813 124.46 24.7604 124.272 24.7188C124.085 24.6563 123.908 24.5729 123.741 24.4688C123.575 24.3646 123.429 24.2396 123.304 24.0938C123.2 23.9479 123.137 23.7813 123.116 23.5938C123.179 23.3438 123.231 22.8854 123.272 22.2188C123.335 21.5521 123.377 20.7813 123.397 19.9063C123.418 19.0313 123.429 18.1146 123.429 17.1563C123.45 16.1771 123.45 15.2709 123.429 14.4375C123.429 13.5834 123.418 12.8542 123.397 12.25C123.377 11.625 123.356 11.2188 123.335 11.0313C123.335 10.8229 123.335 10.6146 123.335 10.4063C123.356 10.1771 123.387 9.96877 123.429 9.78127C123.491 9.59377 123.585 9.44794 123.71 9.34377C123.856 9.21877 124.075 9.15627 124.366 9.15627C124.762 9.15627 125.127 9.32294 125.46 9.65627C125.814 9.98961 125.991 10.3438 125.991 10.7188C125.991 11.2604 125.96 11.8021 125.897 12.3438C125.856 12.8646 125.835 13.3959 125.835 13.9375C125.835 14.2709 125.835 14.5521 125.835 14.7813C125.835 15.0104 125.877 15.2917 125.96 15.625C126.022 15.4584 126.127 15.1667 126.272 14.75C126.418 14.3334 126.575 13.8959 126.741 13.4375C126.929 12.9792 127.095 12.5521 127.241 12.1563C127.387 11.7396 127.491 11.4479 127.554 11.2813C127.7 10.8646 127.918 10.4688 128.21 10.0938C128.502 9.69794 128.887 9.47919 129.366 9.43752C129.679 9.41669 129.96 9.50002 130.21 9.68752C130.481 9.87502 130.71 10.125 130.897 10.4375C131.085 10.7292 131.241 11.0417 131.366 11.375C131.491 11.6875 131.585 11.9584 131.647 12.1875L133.335 19.9688L134.647 23.5313C134.668 23.5521 134.679 23.6146 134.679 23.7188C134.679 23.8021 134.679 23.8646 134.679 23.9063C134.679 24.1563 134.616 24.4063 134.491 24.6563C134.387 24.8854 134.189 25 133.897 25C133.543 25 133.179 24.9063 132.804 24.7188C132.429 24.5104 132.168 24.25 132.022 23.9375ZM147.68 14.5625L147.68 14.5C147.68 14.3334 147.732 14.1667 147.836 14C147.961 13.8125 148.086 13.6563 148.211 13.5313L148.211 11.9375C148.211 10.2084 148.18 8.52086 148.117 6.87503C148.076 5.22919 147.972 3.53128 147.805 1.78128C147.805 1.51044 147.899 1.31253 148.086 1.18753C148.274 1.04169 148.472 0.968776 148.68 0.968776C149.263 0.864609 149.701 1.00003 149.992 1.37503C150.305 1.75003 150.524 2.26044 150.649 2.90628C150.774 3.55211 150.836 4.28128 150.836 5.09378C150.836 5.88544 150.815 6.65628 150.774 7.40628C150.753 8.15628 150.742 8.82294 150.742 9.40628C150.742 9.98961 150.815 10.3854 150.961 10.5938C151.232 10.4896 151.367 10.4479 151.367 10.4688C151.388 10.4688 151.388 10.4792 151.367 10.5C151.367 10.5 151.388 10.4792 151.43 10.4375C151.492 10.375 151.69 10.2188 152.024 9.96878C152.482 9.61461 153.013 9.39586 153.617 9.31253C154.242 9.20836 154.826 9.15628 155.367 9.15628C156.638 9.34378 157.524 9.73961 158.024 10.3438C158.524 10.9271 158.742 11.6563 158.68 12.5313C158.617 13.3854 158.315 14.3438 157.774 15.4063C157.253 16.4479 156.597 17.5313 155.805 18.6563C155.013 19.7604 154.138 20.8646 153.18 21.9688C152.222 23.0521 151.295 24.0729 150.399 25.0313C150.211 25.0313 149.992 25 149.742 24.9375C149.513 24.875 149.295 24.7813 149.086 24.6563C148.878 24.5313 148.701 24.375 148.555 24.1875C148.409 24 148.336 23.7813 148.336 23.5313L148.336 15.375L147.68 14.5625ZM150.961 16.9688C150.961 17.0313 150.961 17.1771 150.961 17.4063C150.982 17.6354 151.003 17.8854 151.024 18.1563C151.045 18.4063 151.055 18.6459 151.055 18.875C151.076 19.1042 151.086 19.25 151.086 19.3125C151.086 19.375 151.086 19.4896 151.086 19.6563C151.086 19.8021 151.086 19.9688 151.086 20.1563C151.107 20.3229 151.117 20.4896 151.117 20.6563C151.117 20.8021 151.117 20.9063 151.117 20.9688C151.347 20.9271 151.67 20.6354 152.086 20.0938C152.503 19.5521 152.93 18.9271 153.367 18.2188C153.805 17.4896 154.211 16.7604 154.586 16.0313C154.961 15.3021 155.242 14.7292 155.43 14.3125C155.513 14.1042 155.597 13.8542 155.68 13.5625C155.763 13.2709 155.815 12.9792 155.836 12.6875C155.878 12.375 155.857 12.0938 155.774 11.8438C155.711 11.5938 155.565 11.3959 155.336 11.25C154.961 11.25 154.555 11.3438 154.117 11.5313C153.701 11.7188 153.284 11.9584 152.867 12.25C152.472 12.5417 152.107 12.8646 151.774 13.2188C151.461 13.5521 151.232 13.875 151.086 14.1875C151.065 14.2917 151.045 14.4792 151.024 14.75C151.024 15 151.013 15.2709 150.992 15.5625C150.992 15.8542 150.982 16.1354 150.961 16.4063C150.961 16.6771 150.961 16.8646 150.961 16.9688ZM172.009 16.125C171.967 16.5 171.915 16.7917 171.852 17C171.811 17.2084 171.727 17.3959 171.602 17.5625C171.477 17.7292 171.3 17.9063 171.071 18.0938C170.842 18.2604 170.53 18.5104 170.134 18.8438C169.738 19.1563 169.248 19.5729 168.665 20.0938C168.082 20.6146 167.373 21.2917 166.54 22.125C166.207 22.4375 165.863 22.7604 165.509 23.0938C165.155 23.4271 164.78 23.7292 164.384 24C164.009 24.25 163.613 24.4584 163.196 24.625C162.78 24.7917 162.342 24.875 161.884 24.875C160.988 24.875 160.332 24.5729 159.915 23.9688C159.498 23.3646 159.29 22.6667 159.29 21.875C159.29 21.3542 159.3 20.9167 159.321 20.5625C159.363 20.2084 159.446 19.75 159.571 19.1875C159.342 18.9792 159.144 18.8021 158.977 18.6563C158.811 18.4896 158.727 18.2709 158.727 18C158.727 17.75 158.78 17.5834 158.884 17.5C159.009 17.4167 159.144 17.3646 159.29 17.3438C159.457 17.3021 159.613 17.2604 159.759 17.2188C159.905 17.1771 160.009 17.0938 160.071 16.9688C160.113 16.8438 160.186 16.6146 160.29 16.2813C160.415 15.9479 160.54 15.6042 160.665 15.25C160.79 14.875 160.905 14.5313 161.009 14.2188C161.134 13.8854 161.217 13.6563 161.259 13.5313C161.405 13.1771 161.561 12.8229 161.727 12.4688C161.915 12.0938 162.123 11.7604 162.352 11.4688C162.602 11.1771 162.884 10.9375 163.196 10.75C163.53 10.5625 163.915 10.4688 164.352 10.4688C164.602 10.4688 164.905 10.5834 165.259 10.8125C165.634 11.0417 165.988 11.3229 166.321 11.6563C166.655 11.9688 166.936 12.3021 167.165 12.6563C167.394 13.0104 167.509 13.3125 167.509 13.5625C167.509 13.875 167.436 14.1667 167.29 14.4375C167.144 14.6875 166.957 14.9271 166.727 15.1563C166.519 15.3646 166.29 15.5625 166.04 15.75C165.79 15.9375 165.561 16.1146 165.352 16.2813C165.332 16.2813 165.29 16.3021 165.227 16.3438C165.165 16.3854 165.113 16.4167 165.071 16.4375C165.05 16.4584 164.998 16.5104 164.915 16.5938C164.852 16.6563 164.78 16.7292 164.696 16.8125C164.613 16.8959 164.53 16.9792 164.446 17.0625C164.384 17.1459 164.342 17.1979 164.321 17.2188C164.259 17.2813 164.134 17.3854 163.946 17.5313C163.78 17.6563 163.592 17.8021 163.384 17.9688C163.175 18.1146 162.977 18.2604 162.79 18.4063C162.623 18.5313 162.509 18.6146 162.446 18.6563L162.321 18.9063C162.28 18.9896 162.238 19.1771 162.196 19.4688C162.175 19.7396 162.144 20.0521 162.102 20.4063C162.061 20.7604 162.019 21.125 161.977 21.5C161.957 21.8542 161.946 22.1459 161.946 22.375C161.946 22.3959 161.957 22.4167 161.977 22.4375C162.019 22.4792 162.05 22.5 162.071 22.5C162.238 22.5 162.394 22.4271 162.54 22.2813C162.686 22.1354 162.842 22.0313 163.009 21.9688L168.009 17.3438L169.29 15.375C169.394 15.2292 169.592 15.0729 169.884 14.9063C170.196 14.7188 170.509 14.625 170.821 14.625C171.134 14.6042 171.405 14.6979 171.634 14.9063C171.884 15.1146 172.009 15.5209 172.009 16.125ZM165.134 13.6875C165.238 13.6042 165.28 13.4792 165.259 13.3125C165.238 13.1459 165.175 13 165.071 12.875C164.988 12.75 164.873 12.6771 164.727 12.6563C164.582 12.6146 164.446 12.6875 164.321 12.875C164.259 12.9584 164.144 13.125 163.977 13.375C163.832 13.625 163.675 13.8854 163.509 14.1563C163.363 14.4063 163.238 14.625 163.134 14.8125C163.03 15 163.009 15.0729 163.071 15.0313L165.134 13.6875ZM175.212 15.875C174.921 15.875 174.66 15.9479 174.431 16.0938C174.202 16.2396 173.931 16.3125 173.619 16.3125C173.577 16.3125 173.462 16.3125 173.275 16.3125C173.108 16.2917 173.004 16.2813 172.962 16.2813C172.879 16.1771 172.785 16.0938 172.681 16.0313C172.577 15.9688 172.473 15.9063 172.369 15.8438C172.265 15.7604 172.171 15.6667 172.087 15.5625C172.025 15.4584 171.994 15.3125 171.994 15.125C171.994 14.8125 172.119 14.5625 172.369 14.375C172.619 14.1667 172.91 13.9896 173.244 13.8438C173.577 13.6979 173.91 13.5625 174.244 13.4375C174.598 13.3125 174.879 13.1667 175.087 13L175.087 11.625C175.087 10.0834 175.015 8.5417 174.869 7.00003C174.723 5.43753 174.65 3.89586 174.65 2.37503C174.65 1.95836 174.754 1.68753 174.962 1.56253C175.171 1.43753 175.452 1.37503 175.806 1.37503C176.223 1.37503 176.525 1.50003 176.712 1.75003C176.921 1.9792 177.067 2.27086 177.15 2.62503C177.233 2.95836 177.275 3.32295 177.275 3.71878C177.275 4.09378 177.285 4.4167 177.306 4.68753C177.306 4.95836 177.327 5.43753 177.369 6.12503C177.41 6.81253 177.452 7.5417 177.494 8.31253C177.535 9.08336 177.577 9.81253 177.619 10.5C177.66 11.1875 177.692 11.6667 177.712 11.9375C177.796 11.9167 177.952 11.8646 178.181 11.7813C178.431 11.6771 178.692 11.5834 178.962 11.5C179.233 11.3959 179.483 11.3021 179.712 11.2188C179.962 11.1354 180.14 11.0729 180.244 11.0313C180.785 10.8021 181.348 10.5521 181.931 10.2813C182.515 9.98962 183.108 9.84378 183.712 9.84378C184.129 9.84378 184.442 9.98962 184.65 10.2813C184.879 10.5521 184.994 10.875 184.994 11.25C184.994 11.5209 184.89 11.7188 184.681 11.8438C184.473 11.9688 184.254 12.0834 184.025 12.1875L178.337 14.3125C178.275 14.3542 178.212 14.3959 178.15 14.4375C178.087 14.4584 178.025 14.5 177.962 14.5625L177.962 15.5625C177.962 16.2917 177.973 17.0521 177.994 17.8438C178.035 18.6146 178.108 19.3646 178.212 20.0938C178.317 20.7188 178.431 21.3334 178.556 21.9375C178.681 22.5417 178.744 23.1563 178.744 23.7813C178.744 23.9688 178.681 24.2188 178.556 24.5313C178.431 24.8438 178.233 25 177.962 25C177.4 25 176.942 24.8334 176.587 24.5C176.233 24.1667 176.035 23.7188 175.994 23.1563C175.89 22.0729 175.775 20.8854 175.65 19.5938C175.546 18.3021 175.442 17.0625 175.337 15.875L175.212 15.875ZM188.354 15.875C188.062 15.875 187.802 15.9479 187.572 16.0938C187.343 16.2396 187.072 16.3125 186.76 16.3125C186.718 16.3125 186.604 16.3125 186.416 16.3125C186.25 16.2917 186.145 16.2813 186.104 16.2813C186.02 16.1771 185.927 16.0938 185.822 16.0313C185.718 15.9688 185.614 15.9063 185.51 15.8438C185.406 15.7604 185.312 15.6667 185.229 15.5625C185.166 15.4584 185.135 15.3125 185.135 15.125C185.135 14.8125 185.26 14.5625 185.51 14.375C185.76 14.1667 186.052 13.9896 186.385 13.8438C186.718 13.6979 187.052 13.5625 187.385 13.4375C187.739 13.3125 188.02 13.1667 188.229 13L188.229 11.625C188.229 10.0834 188.156 8.5417 188.01 7.00003C187.864 5.43753 187.791 3.89587 187.791 2.37503C187.791 1.95837 187.895 1.68753 188.104 1.56253C188.312 1.43753 188.593 1.37503 188.947 1.37503C189.364 1.37503 189.666 1.50003 189.854 1.75003C190.062 1.9792 190.208 2.27087 190.291 2.62503C190.375 2.95837 190.416 3.32295 190.416 3.71878C190.416 4.09378 190.427 4.4167 190.447 4.68753C190.447 4.95837 190.468 5.43753 190.51 6.12503C190.552 6.81253 190.593 7.5417 190.635 8.31253C190.677 9.08337 190.718 9.81253 190.76 10.5C190.802 11.1875 190.833 11.6667 190.854 11.9375C190.937 11.9167 191.093 11.8646 191.322 11.7813C191.572 11.6771 191.833 11.5834 192.104 11.5C192.375 11.3959 192.625 11.3021 192.854 11.2188C193.104 11.1355 193.281 11.073 193.385 11.0313C193.927 10.8021 194.489 10.5521 195.072 10.2813C195.656 9.98962 196.25 9.84378 196.854 9.84378C197.27 9.84378 197.583 9.98962 197.791 10.2813C198.02 10.5521 198.135 10.875 198.135 11.25C198.135 11.5209 198.031 11.7188 197.822 11.8438C197.614 11.9688 197.395 12.0834 197.166 12.1875L191.479 14.3125C191.416 14.3542 191.354 14.3959 191.291 14.4375C191.229 14.4584 191.166 14.5 191.104 14.5625L191.104 15.5625C191.104 16.2917 191.114 17.0521 191.135 17.8438C191.177 18.6146 191.25 19.3646 191.354 20.0938C191.458 20.7188 191.572 21.3334 191.697 21.9375C191.822 22.5417 191.885 23.1563 191.885 23.7813C191.885 23.9688 191.822 24.2188 191.697 24.5313C191.572 24.8438 191.375 25 191.104 25C190.541 25 190.083 24.8334 189.729 24.5C189.375 24.1667 189.177 23.7188 189.135 23.1563C189.031 22.0729 188.916 20.8854 188.791 19.5938C188.687 18.3021 188.583 17.0625 188.479 15.875L188.354 15.875ZM211.557 16.125C211.516 16.5 211.464 16.7917 211.401 17C211.36 17.2084 211.276 17.3959 211.151 17.5625C211.026 17.7292 210.849 17.9063 210.62 18.0938C210.391 18.2605 210.078 18.5105 209.682 18.8438C209.287 19.1563 208.797 19.573 208.214 20.0938C207.63 20.6146 206.922 21.2917 206.089 22.125C205.755 22.4375 205.412 22.7605 205.057 23.0938C204.703 23.4271 204.328 23.7292 203.932 24C203.557 24.25 203.162 24.4584 202.745 24.625C202.328 24.7917 201.891 24.875 201.432 24.875C200.537 24.875 199.88 24.573 199.464 23.9688C199.047 23.3646 198.839 22.6667 198.839 21.875C198.839 21.3542 198.849 20.9167 198.87 20.5625C198.912 20.2084 198.995 19.75 199.12 19.1875C198.891 18.9792 198.693 18.8021 198.526 18.6563C198.36 18.4896 198.276 18.2709 198.276 18C198.276 17.75 198.328 17.5834 198.432 17.5C198.557 17.4167 198.693 17.3646 198.839 17.3438C199.005 17.3021 199.162 17.2605 199.307 17.2188C199.453 17.1771 199.557 17.0938 199.62 16.9688C199.662 16.8438 199.735 16.6146 199.839 16.2813C199.964 15.948 200.089 15.6042 200.214 15.25C200.339 14.875 200.453 14.5313 200.557 14.2188C200.682 13.8855 200.766 13.6563 200.807 13.5313C200.953 13.1771 201.11 12.823 201.276 12.4688C201.464 12.0938 201.672 11.7605 201.901 11.4688C202.151 11.1771 202.432 10.9375 202.745 10.75C203.078 10.5625 203.464 10.4688 203.901 10.4688C204.151 10.4688 204.453 10.5834 204.807 10.8125C205.182 11.0417 205.537 11.323 205.87 11.6563C206.203 11.9688 206.485 12.3021 206.714 12.6563C206.943 13.0105 207.057 13.3125 207.057 13.5625C207.057 13.875 206.985 14.1667 206.839 14.4375C206.693 14.6875 206.505 14.9271 206.276 15.1563C206.068 15.3646 205.839 15.5625 205.589 15.75C205.339 15.9375 205.11 16.1146 204.901 16.2813C204.88 16.2813 204.839 16.3021 204.776 16.3438C204.714 16.3855 204.662 16.4167 204.62 16.4375C204.599 16.4584 204.547 16.5105 204.464 16.5938C204.401 16.6563 204.328 16.7292 204.245 16.8125C204.162 16.8959 204.078 16.9792 203.995 17.0625C203.932 17.1459 203.891 17.198 203.87 17.2188C203.807 17.2813 203.682 17.3855 203.495 17.5313C203.328 17.6563 203.141 17.8021 202.932 17.9688C202.724 18.1146 202.526 18.2605 202.339 18.4063C202.172 18.5313 202.057 18.6146 201.995 18.6563L201.87 18.9063C201.828 18.9896 201.787 19.1771 201.745 19.4688C201.724 19.7396 201.693 20.0521 201.651 20.4063C201.61 20.7605 201.568 21.125 201.526 21.5C201.505 21.8542 201.495 22.1459 201.495 22.375C201.495 22.3959 201.505 22.4167 201.526 22.4375C201.568 22.4792 201.599 22.5 201.62 22.5C201.787 22.5 201.943 22.4271 202.089 22.2813C202.235 22.1355 202.391 22.0313 202.557 21.9688L207.557 17.3438L208.839 15.375C208.943 15.2292 209.141 15.073 209.432 14.9063C209.745 14.7188 210.057 14.625 210.37 14.625C210.682 14.6042 210.953 14.698 211.182 14.9063C211.432 15.1146 211.557 15.5209 211.557 16.125ZM204.682 13.6875C204.787 13.6042 204.828 13.4792 204.807 13.3125C204.787 13.1459 204.724 13 204.62 12.875C204.537 12.75 204.422 12.6771 204.276 12.6563C204.13 12.6146 203.995 12.6875 203.87 12.875C203.807 12.9584 203.693 13.125 203.526 13.375C203.38 13.625 203.224 13.8855 203.057 14.1563C202.912 14.4063 202.787 14.625 202.682 14.8125C202.578 15 202.557 15.073 202.62 15.0313L204.682 13.6875ZM213.167 23.6563C213.126 22.9063 213.053 21.9063 212.949 20.6563C212.865 19.3855 212.761 18.073 212.636 16.7188C212.532 15.3646 212.417 14.0834 212.292 12.875C212.167 11.6667 212.063 10.7292 211.98 10.0625C211.98 9.7917 212.105 9.61462 212.355 9.53129C212.605 9.44795 212.845 9.40629 213.074 9.40629C213.365 9.40629 213.667 9.48962 213.98 9.65629C214.313 9.82295 214.522 10.0521 214.605 10.3438C214.605 10.4271 214.615 10.5834 214.636 10.8125C214.657 11.0209 214.667 11.2396 214.667 11.4688C214.688 11.698 214.709 11.9271 214.73 12.1563C214.751 12.3646 214.761 12.5105 214.761 12.5938C214.761 12.7188 214.761 12.8125 214.761 12.875C214.761 12.9375 214.761 13 214.761 13.0625C214.761 13.1042 214.772 13.1563 214.792 13.2188C214.813 13.2813 214.845 13.3855 214.886 13.5313C214.928 13.4896 214.97 13.4375 215.011 13.375C215.074 13.3125 215.115 13.2709 215.136 13.25C215.47 12.7709 215.792 12.3542 216.105 12C216.417 11.625 216.74 11.2813 217.074 10.9688C217.407 10.6355 217.772 10.2917 218.167 9.93754C218.584 9.56254 219.063 9.13545 219.605 8.65629C219.73 8.55212 219.824 8.47921 219.886 8.43754C219.949 8.37504 220.001 8.33337 220.042 8.31254C220.105 8.27087 220.167 8.25004 220.23 8.25004C220.292 8.22921 220.376 8.21879 220.48 8.21879C220.834 8.21879 221.188 8.34379 221.542 8.59379C221.917 8.82296 222.105 9.14587 222.105 9.56254C222.105 9.70837 222.053 9.86462 221.949 10.0313C221.845 10.1771 221.72 10.323 221.574 10.4688C221.428 10.5938 221.272 10.7084 221.105 10.8125C220.959 10.9167 220.824 10.9896 220.699 11.0313C220.157 11.5105 219.584 12.0625 218.98 12.6875C218.376 13.2917 217.813 13.948 217.292 14.6563C216.772 15.3646 216.345 16.1042 216.011 16.875C215.678 17.6459 215.511 18.4167 215.511 19.1875C215.511 19.8959 215.563 20.5938 215.667 21.2813C215.772 21.9688 215.824 22.6667 215.824 23.375L215.824 24.4688C215.657 24.6355 215.511 24.7709 215.386 24.875C215.261 24.9792 215.084 25.0313 214.855 25.0313C214.501 25.0313 214.157 24.8855 213.824 24.5938C213.49 24.2813 213.272 23.9688 213.167 23.6563ZM242.294 20.0625C242.273 20.0625 242.127 20.2917 241.856 20.75C241.606 21.2084 241.262 21.7084 240.825 22.25C240.387 22.7917 239.867 23.2917 239.262 23.75C238.679 24.2084 238.054 24.4375 237.387 24.4375C236.471 24.4375 235.7 24.1563 235.075 23.5938C234.471 23.0313 234.169 22.2605 234.169 21.2813C234.127 20.7813 234.19 20.1875 234.356 19.5C234.544 18.8125 234.804 18.1042 235.137 17.375C235.492 16.625 235.908 15.9063 236.387 15.2188C236.887 14.5105 237.419 13.9063 237.981 13.4063C238.544 12.8855 239.127 12.5 239.731 12.25C240.356 12 240.981 11.9584 241.606 12.125L241.606 11.6875C241.606 11.1459 241.585 10.5938 241.544 10.0313C241.523 9.44796 241.492 8.79171 241.45 8.06254C241.429 7.31254 241.398 6.45838 241.356 5.50004C241.335 4.52088 241.325 3.35421 241.325 2.00004C241.387 1.77088 241.492 1.62504 241.637 1.56254C241.804 1.47921 241.981 1.43754 242.169 1.43754C242.648 1.43754 243.023 1.59379 243.294 1.90629C243.585 2.21879 243.762 2.60421 243.825 3.06254C243.783 3.77088 243.762 4.50004 243.762 5.25004C243.783 5.97921 243.825 6.81254 243.887 7.75004C243.95 8.68754 244.044 9.75004 244.169 10.9375C244.315 12.125 244.492 13.5313 244.7 15.1563C244.908 16.7605 245.158 18.6146 245.45 20.7188C245.742 22.8021 246.085 25.2188 246.481 27.9688L246.481 29.0313C246.481 29.1563 246.429 29.25 246.325 29.3125C246.242 29.375 246.127 29.4167 245.981 29.4375C245.856 29.4792 245.721 29.5 245.575 29.5C245.45 29.5209 245.356 29.5313 245.294 29.5313C244.981 29.5313 244.648 29.4375 244.294 29.25C243.94 29.0834 243.731 28.8438 243.669 28.5313L242.512 20.1875C242.512 20.125 242.481 20.0938 242.419 20.0938C242.377 20.073 242.335 20.0625 242.294 20.0625ZM236.794 20.75C236.794 20.8125 236.783 20.9271 236.762 21.0938C236.762 21.2396 236.762 21.3959 236.762 21.5625C236.783 21.7292 236.815 21.875 236.856 22C236.898 22.125 236.981 22.1875 237.106 22.1875C237.627 22.2084 238.158 22.0105 238.7 21.5938C239.262 21.1771 239.773 20.6667 240.231 20.0625C240.69 19.4375 241.065 18.7709 241.356 18.0625C241.669 17.3542 241.835 16.7188 241.856 16.1563C241.898 15.5938 241.762 15.1667 241.45 14.875C241.158 14.5625 240.648 14.4896 239.919 14.6563C239.023 15.448 238.273 16.3542 237.669 17.375C237.085 18.3959 236.794 19.5209 236.794 20.75ZM259.747 16.125C259.706 16.5 259.654 16.7917 259.591 17C259.55 17.2084 259.466 17.3959 259.341 17.5625C259.216 17.7292 259.039 17.9063 258.81 18.0938C258.581 18.2605 258.268 18.5105 257.872 18.8438C257.477 19.1563 256.987 19.573 256.404 20.0938C255.82 20.6146 255.112 21.2917 254.279 22.125C253.945 22.4375 253.602 22.7605 253.247 23.0938C252.893 23.4271 252.518 23.7292 252.122 24C251.747 24.25 251.352 24.4584 250.935 24.625C250.518 24.7917 250.081 24.875 249.622 24.875C248.727 24.875 248.07 24.573 247.654 23.9688C247.237 23.3646 247.029 22.6667 247.029 21.875C247.029 21.3542 247.039 20.9167 247.06 20.5625C247.102 20.2084 247.185 19.75 247.31 19.1875C247.081 18.9792 246.883 18.8021 246.716 18.6563C246.55 18.4896 246.466 18.2709 246.466 18C246.466 17.75 246.518 17.5834 246.622 17.5C246.747 17.4167 246.883 17.3646 247.029 17.3438C247.195 17.3021 247.352 17.2605 247.497 17.2188C247.643 17.1771 247.747 17.0938 247.81 16.9688C247.852 16.8438 247.925 16.6146 248.029 16.2813C248.154 15.948 248.279 15.6042 248.404 15.25C248.529 14.875 248.643 14.5313 248.747 14.2188C248.872 13.8855 248.956 13.6563 248.997 13.5313C249.143 13.1771 249.3 12.823 249.466 12.4688C249.654 12.0938 249.862 11.7605 250.091 11.4688C250.341 11.1771 250.622 10.9375 250.935 10.75C251.268 10.5625 251.654 10.4688 252.091 10.4688C252.341 10.4688 252.643 10.5834 252.997 10.8125C253.372 11.0417 253.727 11.323 254.06 11.6563C254.393 11.9688 254.675 12.3021 254.904 12.6563C255.133 13.0105 255.247 13.3125 255.247 13.5625C255.247 13.875 255.175 14.1667 255.029 14.4375C254.883 14.6875 254.695 14.9271 254.466 15.1563C254.258 15.3646 254.029 15.5625 253.779 15.75C253.529 15.9375 253.3 16.1146 253.091 16.2813C253.07 16.2813 253.029 16.3021 252.966 16.3438C252.904 16.3855 252.852 16.4167 252.81 16.4375C252.789 16.4584 252.737 16.5105 252.654 16.5938C252.591 16.6563 252.518 16.7292 252.435 16.8125C252.352 16.8959 252.268 16.9792 252.185 17.0625C252.122 17.1459 252.081 17.198 252.06 17.2188C251.997 17.2813 251.872 17.3855 251.685 17.5313C251.518 17.6563 251.331 17.8021 251.122 17.9688C250.914 18.1146 250.716 18.2605 250.529 18.4063C250.362 18.5313 250.247 18.6146 250.185 18.6563L250.06 18.9063C250.018 18.9896 249.977 19.1771 249.935 19.4688C249.914 19.7396 249.883 20.0521 249.841 20.4063C249.8 20.7605 249.758 21.125 249.716 21.5C249.695 21.8542 249.685 22.1459 249.685 22.375C249.685 22.3959 249.695 22.4167 249.716 22.4375C249.758 22.4792 249.789 22.5 249.81 22.5C249.977 22.5 250.133 22.4271 250.279 22.2813C250.425 22.1355 250.581 22.0313 250.747 21.9688L255.747 17.3438L257.029 15.375C257.133 15.2292 257.331 15.073 257.622 14.9063C257.935 14.7188 258.247 14.625 258.56 14.625C258.872 14.6042 259.143 14.698 259.372 14.9063C259.622 15.1146 259.747 15.5209 259.747 16.125ZM252.872 13.6875C252.977 13.6042 253.018 13.4792 252.997 13.3125C252.977 13.1459 252.914 13 252.81 12.875C252.727 12.75 252.612 12.6771 252.466 12.6563C252.32 12.6146 252.185 12.6875 252.06 12.875C251.997 12.9584 251.883 13.125 251.716 13.375C251.57 13.625 251.414 13.8855 251.247 14.1563C251.102 14.4063 250.977 14.625 250.872 14.8125C250.768 15 250.747 15.073 250.81 15.0313L252.872 13.6875ZM264.67 23.8125C264.67 23.7084 264.67 23.6146 264.67 23.5313C264.691 23.448 264.743 23.3646 264.826 23.2813C265.076 22.9688 265.358 22.6459 265.67 22.3125C265.983 21.9584 266.285 21.6146 266.576 21.2813C266.868 20.9271 267.139 20.5625 267.389 20.1875C267.639 19.8125 267.847 19.4375 268.014 19.0625L268.014 18.875L263.92 19.7188L263.451 19.7188C263.16 19.7188 262.795 19.698 262.358 19.6563C261.941 19.6146 261.524 19.5313 261.108 19.4063C260.712 19.2605 260.368 19.0625 260.076 18.8125C259.805 18.5625 259.67 18.2292 259.67 17.8125C259.691 17.3334 259.941 16.8021 260.42 16.2188C260.899 15.6355 261.462 15.0625 262.108 14.5C262.753 13.9375 263.399 13.4167 264.045 12.9375C264.712 12.4584 265.243 12.0834 265.639 11.8125C266.076 11.5625 266.597 11.3646 267.201 11.2188C267.805 11.0521 268.358 10.9688 268.858 10.9688C269.274 10.9688 269.639 11.0521 269.951 11.2188C270.264 11.3646 270.42 11.6667 270.42 12.125C270.42 12.3125 270.399 12.4896 270.358 12.6563C270.337 12.823 270.212 12.9375 269.983 13C269.316 12.9375 268.691 12.9896 268.108 13.1563C267.524 13.3021 266.972 13.5313 266.451 13.8438C265.93 14.1563 265.441 14.5313 264.983 14.9688C264.524 15.3855 264.076 15.823 263.639 16.2813C263.514 16.4271 263.358 16.6355 263.17 16.9063C262.983 17.1563 262.889 17.3021 262.889 17.3438L262.889 17.375C263.43 17.375 263.962 17.323 264.483 17.2188C265.024 17.1146 265.555 17.0105 266.076 16.9063C266.618 16.7813 267.149 16.6667 267.67 16.5625C268.212 16.4584 268.764 16.4063 269.326 16.4063C269.535 16.4063 269.764 16.4271 270.014 16.4688C270.264 16.4896 270.493 16.5521 270.701 16.6563C270.93 16.7605 271.108 16.9063 271.233 17.0938C271.378 17.2605 271.451 17.4792 271.451 17.75C271.451 18.1459 271.347 18.5313 271.139 18.9063C270.951 19.2605 270.66 19.698 270.264 20.2188C269.889 20.7188 269.399 21.3334 268.795 22.0625C268.212 22.7917 267.514 23.7292 266.701 24.875C266.66 24.9375 266.555 24.9792 266.389 25C266.243 25.0209 266.118 25.0313 266.014 25.0313C265.722 25.0313 265.42 24.9063 265.108 24.6563C264.816 24.4063 264.67 24.125 264.67 23.8125ZM273.655 23.8125C273.447 21.7292 273.27 19.948 273.124 18.4688C272.978 16.9896 272.853 15.75 272.749 14.75C272.645 13.75 272.551 12.9584 272.467 12.375C272.405 11.7709 272.353 11.323 272.311 11.0313C272.27 10.7188 272.238 10.5105 272.217 10.4063C272.197 10.3021 272.186 10.2396 272.186 10.2188L272.186 10.0938C272.186 9.86463 272.28 9.67713 272.467 9.5313C272.676 9.36463 272.884 9.2813 273.092 9.2813C273.405 9.2813 273.738 9.33338 274.092 9.43755C274.467 9.54171 274.717 9.76046 274.842 10.0938C275.03 11.1146 275.155 12.1459 275.217 13.1875C275.301 14.2292 275.363 15.2709 275.405 16.3125C275.467 17.3334 275.54 18.3646 275.624 19.4063C275.728 20.448 275.905 21.4792 276.155 22.5C276.155 22.5417 276.165 22.625 276.186 22.75C276.228 22.875 276.259 23.0105 276.28 23.1563C276.322 23.3021 276.353 23.4375 276.374 23.5625C276.395 23.6875 276.405 23.7709 276.405 23.8125L276.405 23.875C276.405 23.8959 276.415 23.9167 276.436 23.9375C276.436 24.1875 276.322 24.4375 276.092 24.6875C275.863 24.9375 275.624 25.0417 275.374 25C275.311 24.9792 275.155 24.948 274.905 24.9063C274.676 24.8438 274.52 24.7917 274.436 24.75C274.374 24.7292 274.29 24.6875 274.186 24.625C274.082 24.5417 273.978 24.4584 273.874 24.375C273.79 24.2917 273.717 24.198 273.655 24.0938C273.592 23.9896 273.592 23.8959 273.655 23.8125ZM271.905 1.0313C271.905 0.885464 272.02 0.760464 272.249 0.656298C272.499 0.531298 272.686 0.468798 272.811 0.468798C273.124 0.468798 273.467 0.562548 273.842 0.750048C274.238 0.916715 274.436 1.17713 274.436 1.5313C274.436 1.88546 274.384 2.12505 274.28 2.25005C274.197 2.37505 273.978 2.43755 273.624 2.43755C273.249 2.43755 272.863 2.31255 272.467 2.06255C272.092 1.81255 271.905 1.4688 271.905 1.0313ZM278.484 35.9063C278.4 35.6771 278.4 35.4167 278.484 35.125C278.588 34.8334 278.786 34.6459 279.078 34.5625C279.557 34.7709 280.057 34.9063 280.578 34.9688C281.098 35.0313 281.619 35.0417 282.14 35C282.682 34.9584 283.213 34.875 283.734 34.75C284.255 34.625 284.755 34.4792 285.234 34.3125C285.713 33.9167 286.046 33.3959 286.234 32.7501C286.421 32.1251 286.494 31.2605 286.453 30.1563C286.411 29.073 286.265 27.7084 286.015 26.0626C285.786 24.4375 285.484 22.4375 285.109 20.0625C285.109 20 285.109 19.9063 285.109 19.7813C285.13 19.6563 285.13 19.5417 285.109 19.4375C285.088 19.3125 285.046 19.2188 284.984 19.1563C284.942 19.0938 284.88 19.0938 284.796 19.1563C284.525 19.6771 284.203 20.25 283.828 20.875C283.473 21.4792 283.057 22.0521 282.578 22.5938C282.119 23.1146 281.598 23.5521 281.015 23.9063C280.453 24.2605 279.817 24.4375 279.109 24.4375C278.484 24.4375 277.932 24.2605 277.453 23.9063C276.994 23.5313 276.765 23 276.765 22.3125C276.765 21.7917 276.869 21.1355 277.078 20.3438C277.307 19.5521 277.609 18.7188 277.984 17.8438C278.359 16.948 278.796 16.0625 279.296 15.1875C279.796 14.3125 280.317 13.5209 280.859 12.8125C281.4 12.1042 281.953 11.5313 282.515 11.0938C283.078 10.6355 283.619 10.4063 284.14 10.4063C284.348 10.4063 284.619 10.448 284.953 10.5313C285.307 10.5938 285.64 10.698 285.953 10.8438C286.286 10.9896 286.567 11.1563 286.796 11.3438C287.046 11.5313 287.171 11.7501 287.171 12.0001L287.171 14.5313L289.203 29.2813C289.203 30.1146 289.182 30.9063 289.14 31.6563C289.119 32.4271 288.984 33.1355 288.734 33.7813C288.505 34.4271 288.13 35.0001 287.609 35.5001C287.088 36.0001 286.338 36.4063 285.359 36.7188C285.234 36.7813 284.973 36.8334 284.578 36.875C284.182 36.9167 283.723 36.948 283.203 36.9688C282.703 36.9896 282.161 36.9896 281.578 36.9688C281.015 36.948 280.494 36.8959 280.015 36.8125C279.557 36.75 279.182 36.6459 278.89 36.5C278.598 36.3542 278.463 36.1563 278.484 35.9063ZM283.359 13.1875C283.15 13.4167 282.869 13.7813 282.515 14.2813C282.182 14.7813 281.838 15.3334 281.484 15.9375C281.13 16.5417 280.775 17.1771 280.421 17.8438C280.088 18.4896 279.817 19.0938 279.609 19.6563C279.4 20.2188 279.265 20.698 279.203 21.0938C279.161 21.4896 279.255 21.7292 279.484 21.8125C279.921 21.5834 280.39 21.2084 280.89 20.6875C281.39 20.1459 281.859 19.5521 282.296 18.9063C282.755 18.2396 283.15 17.5625 283.484 16.875C283.838 16.1667 284.078 15.5313 284.203 14.9688C284.348 14.4063 284.359 13.9584 284.234 13.625C284.13 13.2709 283.838 13.125 283.359 13.1875ZM298.219 23.9376C297.927 23.5209 297.677 22.948 297.469 22.2188C297.281 21.4688 297.094 20.6876 296.906 19.8751C296.74 19.0417 296.583 18.2396 296.437 17.4688C296.292 16.6771 296.135 16.0521 295.969 15.5938C295.823 15.1146 295.656 14.8438 295.469 14.7813C295.281 14.7188 295.062 15.0001 294.812 15.6251L292.094 24.0001C291.99 24.2917 291.865 24.5001 291.719 24.6251C291.573 24.7292 291.333 24.7813 291 24.7813C290.833 24.7813 290.656 24.7605 290.469 24.7188C290.281 24.6563 290.104 24.573 289.937 24.4688C289.771 24.3646 289.625 24.2396 289.5 24.0938C289.396 23.948 289.333 23.7813 289.312 23.5938C289.375 23.3438 289.427 22.8855 289.469 22.2188C289.531 21.5521 289.573 20.7813 289.594 19.9063C289.615 19.0313 289.625 18.1146 289.625 17.1563C289.646 16.1771 289.646 15.2709 289.625 14.4376C289.625 13.5834 289.615 12.8542 289.594 12.2501C289.573 11.6251 289.552 11.2188 289.531 11.0313C289.531 10.823 289.531 10.6146 289.531 10.4063C289.552 10.1771 289.583 9.9688 289.625 9.7813C289.687 9.5938 289.781 9.44797 289.906 9.3438C290.052 9.2188 290.271 9.1563 290.562 9.1563C290.958 9.1563 291.323 9.32297 291.656 9.6563C292.01 9.98963 292.187 10.3438 292.187 10.7188C292.187 11.2605 292.156 11.8021 292.094 12.3438C292.052 12.8646 292.031 13.3959 292.031 13.9376C292.031 14.2709 292.031 14.5521 292.031 14.7813C292.031 15.0105 292.073 15.2917 292.156 15.6251C292.219 15.4584 292.323 15.1667 292.469 14.7501C292.615 14.3334 292.771 13.8959 292.937 13.4376C293.125 12.9792 293.292 12.5521 293.437 12.1563C293.583 11.7396 293.687 11.448 293.75 11.2813C293.896 10.8646 294.115 10.4688 294.406 10.0938C294.698 9.69797 295.083 9.47922 295.562 9.43755C295.875 9.41672 296.156 9.50005 296.406 9.68755C296.677 9.87505 296.906 10.1251 297.094 10.4376C297.281 10.7292 297.437 11.0417 297.562 11.3751C297.687 11.6876 297.781 11.9584 297.844 12.1876L299.531 19.9688L300.844 23.5313C300.865 23.5521 300.875 23.6146 300.875 23.7188C300.875 23.8021 300.875 23.8646 300.875 23.9063C300.875 24.1563 300.812 24.4063 300.687 24.6563C300.583 24.8855 300.385 25.0001 300.094 25.0001C299.74 25.0001 299.375 24.9063 299 24.7188C298.625 24.5105 298.365 24.2501 298.219 23.9376ZM301.579 23.8126C301.579 23.5209 301.683 23.2501 301.891 23.0001C302.12 22.7501 302.381 22.6251 302.672 22.6251C303.027 22.6251 303.308 22.7188 303.516 22.9063C303.745 23.0938 303.964 23.3021 304.172 23.5313L304.172 23.6251C304.172 23.9792 304.047 24.3021 303.797 24.5938C303.568 24.8646 303.256 25.0001 302.86 25.0001C302.589 25.0001 302.308 24.8751 302.016 24.6251C301.725 24.3751 301.579 24.1042 301.579 23.8126Z" fill="#0D0D0D"/>
</svg>
